{
DisplayStrings = (
0
);
classes = (
{
automatic = 1;
code = "A B C D E F G H I J K L M N O P Q R S T U V W X Y Z Agrave Aacute Acircumflex Atilde Adieresis Aring AE Ccedilla Egrave Eacute Ecircumflex Edieresis Igrave Iacute Icircumflex Idieresis Eth Ntilde Ograve Oacute Ocircumflex Otilde Odieresis Oslash Ugrave Uacute Ucircumflex Udieresis Yacute Thorn Cacute Ccaron Gbreve Idotaccent Lslash OE Scedilla Scaron Ydieresis Zcaron Omega Delta Abreve Abreveacute Abrevedotbelow Abrevegrave Abrevehookabove Abrevetilde Acaron Acircumflexacute Acircumflexdotbelow Acircumflexgrave Acircumflexhookabove Acircumflextilde Adieresismacron Adotbelow Ahookabove Amacron Aogonek Bdotbelow Cdotaccent Dcaron Dcircumflexbelow Dcroat Ddotbelow Dlinebelow Ecaron Ecedilla Ecircumflexacute Ecircumflexdotbelow Ecircumflexgrave Ecircumflexhookabove Ecircumflextilde Edotaccent Edotbelow Ehookabove Emacron Eogonek Etilde Gcaron Gcommaaccent Gdotaccent Hbar Hdotbelow IJ Icaron Idieresisacute Idotbelow Ihookabove Imacron Iogonek Itilde Kcommaaccent Lacute Lcaron Lcircumflexbelow Lcommaaccent Ldot Ldotbelow Macute Nacute Ncaron Ncircumflexbelow Ncommaaccent Ndotaccent Ndotbelow Eng Ocaron Ocircumflexacute Ocircumflexdotbelow Ocircumflexgrave Ocircumflexhookabove Ocircumflextilde Odiaeresismacron Odotbelow Ohookabove Ohorn Ohornacute Ohorndotbelow Ohorngrave Ohornhookabove Ohorntilde Ohungarumlaut Omacron Omacronacute Omacrongrave Oslashacute Otildeacute Racute Rcaron Rcommaaccent Sacute Scommaaccent Sdotbelow Tbar Tcaron Tcedilla Tcircumflexbelow Tcommaaccent Tdotbelow Tlinebelow Ucaron Udieresisacute Udieresiscaron Udieresisgrave Udieresismacron Udotbelow Uhookabove Uhorn Uhornacute Uhorndotbelow Uhorngrave Uhornhookabove Uhorntilde Uhungarumlaut Umacron Uogonek Uring Utilde Wacute Wcircumflex Wdieresis Wgrave Ycircumflex Ydotbelow Ygrave Yhookabove Ytilde Zacute Zdotaccent Zdotbelow";
name = Uppercase;
}
);

glyphs = (
{
glyphname = .notdef;
lastChange = "2014-11-05 03:29:27 -0500";
layers = (
{
layerId = "6B6936E6-7670-4A82-900D-EAF583C971AF";
name = Regular;
paths = (
{
closed = 1;
nodes = (
"73 -177 LINE",
"73 705 LINE",
"573 705 LINE",
"573 -177 LINE"
);
},
{
closed = 1;
nodes = (
"129 -33 LINE",
"518 -33 LINE",
"518 649 LINE",
"129 649 LINE"
);
}
);
width = 646;
}
);
},
{
glyphname = exclam;
lastChange = "2014-11-05 03:29:27 -0500";
layers = (
{
layerId = "6B6936E6-7670-4A82-900D-EAF583C971AF";
name = Regular;
paths = (
{
closed = 1;
nodes = (
"87 124 LINE",
"191 124 LINE",
"201 0 LINE",
"78 0 LINE"
);
},
{
closed = 1;
nodes = (
"92 729 LINE",
"187 729 LINE",
"191 409 LINE",
"206 235 LINE",
"73 235 LINE",
"83 409 LINE"
);
}
);
width = 279;
}
);
unicode = 0021;
},
{
glyphname = quotedbl;
lastChange = "2014-11-05 03:29:27 -0500";
layers = (
{
layerId = "6B6936E6-7670-4A82-900D-EAF583C971AF";
name = Regular;
paths = (
{
closed = 1;
nodes = (
"166 729 LINE",
"171 442 LINE",
"73 442 LINE",
"79 729 LINE"
);
},
{
closed = 1;
nodes = (
"361 729 LINE",
"367 442 LINE",
"269 442 LINE",
"273 729 LINE"
);
}
);
width = 440;
}
);
unicode = 0022;
},
{
glyphname = numbersign;
lastChange = "2014-11-05 03:29:27 -0500";
layers = (
{
layerId = "6B6936E6-7670-4A82-900D-EAF583C971AF";
name = Regular;
paths = (
{
closed = 1;
nodes = (
"507 440 LINE",
"365 440 LINE",
"324 277 LINE",
"467 277 LINE"
);
},
{
closed = 1;
nodes = (
"434 718 LINE",
"383 515 LINE",
"526 515 LINE",
"577 718 LINE",
"655 718 LINE",
"605 515 LINE",
"757 515 LINE",
"757 440 LINE",
"586 440 LINE",
"546 277 LINE",
"701 277 LINE",
"701 202 LINE",
"527 202 LINE",
"476 0 LINE",
"398 0 LINE",
"448 202 LINE",
"305 202 LINE",
"255 0 LINE",
"176 0 LINE",
"227 202 LINE",
"73 202 LINE",
"73 277 LINE",
"245 277 LINE",
"286 440 LINE",
"129 440 LINE",
"129 515 LINE",
"305 515 LINE",
"355 718 LINE"
);
}
);
width = 831;
}
);
unicode = 0023;
},
{
glyphname = dollar;
lastChange = "2014-11-05 03:29:27 -0500";
layers = (
{
layerId = "6B6936E6-7670-4A82-900D-EAF583C971AF";
name = Regular;
paths = (
{
closed = 1;
nodes = (
"349 -144 LINE",
"261 -142 LINE",
"273 5 LINE",
"211 7 OFFCURVE",
"142 22 OFFCURVE",
"73 53 CURVE",
"75 170 LINE",
"141 127 OFFCURVE",
"209 105 OFFCURVE",
"275 104 CURVE",
"279 296 LINE",
"142 322 OFFCURVE",
"85 377 OFFCURVE",
"81 475 CURVE",
"83 581 OFFCURVE",
"157 643 OFFCURVE",
"290 649 CURVE",
"292 764 LINE",
"340 763 LINE",
"338 650 LINE",
"399 646 OFFCURVE",
"456 636 OFFCURVE",
"509 617 CURVE",
"507 541 LINE",
"454 570 OFFCURVE",
"397 585 OFFCURVE",
"337 589 CURVE",
"333 361 LINE",
"481 336 OFFCURVE",
"542 288 OFFCURVE",
"546 186 CURVE",
"544 76 OFFCURVE",
"462 12 OFFCURVE",
"342 4 CURVE"
);
},
{
closed = 1;
nodes = (
"281 586 LINE",
"199 578 OFFCURVE",
"150 532 OFFCURVE",
"150 475 CURVE SMOOTH",
"150 419 OFFCURVE",
"194 380 OFFCURVE",
"276 366 CURVE"
);
},
{
closed = 1;
nodes = (
"334 100 LINE",
"404 111 OFFCURVE",
"450 118 OFFCURVE",
"450 177 CURVE SMOOTH",
"450 234 OFFCURVE",
"410 267 OFFCURVE",
"330 282 CURVE"
);
}
);
width = 619;
}
);
unicode = 0024;
},
{
glyphname = percent;
lastChange = "2014-11-05 03:29:27 -0500";
layers = (
{
layerId = "6B6936E6-7670-4A82-900D-EAF583C971AF";
name = Regular;
paths = (
{
closed = 1;
nodes = (
"688 321 OFFCURVE",
"654 273 OFFCURVE",
"654 194 CURVE SMOOTH",
"654 115 OFFCURVE",
"688 67 OFFCURVE",
"745 67 CURVE SMOOTH",
"800 67 OFFCURVE",
"835 115 OFFCURVE",
"835 194 CURVE SMOOTH",
"835 272 OFFCURVE",
"800 321 OFFCURVE",
"745 321 CURVE SMOOTH"
);
},
{
closed = 1;
nodes = (
"848 383 OFFCURVE",
"913 306 OFFCURVE",
"913 184 CURVE SMOOTH",
"913 63 OFFCURVE",
"847 -14 OFFCURVE",
"745 -14 CURVE SMOOTH",
"641 -14 OFFCURVE",
"576 63 OFFCURVE",
"576 184 CURVE SMOOTH",
"576 307 OFFCURVE",
"642 383 OFFCURVE",
"745 383 CURVE SMOOTH"
);
},
{
closed = 1;
nodes = (
"185 680 OFFCURVE",
"151 629 OFFCURVE",
"151 547 CURVE SMOOTH",
"151 463 OFFCURVE",
"185 413 OFFCURVE",
"241 413 CURVE SMOOTH",
"298 413 OFFCURVE",
"332 463 OFFCURVE",
"332 547 CURVE SMOOTH",
"332 629 OFFCURVE",
"297 680 OFFCURVE",
"241 680 CURVE SMOOTH"
);
},
{
closed = 1;
nodes = (
"687 742 LINE",
"765 742 LINE",
"305 -14 LINE",
"226 -14 LINE"
);
},
{
closed = 1;
nodes = (
"344 742 OFFCURVE",
"410 666 OFFCURVE",
"410 544 CURVE SMOOTH",
"410 421 OFFCURVE",
"345 345 OFFCURVE",
"241 345 CURVE SMOOTH",
"138 345 OFFCURVE",
"73 421 OFFCURVE",
"73 544 CURVE SMOOTH",
"73 665 OFFCURVE",
"138 742 OFFCURVE",
"241 742 CURVE SMOOTH"
);
}
);
width = 986;
}
);
unicode = 0025;
},
{
glyphname = ampersand;
lastChange = "2014-11-05 03:29:27 -0500";
layers = (
{
layerId = "6B6936E6-7670-4A82-900D-EAF583C971AF";
name = Regular;
paths = (
{
closed = 1;
nodes = (
"230 412 LINE",
"170 358 OFFCURVE",
"143 307 OFFCURVE",
"143 249 CURVE SMOOTH",
"143 153 OFFCURVE",
"221 82 OFFCURVE",
"326 82 CURVE SMOOTH",
"389 82 OFFCURVE",
"443 103 OFFCURVE",
"491 144 CURVE"
);
},
{
closed = 1;
nodes = (
"556 203 LINE",
"594 261 OFFCURVE",
"601 317 OFFCURVE",
"605 391 CURVE",
"696 391 LINE",
"688 305 OFFCURVE",
"684 221 OFFCURVE",
"623 139 CURVE",
"759 0 LINE",
"636 0 LINE",
"566 72 LINE",
"499 14 OFFCURVE",
"426 -14 OFFCURVE",
"340 -14 CURVE SMOOTH",
"184 -14 OFFCURVE",
"73 85 OFFCURVE",
"73 225 CURVE SMOOTH",
"73 309 OFFCURVE",
"117 381 OFFCURVE",
"204 446 CURVE",
"173 487 OFFCURVE",
"156 528 OFFCURVE",
"156 567 CURVE SMOOTH",
"156 672 OFFCURVE",
"235 742 OFFCURVE",
"354 742 CURVE SMOOTH",
"409 742 OFFCURVE",
"462 730 OFFCURVE",
"517 707 CURVE",
"483 638 LINE",
"426 668 OFFCURVE",
"375 685 OFFCURVE",
"330 685 CURVE SMOOTH",
"262 685 OFFCURVE",
"215 645 OFFCURVE",
"215 587 CURVE SMOOTH",
"215 571 OFFCURVE",
"220 554 OFFCURVE",
"229 538 CURVE SMOOTH",
"239 521 OFFCURVE",
"258 497 OFFCURVE",
"288 466 CURVE SMOOTH"
);
}
);
width = 833;
}
);
unicode = 0026;
},
{
glyphname = quotesingle;
lastChange = "2014-11-05 03:29:27 -0500";
layers = (
{
layerId = "6B6936E6-7670-4A82-900D-EAF583C971AF";
name = Regular;
paths = (
{
closed = 1;
nodes = (
"156 729 LINE",
"156 458 LINE",
"73 458 LINE",
"73 729 LINE"
);
}
);
width = 229;
}
);
unicode = 0027;
},
{
glyphname = parenleft;
lastChange = "2014-11-05 03:29:27 -0500";
layers = (
{
layerId = "6B6936E6-7670-4A82-900D-EAF583C971AF";
name = Regular;
paths = (
{
closed = 1;
nodes = (
"335 755 LINE",
"235 614 OFFCURVE",
"179 474 OFFCURVE",
"173 324 CURVE",
"179 173 OFFCURVE",
"194 24 OFFCURVE",
"268 -132 CURVE",
"165 -125 LINE",
"101 36 OFFCURVE",
"73 186 OFFCURVE",
"73 332 CURVE",
"85 477 OFFCURVE",
"146 618 OFFCURVE",
"257 762 CURVE"
);
}
);
width = 354;
}
);
unicode = 0028;
},
{
glyphname = parenright;
lastChange = "2014-11-05 03:29:27 -0500";
layers = (
{
layerId = "6B6936E6-7670-4A82-900D-EAF583C971AF";
name = Regular;
paths = (
{
closed = 1;
nodes = (
"173 768 LINE",
"257 606 OFFCURVE",
"280 457 OFFCURVE",
"280 313 CURVE SMOOTH",
"280 167 OFFCURVE",
"208 25 OFFCURVE",
"130 -119 CURVE",
"18 -112 LINE",
"117 29 OFFCURVE",
"172 170 OFFCURVE",
"186 321 CURVE",
"186 471 OFFCURVE",
"168 618 OFFCURVE",
"96 775 CURVE"
);
}
);
width = 354;
}
);
unicode = 0029;
},
{
glyphname = asterisk;
lastChange = "2014-11-05 03:29:27 -0500";
layers = (
{
layerId = "6B6936E6-7670-4A82-900D-EAF583C971AF";
name = Regular;
paths = (
{
closed = 1;
nodes = (
"528 609 LINE",
"353 514 LINE",
"548 438 LINE",
"500 371 LINE",
"336 470 LINE",
"355 301 LINE",
"280 286 LINE",
"280 470 LINE",
"136 352 LINE",
"88 419 LINE",
"263 514 LINE",
"73 589 LINE",
"116 657 LINE",
"280 558 LINE",
"261 723 LINE",
"336 742 LINE",
"336 558 LINE",
"520 677 LINE"
);
}
);
width = 621;
}
);
unicode = 002A;
},
{
glyphname = plus;
lastChange = "2014-11-05 03:29:27 -0500";
layers = (
{
layerId = "6B6936E6-7670-4A82-900D-EAF583C971AF";
name = Regular;
paths = (
{
closed = 1;
nodes = (
"427 627 LINE",
"427 355 LINE",
"699 355 LINE",
"699 272 LINE",
"427 272 LINE",
"427 0 LINE",
"345 0 LINE",
"345 272 LINE",
"73 272 LINE",
"73 355 LINE",
"345 355 LINE",
"345 627 LINE"
);
}
);
width = 772;
}
);
unicode = 002B;
},
{
glyphname = comma;
lastChange = "2014-11-05 03:29:27 -0500";
layers = (
{
anchors = (
{
name = _comma;
position = "{186, 119}";
}
);
layerId = "6B6936E6-7670-4A82-900D-EAF583C971AF";
name = Regular;
paths = (
{
closed = 1;
nodes = (
"123 119 LINE",
"246 119 LINE",
"246 16 LINE",
"136 -141 LINE",
"73 -141 LINE",
"123 16 LINE"
);
}
);
width = 319;
}
);
unicode = 002C;
},
{
glyphname = hyphen;
lastChange = "2014-11-05 03:29:27 -0500";
layers = (
{
layerId = "6B6936E6-7670-4A82-900D-EAF583C971AF";
name = Regular;
paths = (
{
closed = 1;
nodes = (
"77 314 LINE",
"340 319 LINE",
"336 238 LINE",
"73 234 LINE"
);
}
);
width = 413;
}
);
unicode = 002D;
},
{
glyphname = period;
lastChange = "2014-11-05 03:29:27 -0500";
layers = (
{
layerId = "6B6936E6-7670-4A82-900D-EAF583C971AF";
name = Regular;
paths = (
{
closed = 1;
nodes = (
"73 158 LINE",
"219 158 LINE",
"219 0 LINE",
"73 0 LINE"
);
}
);
width = 292;
}
);
unicode = 002E;
},
{
glyphname = slash;
lastChange = "2014-11-05 03:29:27 -0500";
layers = (
{
layerId = "6B6936E6-7670-4A82-900D-EAF583C971AF";
name = Regular;
paths = (
{
closed = 1;
nodes = (
"355 720 LINE",
"429 717 LINE",
"186 -97 LINE",
"73 -93 LINE"
);
}
);
width = 502;
}
);
unicode = 002F;
},
{
color = 6;
glyphname = zero;
lastChange = "2014-11-05 03:29:27 -0500";
layers = (
{
layerId = "6B6936E6-7670-4A82-900D-EAF583C971AF";
name = Regular;
paths = (
{
closed = 1;
nodes = (
"229 703 OFFCURVE",
"177 614 OFFCURVE",
"177 435 CURVE SMOOTH",
"177 250 OFFCURVE",
"219 167 OFFCURVE",
"320 167 CURVE SMOOTH",
"422 167 OFFCURVE",
"470 256 OFFCURVE",
"483 435 CURVE",
"483 614 OFFCURVE",
"432 703 OFFCURVE",
"330 703 CURVE SMOOTH"
);
},
{
closed = 1;
nodes = (
"494 742 OFFCURVE",
"577 610 OFFCURVE",
"577 364 CURVE SMOOTH",
"571 118 OFFCURVE",
"484 -14 OFFCURVE",
"320 -14 CURVE SMOOTH",
"157 -14 OFFCURVE",
"73 118 OFFCURVE",
"73 364 CURVE SMOOTH",
"80 610 OFFCURVE",
"167 742 OFFCURVE",
"330 742 CURVE SMOOTH"
);
}
);
width = 650;
}
);
unicode = 0030;
},
{
color = 6;
glyphname = one;
lastChange = "2014-11-05 03:29:27 -0500";
layers = (
{
layerId = "6B6936E6-7670-4A82-900D-EAF583C971AF";
name = Regular;
paths = (
{
closed = 1;
nodes = (
"87 137 LINE",
"249 137 LINE",
"249 639 LINE",
"73 604 LINE",
"73 694 LINE",
"248 729 LINE",
"346 729 LINE",
"346 137 LINE",
"507 137 LINE",
"507 0 LINE",
"87 0 LINE"
);
}
);
width = 581;
}
);
unicode = 0031;
},
{
color = 6;
glyphname = two;
lastChange = "2014-11-05 03:29:27 -0500";
layers = (
{
layerId = "6B6936E6-7670-4A82-900D-EAF583C971AF";
name = Regular;
paths = (
{
closed = 1;
nodes = (
"536 142 LINE",
"536 0 LINE",
"73 0 LINE",
"73 142 LINE",
"125 184 OFFCURVE",
"179 227 OFFCURVE",
"237 271 CURVE SMOOTH",
"352 359 OFFCURVE",
"389 406 OFFCURVE",
"415 456 CURVE SMOOTH",
"427 480 OFFCURVE",
"433 504 OFFCURVE",
"433 528 CURVE SMOOTH",
"433 605 OFFCURVE",
"374 659 OFFCURVE",
"286 659 CURVE SMOOTH",
"224 659 OFFCURVE",
"156 638 OFFCURVE",
"78 594 CURVE",
"78 694 LINE",
"158 726 OFFCURVE",
"227 742 OFFCURVE",
"284 742 CURVE SMOOTH",
"435 742 OFFCURVE",
"532 661 OFFCURVE",
"532 534 CURVE SMOOTH",
"532 474 OFFCURVE",
"513 427 OFFCURVE",
"454 354 CURVE",
"446 345 OFFCURVE",
"420 317 OFFCURVE",
"376 272 CURVE SMOOTH",
"333 227 OFFCURVE",
"306 184 OFFCURVE",
"294 142 CURVE"
);
}
);
width = 609;
}
);
unicode = 0032;
},
{
color = 6;
glyphname = three;
lastChange = "2014-11-05 03:29:27 -0500";
layers = (
{
layerId = "6B6936E6-7670-4A82-900D-EAF583C971AF";
name = Regular;
paths = (
{
closed = 1;
nodes = (
"497 386 OFFCURVE",
"553 315 OFFCURVE",
"553 222 CURVE SMOOTH",
"553 65 OFFCURVE",
"450 -14 OFFCURVE",
"268 -14 CURVE SMOOTH",
"207 -14 OFFCURVE",
"142 -2 OFFCURVE",
"73 22 CURVE",
"73 176 LINE",
"128 144 OFFCURVE",
"194 127 OFFCURVE",
"265 127 CURVE SMOOTH",
"327 127 OFFCURVE",
"374 141 OFFCURVE",
"407 169 CURVE SMOOTH",
"439 197 OFFCURVE",
"455 219 OFFCURVE",
"455 236 CURVE SMOOTH",
"455 303 OFFCURVE",
"392 359 OFFCURVE",
"284 359 CURVE SMOOTH",
"199 359 LINE",
"199 440 LINE",
"288 440 LINE SMOOTH",
"385 440 OFFCURVE",
"438 480 OFFCURVE",
"438 553 CURVE SMOOTH",
"438 627 OFFCURVE",
"383 669 OFFCURVE",
"284 669 CURVE SMOOTH",
"230 669 OFFCURVE",
"169 658 OFFCURVE",
"95 633 CURVE",
"95 711 LINE",
"170 732 OFFCURVE",
"235 742 OFFCURVE",
"293 742 CURVE SMOOTH",
"443 742 OFFCURVE",
"536 669 OFFCURVE",
"536 553 CURVE SMOOTH",
"536 473 OFFCURVE",
"488 415 OFFCURVE",
"403 393 CURVE"
);
}
);
width = 626;
}
);
unicode = 0033;
},
{
color = 6;
glyphname = four;
lastChange = "2014-11-05 03:29:27 -0500";
layers = (
{
layerId = "6B6936E6-7670-4A82-900D-EAF583C971AF";
name = Regular;
paths = (
{
closed = 1;
nodes = (
"402 677 LINE",
"153 288 LINE",
"397 288 LINE"
);
},
{
closed = 1;
nodes = (
"376 729 LINE",
"500 729 LINE",
"505 288 LINE",
"604 288 LINE",
"604 206 LINE",
"505 206 LINE",
"515 0 LINE",
"383 0 LINE",
"393 206 LINE",
"73 206 LINE",
"73 267 LINE"
);
}
);
width = 678;
}
);
unicode = 0034;
},
{
color = 6;
glyphname = five;
lastChange = "2014-11-05 03:29:27 -0500";
layers = (
{
layerId = "6B6936E6-7670-4A82-900D-EAF583C971AF";
name = Regular;
paths = (
{
closed = 1;
nodes = (
"104 729 LINE",
"491 729 LINE",
"491 656 LINE",
"185 656 LINE",
"185 467 LINE",
"226 477 OFFCURVE",
"251 482 OFFCURVE",
"280 482 CURVE SMOOTH",
"443 482 OFFCURVE",
"545 386 OFFCURVE",
"545 234 CURVE SMOOTH",
"545 77 OFFCURVE",
"443 -14 OFFCURVE",
"265 -14 CURVE SMOOTH",
"204 -14 OFFCURVE",
"141 -4 OFFCURVE",
"73 17 CURVE",
"73 170 LINE",
"132 138 OFFCURVE",
"193 123 OFFCURVE",
"263 123 CURVE SMOOTH",
"376 123 OFFCURVE",
"441 199 OFFCURVE",
"441 249 CURVE SMOOTH",
"441 350 OFFCURVE",
"376 399 OFFCURVE",
"263 399 CURVE SMOOTH",
"210 399 OFFCURVE",
"159 388 OFFCURVE",
"104 363 CURVE"
);
}
);
width = 618;
}
);
unicode = 0035;
},
{
color = 6;
glyphname = six;
lastChange = "2014-11-05 03:29:27 -0500";
layers = (
{
layerId = "6B6936E6-7670-4A82-900D-EAF583C971AF";
name = Regular;
paths = (
{
closed = 1;
nodes = (
"245 404 OFFCURVE",
"189 339 OFFCURVE",
"189 234 CURVE SMOOTH",
"189 168 OFFCURVE",
"245 127 OFFCURVE",
"333 127 CURVE SMOOTH",
"422 127 OFFCURVE",
"478 168 OFFCURVE",
"478 234 CURVE SMOOTH",
"478 339 OFFCURVE",
"422 404 OFFCURVE",
"333 404 CURVE SMOOTH"
);
},
{
closed = 1;
nodes = (
"529 623 LINE",
"480 646 OFFCURVE",
"429 659 OFFCURVE",
"379 659 CURVE SMOOTH",
"249 659 OFFCURVE",
"181 572 OFFCURVE",
"171 394 CURVE",
"210 451 OFFCURVE",
"270 482 OFFCURVE",
"339 482 CURVE SMOOTH",
"486 482 OFFCURVE",
"577 387 OFFCURVE",
"577 234 CURVE SMOOTH",
"577 84 OFFCURVE",
"480 -14 OFFCURVE",
"333 -14 CURVE SMOOTH",
"165 -14 OFFCURVE",
"73 118 OFFCURVE",
"73 364 CURVE SMOOTH",
"73 594 OFFCURVE",
"191 742 OFFCURVE",
"375 742 CURVE SMOOTH",
"425 742 OFFCURVE",
"475 732 OFFCURVE",
"529 713 CURVE"
);
}
);
width = 650;
}
);
unicode = 0036;
},
{
color = 6;
glyphname = seven;
lastChange = "2014-11-05 03:29:27 -0500";
layers = (
{
layerId = "6B6936E6-7670-4A82-900D-EAF583C971AF";
name = Regular;
paths = (
{
closed = 1;
nodes = (
"73 729 LINE",
"537 729 LINE",
"537 687 LINE",
"355 0 LINE",
"179 0 LINE",
"448 656 LINE",
"73 656 LINE"
);
}
);
width = 610;
}
);
unicode = 0037;
},
{
color = 6;
glyphname = eight;
lastChange = "2014-11-05 03:29:27 -0500";
layers = (
{
layerId = "6B6936E6-7670-4A82-900D-EAF583C971AF";
name = Regular;
paths = (
{
closed = 1;
nodes = (
"239 356 OFFCURVE",
"182 303 OFFCURVE",
"182 215 CURVE SMOOTH",
"182 166 OFFCURVE",
"239 108 OFFCURVE",
"333 108 CURVE SMOOTH",
"427 108 OFFCURVE",
"484 167 OFFCURVE",
"484 215 CURVE SMOOTH",
"484 303 OFFCURVE",
"427 356 OFFCURVE",
"333 356 CURVE SMOOTH"
);
},
{
closed = 1;
nodes = (
"150 409 OFFCURVE",
"110 470 OFFCURVE",
"110 553 CURVE SMOOTH",
"110 657 OFFCURVE",
"188 732 OFFCURVE",
"333 732 CURVE SMOOTH",
"478 732 OFFCURVE",
"556 657 OFFCURVE",
"556 553 CURVE SMOOTH",
"556 470 OFFCURVE",
"516 409 OFFCURVE",
"432 388 CURVE",
"527 366 OFFCURVE",
"593 298 OFFCURVE",
"593 205 CURVE SMOOTH",
"593 64 OFFCURVE",
"494 -14 OFFCURVE",
"333 -14 CURVE SMOOTH",
"172 -14 OFFCURVE",
"73 64 OFFCURVE",
"73 205 CURVE SMOOTH",
"73 298 OFFCURVE",
"139 366 OFFCURVE",
"234 388 CURVE"
);
},
{
closed = 1;
nodes = (
"198 498 OFFCURVE",
"248 453 OFFCURVE",
"333 453 CURVE SMOOTH",
"417 453 OFFCURVE",
"468 498 OFFCURVE",
"468 573 CURVE SMOOTH",
"468 636 OFFCURVE",
"417 684 OFFCURVE",
"333 684 CURVE SMOOTH",
"248 684 OFFCURVE",
"198 636 OFFCURVE",
"198 573 CURVE SMOOTH"
);
}
);
width = 666;
}
);
unicode = 0038;
},
{
color = 6;
glyphname = nine;
lastChange = "2014-11-05 03:29:27 -0500";
layers = (
{
layerId = "6B6936E6-7670-4A82-900D-EAF583C971AF";
name = Regular;
paths = (
{
closed = 1;
nodes = (
"120 164 LINE",
"169 140 OFFCURVE",
"221 127 OFFCURVE",
"270 127 CURVE SMOOTH",
"400 127 OFFCURVE",
"468 156 OFFCURVE",
"478 334 CURVE",
"440 278 OFFCURVE",
"380 247 OFFCURVE",
"310 247 CURVE SMOOTH",
"164 247 OFFCURVE",
"73 341 OFFCURVE",
"73 494 CURVE SMOOTH",
"73 644 OFFCURVE",
"169 742 OFFCURVE",
"316 742 CURVE SMOOTH",
"485 742 OFFCURVE",
"576 610 OFFCURVE",
"576 364 CURVE SMOOTH",
"576 134 OFFCURVE",
"458 -14 OFFCURVE",
"274 -14 CURVE SMOOTH",
"225 -14 OFFCURVE",
"175 -4 OFFCURVE",
"120 15 CURVE"
);
},
{
closed = 1;
nodes = (
"416 394 OFFCURVE",
"483 404 OFFCURVE",
"483 510 CURVE SMOOTH",
"483 615 OFFCURVE",
"416 680 OFFCURVE",
"308 680 CURVE SMOOTH",
"200 680 OFFCURVE",
"132 615 OFFCURVE",
"132 510 CURVE SMOOTH",
"132 404 OFFCURVE",
"200 394 OFFCURVE",
"308 394 CURVE SMOOTH"
);
}
);
width = 649;
}
);
unicode = 0039;
},
{
glyphname = colon;
lastChange = "2014-11-05 03:29:27 -0500";
layers = (
{
layerId = "6B6936E6-7670-4A82-900D-EAF583C971AF";
name = Regular;
paths = (
{
closed = 1;
nodes = (
"73 149 LINE",
"201 149 LINE",
"201 0 LINE",
"73 0 LINE"
);
},
{
closed = 1;
nodes = (
"73 538 LINE",
"201 538 LINE",
"201 398 LINE",
"73 398 LINE"
);
}
);
width = 274;
}
);
unicode = 003A;
},
{
glyphname = semicolon;
lastChange = "2014-11-05 03:29:27 -0500";
layers = (
{
layerId = "6B6936E6-7670-4A82-900D-EAF583C971AF";
name = Regular;
paths = (
{
closed = 1;
nodes = (
"115 535 LINE",
"234 535 LINE",
"234 392 LINE",
"115 392 LINE"
);
},
{
closed = 1;
nodes = (
"118 106 LINE",
"232 106 LINE",
"232 13 LINE",
"143 -160 LINE",
"73 -160 LINE",
"118 13 LINE"
);
}
);
width = 307;
}
);
unicode = 003B;
},
{
glyphname = less;
lastChange = "2014-11-05 03:29:27 -0500";
layers = (
{
layerId = "6B6936E6-7670-4A82-900D-EAF583C971AF";
name = Regular;
paths = (
{
closed = 1;
nodes = (
"718 482 LINE",
"201 347 LINE",
"688 126 LINE",
"677 8 LINE",
"73 289 LINE",
"83 399 LINE",
"726 570 LINE"
);
}
);
width = 799;
}
);
unicode = 003C;
},
{
glyphname = equal;
lastChange = "2014-11-05 03:29:27 -0500";
layers = (
{
layerId = "6B6936E6-7670-4A82-900D-EAF583C971AF";
name = Regular;
paths = (
{
closed = 1;
nodes = (
"73 454 LINE",
"699 454 LINE",
"699 372 LINE",
"73 372 LINE"
);
},
{
closed = 1;
nodes = (
"73 270 LINE",
"699 270 LINE",
"699 172 LINE",
"73 172 LINE"
);
}
);
width = 772;
}
);
unicode = 003D;
},
{
glyphname = greater;
lastChange = "2014-11-05 03:29:27 -0500";
layers = (
{
layerId = "6B6936E6-7670-4A82-900D-EAF583C971AF";
name = Regular;
paths = (
{
closed = 1;
nodes = (
"115 541 LINE",
"123 629 LINE",
"726 349 LINE",
"717 238 LINE",
"73 67 LINE",
"83 185 LINE",
"600 318 LINE"
);
}
);
width = 799;
}
);
unicode = 003E;
},
{
glyphname = question;
lastChange = "2014-11-05 03:29:27 -0500";
layers = (
{
layerId = "6B6936E6-7670-4A82-900D-EAF583C971AF";
name = Regular;
paths = (
{
closed = 1;
nodes = (
"163 134 LINE",
"292 134 LINE",
"292 -5 LINE",
"163 -5 LINE"
);
},
{
closed = 1;
nodes = (
"293 196 LINE",
"166 196 LINE",
"166 271 LINE SMOOTH",
"166 337 OFFCURVE",
"179 375 OFFCURVE",
"237 431 CURVE",
"286 474 LINE",
"336 515 OFFCURVE",
"357 533 OFFCURVE",
"363 565 CURVE",
"363 623 OFFCURVE",
"317 677 OFFCURVE",
"247 677 CURVE SMOOTH",
"195 677 OFFCURVE",
"136 653 OFFCURVE",
"73 610 CURVE",
"73 687 LINE",
"134 724 OFFCURVE",
"197 742 OFFCURVE",
"264 742 CURVE SMOOTH",
"383 742 OFFCURVE",
"458 673 OFFCURVE",
"458 570 CURVE SMOOTH",
"458 521 OFFCURVE",
"426 480 OFFCURVE",
"374 424 CURVE SMOOTH",
"335 382 LINE",
"327 367 OFFCURVE",
"319 354 OFFCURVE",
"313 346 CURVE SMOOTH",
"300 329 OFFCURVE",
"297 315 OFFCURVE",
"295 296 CURVE SMOOTH",
"294 286 OFFCURVE",
"293 273 OFFCURVE",
"293 256 CURVE SMOOTH"
);
}
);
width = 531;
}
);
unicode = 003F;
},
{
glyphname = at;
lastChange = "2014-11-05 03:29:27 -0500";
layers = (
{
layerId = "6B6936E6-7670-4A82-900D-EAF583C971AF";
name = Regular;
paths = (
{
closed = 1;
nodes = (
"365 219 OFFCURVE",
"414 168 OFFCURVE",
"495 168 CURVE SMOOTH",
"575 168 OFFCURVE",
"624 220 OFFCURVE",
"624 302 CURVE SMOOTH",
"624 384 OFFCURVE",
"573 436 OFFCURVE",
"494 436 CURVE SMOOTH",
"415 436 OFFCURVE",
"365 384 OFFCURVE",
"365 302 CURVE SMOOTH"
);
},
{
closed = 1;
nodes = (
"646 116 LINE",
"606 66 OFFCURVE",
"557 43 OFFCURVE",
"490 43 CURVE SMOOTH",
"378 43 OFFCURVE",
"301 132 OFFCURVE",
"301 262 CURVE SMOOTH",
"301 393 OFFCURVE",
"379 482 OFFCURVE",
"490 482 CURVE SMOOTH",
"557 482 OFFCURVE",
"607 458 OFFCURVE",
"646 408 CURVE",
"646 472 LINE",
"715 472 LINE",
"715 113 LINE",
"811 127 OFFCURVE",
"867 204 OFFCURVE",
"867 319 CURVE SMOOTH",
"867 389 OFFCURVE",
"847 450 OFFCURVE",
"805 502 CURVE SMOOTH",
"737 587 OFFCURVE",
"637 634 OFFCURVE",
"522 634 CURVE SMOOTH",
"442 634 OFFCURVE",
"368 612 OFFCURVE",
"305 571 CURVE SMOOTH",
"203 504 OFFCURVE",
"142 391 OFFCURVE",
"142 265 CURVE SMOOTH",
"142 162 OFFCURVE",
"177 113 OFFCURVE",
"261 24 CURVE SMOOTH",
"330 -43 OFFCURVE",
"412 -65 OFFCURVE",
"514 -65 CURVE SMOOTH",
"598 -65 OFFCURVE",
"682 -41 OFFCURVE",
"750 12 CURVE",
"793 -76 LINE",
"712 -139 OFFCURVE",
"613 -174 OFFCURVE",
"514 -174 CURVE SMOOTH",
"394 -174 OFFCURVE",
"285 -130 OFFCURVE",
"201 -49 CURVE SMOOTH",
"118 33 OFFCURVE",
"73 142 OFFCURVE",
"73 265 CURVE SMOOTH",
"73 384 OFFCURVE",
"119 495 OFFCURVE",
"201 576 CURVE SMOOTH",
"285 659 OFFCURVE",
"398 704 OFFCURVE",
"521 704 CURVE SMOOTH",
"660 704 OFFCURVE",
"782 645 OFFCURVE",
"862 541 CURVE SMOOTH",
"911 477 OFFCURVE",
"938 401 OFFCURVE",
"938 321 CURVE SMOOTH",
"938 149 OFFCURVE",
"828 45 OFFCURVE",
"646 41 CURVE"
);
}
);
width = 1011;
}
);
unicode = 0040;
},
{
color = 6;
glyphname = A;
lastChange = "2014-11-05 03:29:27 -0500";
layers = (
{
anchors = (
{
name = dotbelowcomb;
position = "{414, 7}";
},
{
name = ogonek;
position = "{636, 0}";
},
{
name = top;
position = "{413, 681}";
}
);
layerId = "6B6936E6-7670-4A82-900D-EAF583C971AF";
name = Regular;
paths = (
{
closed = 1;
nodes = (
"407 639 LINE",
"273 235 LINE",
"542 235 LINE"
);
},
{
closed = 1;
nodes = (
"361 729 LINE",
"454 729 LINE",
"741 0 LINE",
"600 0 LINE",
"572 119 LINE",
"244 119 LINE",
"207 0 LINE",
"73 0 LINE"
);
}
);
width = 814;
}
);
unicode = 0041;
},
{
color = 6;
glyphname = B;
lastChange = "2014-11-05 03:29:27 -0500";
layers = (
{
layerId = "6B6936E6-7670-4A82-900D-EAF583C971AF";
name = Regular;
paths = (
{
closed = 1;
nodes = (
"172 348 LINE",
"172 145 LINE",
"330 145 LINE SMOOTH",
"436 145 OFFCURVE",
"486 168 OFFCURVE",
"486 259 CURVE SMOOTH",
"486 275 OFFCURVE",
"474 294 OFFCURVE",
"448 316 CURVE SMOOTH",
"422 337 OFFCURVE",
"383 348 OFFCURVE",
"330 348 CURVE SMOOTH"
);
},
{
closed = 1;
nodes = (
"172 663 LINE",
"172 428 LINE",
"318 428 LINE SMOOTH",
"414 428 OFFCURVE",
"461 464 OFFCURVE",
"461 538 CURVE SMOOTH",
"461 612 OFFCURVE",
"414 663 OFFCURVE",
"318 663 CURVE SMOOTH"
);
},
{
closed = 1;
nodes = (
"73 729 LINE",
"301 729 LINE SMOOTH",
"451 729 OFFCURVE",
"536 664 OFFCURVE",
"536 549 CURVE SMOOTH",
"536 459 OFFCURVE",
"493 406 OFFCURVE",
"413 393 CURVE",
"542 372 OFFCURVE",
"600 303 OFFCURVE",
"600 204 CURVE SMOOTH",
"600 74 OFFCURVE",
"499 0 OFFCURVE",
"335 0 CURVE SMOOTH",
"73 0 LINE"
);
}
);
width = 673;
}
);
unicode = 0042;
},
{
color = 6;
glyphname = C;
lastChange = "2014-11-05 03:29:27 -0500";
layers = (
{
anchors = (
{
name = bottom;
position = "{382, 0}";
},
{
name = top;
position = "{382, 729}";
}
);
layerId = "6B6936E6-7670-4A82-900D-EAF583C971AF";
name = Regular;
paths = (
{
closed = 1;
nodes = (
"661 569 LINE",
"595 631 OFFCURVE",
"520 661 OFFCURVE",
"435 661 CURVE SMOOTH",
"269 661 OFFCURVE",
"177 557 OFFCURVE",
"177 364 CURVE SMOOTH",
"180 193 OFFCURVE",
"269 135 OFFCURVE",
"435 135 CURVE SMOOTH",
"520 135 OFFCURVE",
"595 166 OFFCURVE",
"661 228 CURVE",
"661 56 LINE",
"592 9 OFFCURVE",
"515 -14 OFFCURVE",
"429 -14 CURVE SMOOTH",
"208 -14 OFFCURVE",
"73 130 OFFCURVE",
"73 364 CURVE SMOOTH",
"73 598 OFFCURVE",
"208 742 OFFCURVE",
"429 742 CURVE SMOOTH",
"517 742 OFFCURVE",
"593 719 OFFCURVE",
"661 673 CURVE"
);
}
);
width = 734;
}
);
unicode = 0043;
},
{
color = 6;
glyphname = D;
lastChange = "2014-11-05 03:29:27 -0500";
layers = (
{
anchors = (
{
name = center;
position = "{354, 365}";
},
{
name = top;
position = "{354, 729}";
}
);
layerId = "6B6936E6-7670-4A82-900D-EAF583C971AF";
name = Regular;
paths = (
{
closed = 1;
nodes = (
"177 648 LINE",
"177 184 LINE",
"296 184 LINE SMOOTH",
"497 184 OFFCURVE",
"554 226 OFFCURVE",
"587 375 CURVE",
"587 557 OFFCURVE",
"497 648 OFFCURVE",
"296 648 CURVE SMOOTH"
);
},
{
closed = 1;
nodes = (
"73 729 LINE",
"276 729 LINE SMOOTH",
"559 729 OFFCURVE",
"686 615 OFFCURVE",
"686 365 CURVE SMOOTH",
"686 114 OFFCURVE",
"557 0 OFFCURVE",
"276 0 CURVE SMOOTH",
"73 0 LINE"
);
}
);
width = 759;
}
);
unicode = 0044;
},
{
color = 6;
glyphname = E;
lastChange = "2014-11-05 03:29:27 -0500";
layers = (
{
anchors = (
{
name = bottom;
position = "{332, 0}";
},
{
name = ogonek;
position = "{331, 0}";
},
{
name = top;
position = "{292, 705}";
}
);
layerId = "6B6936E6-7670-4A82-900D-EAF583C971AF";
name = Regular;
paths = (
{
closed = 1;
nodes = (
"73 729 LINE",
"534 729 LINE",
"534 646 LINE",
"172 646 LINE",
"172 430 LINE",
"519 430 LINE",
"519 347 LINE",
"172 347 LINE",
"172 151 LINE",
"543 151 LINE",
"543 0 LINE",
"73 0 LINE"
);
}
);
width = 616;
}
);
unicode = 0045;
},
{
color = 6;
glyphname = F;
lastChange = "2014-11-05 03:29:27 -0500";
layers = (
{
layerId = "6B6936E6-7670-4A82-900D-EAF583C971AF";
name = Regular;
paths = (
{
closed = 1;
nodes = (
"93 729 LINE",
"492 729 LINE",
"492 641 LINE",
"191 641 LINE",
"182 431 LINE",
"466 431 LINE",
"466 329 LINE",
"187 329 LINE",
"196 0 LINE",
"73 0 LINE"
);
}
);
width = 565;
}
);
unicode = 0046;
},
{
color = 6;
glyphname = G;
lastChange = "2014-11-05 03:29:27 -0500";
layers = (
{
anchors = (
{
name = bottom;
position = "{404, 0}";
},
{
name = top;
position = "{404, 729}";
}
);
layerId = "6B6936E6-7670-4A82-900D-EAF583C971AF";
name = Regular;
paths = (
{
closed = 1;
nodes = (
"598 261 LINE",
"441 261 LINE",
"441 366 LINE",
"710 366 LINE",
"710 68 LINE",
"634 14 OFFCURVE",
"541 -14 OFFCURVE",
"437 -14 CURVE SMOOTH",
"209 -14 OFFCURVE",
"73 126 OFFCURVE",
"73 364 CURVE SMOOTH",
"73 602 OFFCURVE",
"209 742 OFFCURVE",
"437 742 CURVE SMOOTH",
"532 742 OFFCURVE",
"619 718 OFFCURVE",
"691 673 CURVE",
"691 578 LINE",
"618 640 OFFCURVE",
"536 671 OFFCURVE",
"445 671 CURVE SMOOTH",
"267 671 OFFCURVE",
"177 571 OFFCURVE",
"177 374 CURVE",
"184 194 OFFCURVE",
"267 145 OFFCURVE",
"445 145 CURVE SMOOTH",
"515 145 OFFCURVE",
"574 157 OFFCURVE",
"598 182 CURVE"
);
}
);
width = 783;
}
);
unicode = 0047;
},
{
color = 6;
glyphname = H;
lastChange = "2014-11-05 03:29:27 -0500";
layers = (
{
anchors = (
{
name = center;
position = "{356, 365}";
},
{
name = top;
position = "{356, 729}";
}
);
layerId = "6B6936E6-7670-4A82-900D-EAF583C971AF";
name = Regular;
paths = (
{
closed = 1;
nodes = (
"83 729 LINE",
"187 729 LINE",
"187 381 LINE",
"525 381 LINE",
"525 729 LINE",
"629 729 LINE",
"639 0 LINE",
"525 0 LINE",
"525 245 LINE",
"187 245 LINE",
"187 0 LINE",
"73 0 LINE"
);
}
);
width = 712;
}
);
unicode = 0048;
},
{
color = 6;
glyphname = I;
lastChange = "2014-11-05 03:29:27 -0500";
layers = (
{
anchors = (
{
name = ogonek;
position = "{133, 0}";
},
{
name = top;
position = "{137, 729}";
}
);
layerId = "6B6936E6-7670-4A82-900D-EAF583C971AF";
name = Regular;
paths = (
{
closed = 1;
nodes = (
"88 243 OFFCURVE",
"88 486 OFFCURVE",
"93 729 CURVE",
"177 729 LINE",
"180 486 OFFCURVE",
"178 243 OFFCURVE",
"191 0 CURVE",
"73 0 LINE"
);
}
);
width = 265;
}
);
unicode = 0049;
},
{
color = 6;
glyphname = J;
lastChange = "2014-11-05 03:29:27 -0500";
layers = (
{
anchors = (
{
name = top;
position = "{268, 729}";
}
);
layerId = "6B6936E6-7670-4A82-900D-EAF583C971AF";
name = Regular;
paths = (
{
closed = 1;
nodes = (
"275 730 LINE",
"379 723 LINE",
"353 31 LINE SMOOTH",
"349 -145 OFFCURVE",
"287 -208 OFFCURVE",
"132 -211 CURVE",
"75 -205 LINE",
"73 -44 LINE",
"123 -55 LINE",
"210 -51 OFFCURVE",
"248 -4 OFFCURVE",
"249 37 CURVE SMOOTH"
);
}
);
width = 452;
}
);
unicode = 004A;
},
{
color = 6;
glyphname = K;
lastChange = "2014-11-05 03:29:27 -0500";
layers = (
{
anchors = (
{
name = bottom;
position = "{339, 0}";
},
{
name = top;
position = "{339, 729}";
}
);
layerId = "6B6936E6-7670-4A82-900D-EAF583C971AF";
name = Regular;
paths = (
{
closed = 1;
nodes = (
"93 729 LINE",
"191 729 LINE",
"182 421 LINE",
"509 729 LINE",
"636 729 LINE",
"274 389 LINE",
"662 0 LINE",
"429 0 LINE",
"182 351 LINE",
"201 0 LINE",
"73 0 LINE"
);
}
);
width = 735;
}
);
unicode = 004B;
},
{
color = 6;
glyphname = L;
lastChange = "2014-11-05 03:29:27 -0500";
layers = (
{
anchors = (
{
name = "_ circumflexbelowcomb";
position = "{290, 0}";
},
{
name = top;
position = "{150, 729}";
}
);
layerId = "6B6936E6-7670-4A82-900D-EAF583C971AF";
name = Regular;
paths = (
{
closed = 1;
nodes = (
"83 729 LINE",
"182 729 LINE",
"177 151 LINE",
"532 151 LINE",
"522 0 LINE",
"73 0 LINE"
);
}
);
width = 605;
}
);
unicode = 004C;
},
{
color = 6;
glyphname = M;
lastChange = "2014-11-05 03:29:27 -0500";
layers = (
{
anchors = (
{
name = _top;
position = "{390, 663}";
}
);
layerId = "6B6936E6-7670-4A82-900D-EAF583C971AF";
name = Regular;
paths = (
{
closed = 1;
nodes = (
"88 729 LINE",
"235 729 LINE",
"416 296 LINE",
"608 729 LINE",
"745 729 LINE",
"760 0 LINE",
"634 0 LINE",
"654 640 LINE",
"476 116 LINE",
"357 116 LINE",
"179 640 LINE",
"198 0 LINE",
"73 0 LINE"
);
}
);
width = 833;
}
);
unicode = 004D;
},
{
color = 6;
glyphname = N;
lastChange = "2014-11-05 03:29:27 -0500";
layers = (
{
anchors = (
{
name = _;
position = "{360, 0}";
},
{
name = top;
position = "{360, 729}";
}
);
layerId = "6B6936E6-7670-4A82-900D-EAF583C971AF";
name = Regular;
paths = (
{
closed = 1;
nodes = (
"93 714 LINE",
"216 714 LINE",
"529 139 LINE",
"544 729 LINE",
"635 729 LINE",
"635 0 LINE",
"492 0 LINE",
"169 610 LINE",
"198 0 LINE",
"73 0 LINE"
);
}
);
width = 708;
}
);
unicode = 004E;
},
{
color = 6;
glyphname = O;
lastChange = "2014-11-05 03:29:27 -0500";
layers = (
{
anchors = (
{
name = horn;
position = "{682, 547}";
},
{
name = top;
position = "{411, 729}";
}
);
layerId = "6B6936E6-7670-4A82-900D-EAF583C971AF";
name = Regular;
paths = (
{
closed = 1;
nodes = (
"268 662 OFFCURVE",
"177 548 OFFCURVE",
"177 364 CURVE SMOOTH",
"177 213 OFFCURVE",
"268 173 OFFCURVE",
"411 173 CURVE SMOOTH",
"554 173 OFFCURVE",
"644 213 OFFCURVE",
"644 364 CURVE SMOOTH",
"644 548 OFFCURVE",
"554 662 OFFCURVE",
"411 662 CURVE SMOOTH"
);
},
{
closed = 1;
nodes = (
"616 742 OFFCURVE",
"748 594 OFFCURVE",
"748 364 CURVE SMOOTH",
"748 134 OFFCURVE",
"616 -14 OFFCURVE",
"411 -14 CURVE SMOOTH",
"206 -14 OFFCURVE",
"73 133 OFFCURVE",
"73 364 CURVE SMOOTH",
"73 594 OFFCURVE",
"206 742 OFFCURVE",
"411 742 CURVE SMOOTH"
);
}
);
width = 821;
}
);
unicode = 004F;
},
{
color = 6;
glyphname = P;
lastChange = "2014-11-05 03:29:27 -0500";
layers = (
{
layerId = "6B6936E6-7670-4A82-900D-EAF583C971AF";
name = Regular;
paths = (
{
closed = 1;
nodes = (
"206 687 LINE",
"196 413 LINE",
"330 413 LINE SMOOTH",
"428 413 OFFCURVE",
"484 462 OFFCURVE",
"484 550 CURVE SMOOTH",
"484 638 OFFCURVE",
"428 687 OFFCURVE",
"330 687 CURVE SMOOTH"
);
},
{
closed = 1;
nodes = (
"103 729 LINE",
"320 729 LINE SMOOTH",
"484 729 OFFCURVE",
"568 654 OFFCURVE",
"568 511 CURVE SMOOTH",
"568 367 OFFCURVE",
"484 283 OFFCURVE",
"320 283 CURVE SMOOTH",
"201 283 LINE",
"191 0 LINE",
"73 0 LINE"
);
}
);
width = 642;
}
);
unicode = 0050;
},
{
color = 6;
glyphname = Q;
lastChange = "2014-11-05 03:29:27 -0500";
layers = (
{
layerId = "6B6936E6-7670-4A82-900D-EAF583C971AF";
name = Regular;
paths = (
{
closed = 1;
nodes = (
"268 662 OFFCURVE",
"177 548 OFFCURVE",
"177 364 CURVE SMOOTH",
"177 213 OFFCURVE",
"289 180 OFFCURVE",
"348 173 CURVE",
"394 167 LINE",
"434 234 LINE",
"473 217 OFFCURVE",
"512 205 OFFCURVE",
"552 200 CURVE",
"613 233 OFFCURVE",
"644 288 OFFCURVE",
"644 364 CURVE SMOOTH",
"644 548 OFFCURVE",
"554 662 OFFCURVE",
"411 662 CURVE SMOOTH"
);
},
{
closed = 1;
nodes = (
"782 -129 LINE",
"550 -129 LINE",
"447 -12 LINE",
"426 -14 OFFCURVE",
"417 -14 OFFCURVE",
"406 -14 CURVE SMOOTH",
"208 -14 OFFCURVE",
"73 134 OFFCURVE",
"73 364 CURVE SMOOTH",
"73 594 OFFCURVE",
"206 742 OFFCURVE",
"411 742 CURVE SMOOTH",
"616 742 OFFCURVE",
"748 594 OFFCURVE",
"748 364 CURVE SMOOTH",
"748 194 OFFCURVE",
"685 106 OFFCURVE",
"627 42 CURVE"
);
}
);
width = 855;
}
);
unicode = 0051;
},
{
color = 6;
glyphname = R;
lastChange = "2014-11-05 03:29:27 -0500";
layers = (
{
anchors = (
{
name = bottom;
position = "{313, 0}";
},
{
name = top;
position = "{313, 729}";
}
);
layerId = "6B6936E6-7670-4A82-900D-EAF583C971AF";
name = Regular;
paths = (
{
closed = 1;
nodes = (
"461 328 OFFCURVE",
"500 281 OFFCURVE",
"541 199 CURVE SMOOTH",
"641 0 LINE",
"501 0 LINE",
"427 187 LINE",
"379 285 OFFCURVE",
"343 308 OFFCURVE",
"265 308 CURVE SMOOTH",
"191 308 LINE",
"191 0 LINE",
"73 0 LINE",
"73 729 LINE",
"296 729 LINE SMOOTH",
"443 729 OFFCURVE",
"529 660 OFFCURVE",
"529 519 CURVE SMOOTH",
"529 427 OFFCURVE",
"487 365 OFFCURVE",
"419 342 CURVE"
);
},
{
closed = 1;
nodes = (
"182 677 LINE",
"182 409 LINE",
"306 409 LINE SMOOTH",
"381 409 OFFCURVE",
"459 460 OFFCURVE",
"459 519 CURVE SMOOTH",
"459 644 OFFCURVE",
"381 677 OFFCURVE",
"306 677 CURVE SMOOTH"
);
}
);
width = 714;
}
);
unicode = 0052;
},
{
color = 6;
glyphname = S;
lastChange = "2014-11-05 03:29:27 -0500";
layers = (
{
anchors = (
{
name = bottom;
position = "{321, 0}";
},
{
name = top;
position = "{321, 729}";
}
);
layerId = "6B6936E6-7670-4A82-900D-EAF583C971AF";
name = Regular;
paths = (
{
closed = 1;
nodes = (
"542 609 LINE",
"468 645 OFFCURVE",
"402 662 OFFCURVE",
"340 662 CURVE SMOOTH",
"233 662 OFFCURVE",
"172 619 OFFCURVE",
"172 542 CURVE SMOOTH",
"172 478 OFFCURVE",
"204 449 OFFCURVE",
"312 429 CURVE SMOOTH",
"371 417 LINE SMOOTH",
"518 389 OFFCURVE",
"586 320 OFFCURVE",
"586 201 CURVE SMOOTH",
"586 60 OFFCURVE",
"490 -14 OFFCURVE",
"307 -14 CURVE SMOOTH",
"238 -14 OFFCURVE",
"160 1 OFFCURVE",
"76 32 CURVE",
"76 188 LINE",
"156 143 OFFCURVE",
"233 120 OFFCURVE",
"307 120 CURVE SMOOTH",
"420 120 OFFCURVE",
"483 175 OFFCURVE",
"483 218 CURVE SMOOTH",
"483 257 OFFCURVE",
"442 303 OFFCURVE",
"342 323 CURVE SMOOTH",
"282 335 LINE SMOOTH",
"135 364 OFFCURVE",
"73 423 OFFCURVE",
"73 534 CURVE SMOOTH",
"73 663 OFFCURVE",
"169 742 OFFCURVE",
"329 742 CURVE SMOOTH",
"397 742 OFFCURVE",
"468 730 OFFCURVE",
"542 705 CURVE"
);
}
);
width = 660;
}
);
unicode = 0053;
},
{
color = 6;
glyphname = T;
lastChange = "2014-11-05 03:29:27 -0500";
layers = (
{
anchors = (
{
name = bottom;
position = "{381, 0}";
},
{
name = center;
position = "{381, 365}";
},
{
name = top;
position = "{381, 729}";
}
);
layerId = "6B6936E6-7670-4A82-900D-EAF583C971AF";
name = Regular;
paths = (
{
closed = 1;
nodes = (
"73 729 LINE",
"690 729 LINE",
"690 646 LINE",
"431 656 LINE",
"451 0 LINE",
"313 0 LINE",
"332 656 LINE",
"73 646 LINE"
);
}
);
width = 763;
}
);
unicode = 0054;
},
{
color = 6;
glyphname = U;
lastChange = "2014-11-05 03:29:27 -0500";
layers = (
{
anchors = (
{
name = horn;
position = "{608, 614}";
},
{
name = ogonek;
position = "{360, 0}";
},
{
name = top;
position = "{352, 729}";
}
);
layerId = "6B6936E6-7670-4A82-900D-EAF583C971AF";
name = Regular;
paths = (
{
closed = 1;
nodes = (
"73 729 LINE",
"177 729 LINE",
"167 354 LINE SMOOTH",
"164 198 OFFCURVE",
"226 134 OFFCURVE",
"353 134 CURVE SMOOTH",
"479 134 OFFCURVE",
"541 198 OFFCURVE",
"537 354 CURVE SMOOTH",
"527 729 LINE",
"631 729 LINE",
"631 274 LINE SMOOTH",
"631 84 OFFCURVE",
"536 -14 OFFCURVE",
"353 -14 CURVE SMOOTH",
"168 -14 OFFCURVE",
"73 84 OFFCURVE",
"73 274 CURVE SMOOTH"
);
}
);
width = 705;
}
);
unicode = 0055;
},
{
color = 6;
glyphname = V;
lastChange = "2014-11-05 03:29:27 -0500";
layers = (
{
layerId = "6B6936E6-7670-4A82-900D-EAF583C971AF";
name = Regular;
paths = (
{
closed = 1;
nodes = (
"327 0 LINE",
"73 729 LINE",
"176 729 LINE",
"407 184 LINE",
"639 729 LINE",
"741 729 LINE",
"488 0 LINE"
);
}
);
width = 814;
}
);
unicode = 0056;
},
{
color = 6;
glyphname = W;
lastChange = "2014-11-05 03:29:27 -0500";
layers = (
{
anchors = (
{
name = top;
position = "{532, 729}";
}
);
layerId = "6B6936E6-7670-4A82-900D-EAF583C971AF";
name = Regular;
paths = (
{
closed = 1;
nodes = (
"73 729 LINE",
"168 729 LINE",
"316 206 LINE",
"489 543 LINE",
"575 543 LINE",
"733 196 LINE",
"901 729 LINE",
"996 729 LINE",
"813 0 LINE",
"669 0 LINE",
"535 394 LINE",
"390 0 LINE",
"236 0 LINE"
);
}
);
width = 1069;
}
);
unicode = 0057;
},
{
color = 6;
glyphname = X;
lastChange = "2014-11-05 03:29:27 -0500";
layers = (
{
layerId = "6B6936E6-7670-4A82-900D-EAF583C971AF";
name = Regular;
paths = (
{
closed = 1;
nodes = (
"106 729 LINE",
"212 729 LINE",
"394 419 LINE",
"576 729 LINE",
"682 729 LINE",
"457 340 LINE",
"697 0 LINE",
"538 0 LINE",
"386 261 LINE",
"233 0 LINE",
"73 0 LINE",
"324 340 LINE"
);
}
);
width = 771;
}
);
unicode = 0058;
},
{
color = 6;
glyphname = Y;
lastChange = "2014-11-05 03:29:27 -0500";
layers = (
{
anchors = (
{
name = top;
position = "{380, 729}";
}
);
layerId = "6B6936E6-7670-4A82-900D-EAF583C971AF";
name = Regular;
paths = (
{
closed = 1;
nodes = (
"73 729 LINE",
"179 729 LINE",
"381 356 LINE",
"582 729 LINE",
"688 729 LINE",
"445 250 LINE",
"445 0 LINE",
"312 0 LINE",
"312 250 LINE"
);
}
);
width = 761;
}
);
unicode = 0059;
},
{
color = 6;
glyphname = Z;
lastChange = "2014-11-05 03:29:27 -0500";
layers = (
{
anchors = (
{
name = top;
position = "{393, 729}";
}
);
layerId = "6B6936E6-7670-4A82-900D-EAF583C971AF";
name = Regular;
paths = (
{
closed = 1;
nodes = (
"84 729 LINE",
"657 729 LINE",
"657 654 LINE",
"196 146 LINE",
"668 146 LINE",
"668 0 LINE",
"73 0 LINE",
"73 139 LINE",
"534 646 LINE",
"84 646 LINE"
);
}
);
width = 742;
}
);
unicode = 005A;
},
{
glyphname = bracketleft;
lastChange = "2014-11-05 03:29:27 -0500";
layers = (
{
layerId = "6B6936E6-7670-4A82-900D-EAF583C971AF";
name = Regular;
paths = (
{
closed = 1;
nodes = (
"73 760 LINE",
"280 760 LINE",
"280 690 LINE",
"163 690 LINE",
"163 -23 LINE",
"280 -23 LINE",
"280 -132 LINE",
"73 -132 LINE"
);
}
);
width = 329;
}
);
unicode = 005B;
},
{
glyphname = backslash;
lastChange = "2014-11-05 03:29:27 -0500";
layers = (
{
layerId = "6B6936E6-7670-4A82-900D-EAF583C971AF";
name = Regular;
paths = (
{
closed = 1;
nodes = (
"156 726 LINE",
"381 -104 LINE",
"279 -101 LINE",
"73 729 LINE"
);
}
);
width = 455;
}
);
unicode = 005C;
},
{
glyphname = bracketright;
lastChange = "2014-11-05 03:29:27 -0500";
layers = (
{
layerId = "6B6936E6-7670-4A82-900D-EAF583C971AF";
name = Regular;
paths = (
{
closed = 1;
nodes = (
"256 760 LINE",
"256 -132 LINE",
"49 -132 LINE",
"49 -28 LINE",
"166 -28 LINE",
"166 690 LINE",
"49 690 LINE",
"49 760 LINE"
);
}
);
width = 329;
}
);
unicode = 005D;
},
{
glyphname = asciicircum;
lastChange = "2014-11-05 03:29:27 -0500";
layers = (
{
layerId = "6B6936E6-7670-4A82-900D-EAF583C971AF";
name = Regular;
paths = (
{
closed = 1;
nodes = (
"424 729 LINE",
"699 457 LINE",
"547 457 LINE",
"386 679 LINE",
"225 457 LINE",
"73 457 LINE",
"348 729 LINE"
);
}
);
width = 772;
}
);
unicode = 005E;
},
{
glyphname = underscore;
lastChange = "2014-11-05 03:29:27 -0500";
layers = (
{
hints = (
{
horizontal = 1;
place = "{-216.000000, 88.000000}";
}
);
layerId = "6B6936E6-7670-4A82-900D-EAF583C971AF";
name = Regular;
paths = (
{
closed = 1;
nodes = (
"593 -129 LINE",
"593 -216 LINE",
"73 -216 LINE",
"73 -129 LINE"
);
}
);
width = 666;
}
);
unicode = 005F;
},
{
glyphname = grave;
lastChange = "2014-11-05 03:29:27 -0500";
layers = (
{
anchors = (
{
name = _top;
position = "{234, 398}";
}
);
layerId = "6B6936E6-7670-4A82-900D-EAF583C971AF";
name = Regular;
paths = (
{
closed = 1;
nodes = (
"169 839 LINE",
"307 656 LINE",
"174 656 LINE",
"73 839 LINE"
);
}
);
width = 380;
}
);
unicode = 0060;
},
{
color = 7;
glyphname = a;
lastChange = "2014-11-05 03:29:27 -0500";
layers = (
{
anchors = (
{
name = ogonek;
position = "{512, 15}";
},
{
name = top;
position = "{318, 547}";
}
);
layerId = "6B6936E6-7670-4A82-900D-EAF583C971AF";
name = Regular;
paths = (
{
closed = 1;
nodes = (
"472 547 LINE",
"549 547 LINE",
"547 0 LINE",
"472 0 LINE",
"472 82 LINE",
"434 17 OFFCURVE",
"377 -14 OFFCURVE",
"297 -14 CURVE SMOOTH",
"165 -14 OFFCURVE",
"73 101 OFFCURVE",
"73 273 CURVE SMOOTH",
"73 445 OFFCURVE",
"165 560 OFFCURVE",
"297 560 CURVE SMOOTH",
"377 560 OFFCURVE",
"434 529 OFFCURVE",
"472 464 CURVE"
);
},
{
closed = 1;
nodes = (
"153 187 OFFCURVE",
"193 149 OFFCURVE",
"288 149 CURVE SMOOTH",
"383 149 OFFCURVE",
"413 169 OFFCURVE",
"425 290 CURVE SMOOTH",
"428 422 OFFCURVE",
"386 495 OFFCURVE",
"290 495 CURVE SMOOTH",
"195 495 OFFCURVE",
"138 415 OFFCURVE",
"138 283 CURVE"
);
}
);
width = 608;
}
);
leftKerningGroup = Round;
unicode = 0061;
},
{
color = 7;
glyphname = b;
lastChange = "2014-11-05 03:29:27 -0500";
layers = (
{
anchors = (
{
name = "new anchor";
position = "{92, 150}";
}
);
hints = (
{
place = "{99.000000, 65.000000}";
}
);
layerId = "6B6936E6-7670-4A82-900D-EAF583C971AF";
name = Regular;
paths = (
{
closed = 1;
nodes = (
"490 180 OFFCURVE",
"439 152 OFFCURVE",
"359 146 CURVE",
"229 146 OFFCURVE",
"220 188 OFFCURVE",
"207 289 CURVE",
"207 421 OFFCURVE",
"264 496 OFFCURVE",
"359 496 CURVE SMOOTH",
"455 496 OFFCURVE",
"501 420 OFFCURVE",
"505 293 CURVE"
);
},
{
closed = 1;
nodes = (
"126 99 LINE",
"152 27 OFFCURVE",
"195 -14 OFFCURVE",
"338 -14 CURVE SMOOTH",
"471 -14 OFFCURVE",
"563 101 OFFCURVE",
"563 273 CURVE SMOOTH",
"563 445 OFFCURVE",
"471 560 OFFCURVE",
"338 560 CURVE SMOOTH",
"258 560 OFFCURVE",
"201 539 OFFCURVE",
"164 474 CURVE",
"173 760 LINE",
"83 760 LINE",
"102 445 OFFCURVE",
"106 141 OFFCURVE",
"126 99 CURVE",
"126 99 LINE"
);
}
);
width = 636;
}
);
rightKerningGroup = RoundRight;
unicode = 0062;
},
{
color = 7;
glyphname = c;
lastChange = "2014-11-05 03:29:27 -0500";
layers = (
{
anchors = (
{
name = bottom;
position = "{310, 0}";
},
{
name = top;
position = "{310, 547}";
}
);
layerId = "6B6936E6-7670-4A82-900D-EAF583C971AF";
name = Regular;
paths = (
{
closed = 1;
nodes = (
"506 447 LINE",
"455 475 OFFCURVE",
"404 489 OFFCURVE",
"352 489 CURVE SMOOTH",
"235 489 OFFCURVE",
"173 406 OFFCURVE",
"173 273 CURVE",
"182 179 OFFCURVE",
"231 147 OFFCURVE",
"348 141 CURVE",
"400 141 OFFCURVE",
"453 134 OFFCURVE",
"504 162 CURVE",
"506 21 LINE",
"456 -2 OFFCURVE",
"403 -14 OFFCURVE",
"342 -14 CURVE SMOOTH",
"178 -14 OFFCURVE",
"73 97 OFFCURVE",
"73 273 CURVE SMOOTH",
"73 451 OFFCURVE",
"178 560 OFFCURVE",
"348 560 CURVE SMOOTH",
"403 560 OFFCURVE",
"457 549 OFFCURVE",
"506 526 CURVE"
);
}
);
width = 579;
}
);
leftKerningGroup = Round;
unicode = 0063;
},
{
color = 7;
glyphname = d;
lastChange = "2014-11-05 03:29:27 -0500";
layers = (
{
anchors = (
{
name = center;
position = "{368, 273}";
},
{
name = top;
position = "{297, 560}";
}
);
layerId = "6B6936E6-7670-4A82-900D-EAF583C971AF";
name = Regular;
paths = (
{
closed = 1;
nodes = (
"482 760 LINE",
"572 760 LINE",
"562 0 LINE",
"472 0 LINE",
"472 82 LINE",
"435 17 OFFCURVE",
"377 -14 OFFCURVE",
"297 -14 CURVE SMOOTH",
"165 -14 OFFCURVE",
"73 101 OFFCURVE",
"73 273 CURVE SMOOTH",
"73 445 OFFCURVE",
"165 560 OFFCURVE",
"297 560 CURVE SMOOTH",
"377 560 OFFCURVE",
"435 529 OFFCURVE",
"472 464 CURVE"
);
},
{
closed = 1;
nodes = (
"153 188 OFFCURVE",
"193 149 OFFCURVE",
"288 149 CURVE SMOOTH",
"383 149 OFFCURVE",
"429 169 OFFCURVE",
"432 290 CURVE SMOOTH",
"429 422 OFFCURVE",
"386 495 OFFCURVE",
"291 495 CURVE SMOOTH",
"195 495 OFFCURVE",
"138 415 OFFCURVE",
"138 283 CURVE"
);
}
);
width = 645;
}
);
leftKerningGroup = Round;
unicode = 0064;
},
{
color = 7;
glyphname = e;
lastChange = "2014-11-05 03:29:27 -0500";
layers = (
{
anchors = (
{
name = _hook;
position = "{346, 539}";
},
{
name = bottom;
position = "{329, 0}";
},
{
name = ogonek;
position = "{427, -7}";
},
{
name = top;
position = "{329, 547}";
}
);
layerId = "6B6936E6-7670-4A82-900D-EAF583C971AF";
name = Regular;
paths = (
{
closed = 1;
nodes = (
"575 296 LINE",
"167 296 LINE",
"169 150 OFFCURVE",
"241 125 OFFCURVE",
"360 119 CURVE",
"429 119 OFFCURVE",
"494 118 OFFCURVE",
"558 152 CURVE",
"560 28 LINE",
"495 0 OFFCURVE",
"427 -14 OFFCURVE",
"357 -14 CURVE",
"183 -8 OFFCURVE",
"73 95 OFFCURVE",
"73 268 CURVE",
"80 447 OFFCURVE",
"177 560 OFFCURVE",
"342 560 CURVE",
"488 554 OFFCURVE",
"563 486 OFFCURVE",
"575 330 CURVE"
);
},
{
closed = 1;
nodes = (
"497 375 LINE",
"487 436 OFFCURVE",
"431 513 OFFCURVE",
"342 513 CURVE SMOOTH",
"242 513 OFFCURVE",
"177 440 OFFCURVE",
"177 374 CURVE"
);
}
);
width = 648;
}
);
leftKerningGroup = Round;
unicode = 0065;
},
{
color = 7;
glyphname = f;
lastChange = "2014-11-05 03:29:27 -0500";
layers = (
{
layerId = "6B6936E6-7670-4A82-900D-EAF583C971AF";
name = Regular;
paths = (
{
closed = 1;
nodes = (
"392 740 LINE",
"392 666 LINE",
"311 675 LINE",
"266 675 OFFCURVE",
"250 663 OFFCURVE",
"250 595 CURVE",
"254 547 LINE",
"397 547 LINE",
"397 458 LINE",
"254 458 LINE",
"269 0 LINE",
"140 0 LINE",
"154 458 LINE",
"73 458 LINE",
"73 547 LINE",
"154 547 LINE",
"159 585 LINE",
"159 707 OFFCURVE",
"228 750 OFFCURVE",
"312 750 CURVE"
);
}
);
width = 471;
}
);
unicode = 0066;
},
{
color = 7;
glyphname = g;
lastChange = "2014-11-05 03:29:27 -0500";
layers = (
{
anchors = (
{
name = comma;
position = "{300, -262}";
},
{
name = top;
position = "{333, 547}";
}
);
layerId = "6B6936E6-7670-4A82-900D-EAF583C971AF";
name = Regular;
paths = (
{
closed = 1;
nodes = (
"433 416 OFFCURVE",
"377 490 OFFCURVE",
"280 490 CURVE SMOOTH",
"184 490 OFFCURVE",
"127 416 OFFCURVE",
"127 285 CURVE",
"140 156 OFFCURVE",
"177 146 OFFCURVE",
"273 146 CURVE SMOOTH",
"370 146 OFFCURVE",
"433 156 OFFCURVE",
"433 285 CURVE SMOOTH"
);
},
{
closed = 1;
nodes = (
"557 68 LINE SMOOTH",
"549 -184 OFFCURVE",
"471 -262 OFFCURVE",
"300 -262 CURVE SMOOTH",
"237 -262 OFFCURVE",
"182 -252 OFFCURVE",
"129 -233 CURVE",
"129 -73 LINE",
"182 -102 OFFCURVE",
"233 -115 OFFCURVE",
"286 -115 CURVE SMOOTH",
"404 -115 OFFCURVE",
"454 -13 OFFCURVE",
"467 52 CURVE",
"467 82 LINE",
"437 37 OFFCURVE",
"377 0 OFFCURVE",
"297 0 CURVE SMOOTH",
"163 0 OFFCURVE",
"73 111 OFFCURVE",
"73 280 CURVE SMOOTH",
"73 449 OFFCURVE",
"163 560 OFFCURVE",
"297 560 CURVE SMOOTH",
"377 560 OFFCURVE",
"435 528 OFFCURVE",
"472 464 CURVE",
"482 547 LINE",
"572 547 LINE"
);
}
);
width = 645;
}
);
unicode = 0067;
},
{
color = 7;
glyphname = h;
lastChange = "2014-11-05 03:29:27 -0500";
layers = (
{
anchors = (
{
name = center;
position = "{268, 273}";
},
{
name = top;
position = "{268, 547}";
}
);
layerId = "6B6936E6-7670-4A82-900D-EAF583C971AF";
name = Regular;
paths = (
{
closed = 1;
nodes = (
"551 0 LINE",
"437 0 LINE",
"451 327 LINE SMOOTH",
"457 452 OFFCURVE",
"411 492 OFFCURVE",
"330 492 CURVE SMOOTH",
"233 492 OFFCURVE",
"173 416 OFFCURVE",
"173 309 CURVE SMOOTH",
"183 0 LINE",
"73 0 LINE",
"93 760 LINE",
"183 760 LINE",
"173 462 LINE",
"216 528 OFFCURVE",
"274 560 OFFCURVE",
"350 560 CURVE SMOOTH",
"476 560 OFFCURVE",
"541 481 OFFCURVE",
"541 330 CURVE SMOOTH"
);
}
);
width = 624;
}
);
unicode = 0068;
},
{
color = 7;
glyphname = i;
lastChange = "2014-11-05 03:29:27 -0500";
layers = (
{
layerId = "6B6936E6-7670-4A82-900D-EAF583C971AF";
name = Regular;
paths = (
{
closed = 1;
nodes = (
"86 192 OFFCURVE",
"89 375 OFFCURVE",
"88 547 CURVE",
"168 547 LINE",
"162 383 OFFCURVE",
"167 199 OFFCURVE",
"188 0 CURVE",
"73 0 LINE"
);
},
{
closed = 1;
nodes = (
"88 760 LINE",
"168 760 LINE",
"173 646 LINE",
"83 646 LINE"
);
}
);
width = 261;
}
);
unicode = 0069;
},
{
color = 7;
glyphname = j;
lastChange = "2014-11-05 03:29:27 -0500";
layers = (
{
layerId = "6B6936E6-7670-4A82-900D-EAF583C971AF";
name = Regular;
paths = (
{
closed = 1;
nodes = (
"179 544 LINE",
"264 543 LINE",
"245 -14 LINE SMOOTH",
"242 -153 OFFCURVE",
"191 -219 OFFCURVE",
"73 -224 CURVE",
"24 -223 LINE",
"27 -88 LINE",
"65 -88 LINE",
"134 -83 OFFCURVE",
"150 -68 OFFCURVE",
"156 46 CURVE SMOOTH"
);
},
{
closed = 1;
nodes = (
"200 760 LINE",
"280 760 LINE",
"285 646 LINE",
"195 646 LINE"
);
}
);
width = 358;
}
);
unicode = 006A;
},
{
color = 7;
glyphname = k;
lastChange = "2014-11-05 03:29:27 -0500";
layers = (
{
anchors = (
{
name = bottom;
position = "{262, 0}";
}
);
layerId = "6B6936E6-7670-4A82-900D-EAF583C971AF";
name = Regular;
paths = (
{
closed = 1;
nodes = (
"93 760 LINE",
"183 760 LINE",
"178 331 LINE",
"363 547 LINE",
"478 547 LINE",
"271 291 LINE",
"573 0 LINE",
"388 0 LINE",
"178 257 LINE",
"193 0 LINE",
"73 0 LINE"
);
}
);
width = 646;
}
);
unicode = 006B;
},
{
color = 7;
glyphname = l;
lastChange = "2014-11-05 03:29:27 -0500";
layers = (
{
anchors = (
{
name = bottom;
position = "{115, 0}";
},
{
name = dot;
position = "{219, 406}";
},
{
name = top;
position = "{141, 685}";
},
{
name = topright;
position = "{257, 641}";
}
);
layerId = "6B6936E6-7670-4A82-900D-EAF583C971AF";
name = Regular;
paths = (
{
closed = 1;
nodes = (
"77 253 OFFCURVE",
"84 462 OFFCURVE",
"98 716 CURVE",
"183 716 LINE",
"171 500 OFFCURVE",
"165 328 OFFCURVE",
"163 111 CURVE",
"269 111 LINE",
"269 0 LINE",
"73 0 LINE"
);
}
);
width = 342;
}
);
unicode = 006C;
},
{
color = 7;
glyphname = m;
lastChange = "2014-11-05 03:29:27 -0500";
layers = (
{
layerId = "6B6936E6-7670-4A82-900D-EAF583C971AF";
name = Regular;
paths = (
{
closed = 1;
nodes = (
"572 522 OFFCURVE",
"624 560 OFFCURVE",
"708 560 CURVE SMOOTH",
"822 560 OFFCURVE",
"886 477 OFFCURVE",
"886 330 CURVE SMOOTH",
"896 0 LINE",
"762 0 LINE",
"796 342 LINE",
"796 447 OFFCURVE",
"774 497 OFFCURVE",
"698 497 CURVE SMOOTH",
"604 497 OFFCURVE",
"557 416 OFFCURVE",
"552 309 CURVE SMOOTH",
"537 0 LINE",
"413 0 LINE",
"457 347 LINE",
"457 452 OFFCURVE",
"420 501 OFFCURVE",
"343 501 CURVE SMOOTH",
"251 501 OFFCURVE",
"188 415 OFFCURVE",
"188 309 CURVE SMOOTH",
"198 0 LINE",
"73 0 LINE",
"98 547 LINE",
"188 547 LINE",
"178 462 LINE",
"219 529 OFFCURVE",
"275 560 OFFCURVE",
"354 560 CURVE SMOOTH",
"434 560 OFFCURVE",
"500 519 OFFCURVE",
"527 442 CURVE"
);
}
);
width = 969;
}
);
unicode = 006D;
},
{
color = 7;
glyphname = n;
lastChange = "2014-11-05 03:29:27 -0500";
layers = (
{
anchors = (
{
name = bottom;
position = "{310, 0}";
},
{
name = top;
position = "{310, 547}";
}
);
layerId = "6B6936E6-7670-4A82-900D-EAF583C971AF";
name = Regular;
paths = (
{
closed = 1;
nodes = (
"565 0 LINE",
"437 0 LINE",
"456 332 LINE",
"456 436 OFFCURVE",
"425 487 OFFCURVE",
"345 487 CURVE SMOOTH",
"235 487 OFFCURVE",
"183 421 OFFCURVE",
"183 314 CURVE",
"198 0 LINE",
"73 0 LINE",
"88 552 LINE",
"178 552 LINE",
"178 486 LINE",
"221 520 OFFCURVE",
"279 560 OFFCURVE",
"355 560 CURVE SMOOTH",
"480 560 OFFCURVE",
"544 481 OFFCURVE",
"551 330 CURVE SMOOTH"
);
}
);
width = 639;
}
);
unicode = 006E;
},
{
color = 7;
glyphname = o;
lastChange = "2014-11-05 03:29:27 -0500";
layers = (
{
anchors = (
{
name = _;
position = "{331, 547}";
},
{
name = horn;
position = "{515, 392}";
},
{
name = top;
position = "{324, 547}";
}
);
layerId = "6B6936E6-7670-4A82-900D-EAF583C971AF";
name = Regular;
paths = (
{
closed = 1;
nodes = (
"228 494 OFFCURVE",
"168 416 OFFCURVE",
"168 289 CURVE SMOOTH",
"168 161 OFFCURVE",
"227 141 OFFCURVE",
"324 141 CURVE SMOOTH",
"420 141 OFFCURVE",
"480 162 OFFCURVE",
"480 289 CURVE SMOOTH",
"480 414 OFFCURVE",
"420 494 OFFCURVE",
"324 494 CURVE SMOOTH"
);
},
{
closed = 1;
nodes = (
"480 560 OFFCURVE",
"575 453 OFFCURVE",
"575 273 CURVE SMOOTH",
"575 94 OFFCURVE",
"480 -14 OFFCURVE",
"324 -14 CURVE SMOOTH",
"167 -14 OFFCURVE",
"73 94 OFFCURVE",
"73 273 CURVE SMOOTH",
"73 453 OFFCURVE",
"167 560 OFFCURVE",
"324 560 CURVE SMOOTH"
);
}
);
width = 648;
}
);
leftKerningGroup = Round;
rightKerningGroup = RoundRight;
unicode = 006F;
},
{
color = 7;
glyphname = p;
lastChange = "2014-11-05 03:29:27 -0500";
layers = (
{
hints = (
{
place = "{141.000000, 115.000000}";
},
{
horizontal = 1;
place = "{497.000000, 63.000000}";
},
{
horizontal = 1;
place = "{-3.000000, 140.000000}";
},
{
place = "{562.000000, 63.000000}";
}
);
layerId = "6B6936E6-7670-4A82-900D-EAF583C971AF";
name = Regular;
paths = (
{
closed = 1;
nodes = (
"188 -208 LINE",
"73 -208 LINE",
"117 127 LINE",
"117 539 LINE",
"207 539 LINE",
"192 464 LINE",
"229 529 OFFCURVE",
"287 560 OFFCURVE",
"367 560 CURVE SMOOTH",
"500 560 OFFCURVE",
"591 445 OFFCURVE",
"591 273 CURVE SMOOTH",
"591 101 OFFCURVE",
"500 -14 OFFCURVE",
"367 -14 CURVE SMOOTH",
"287 -14 OFFCURVE",
"229 17 OFFCURVE",
"192 82 CURVE"
);
},
{
closed = 1;
nodes = (
"533 421 OFFCURVE",
"476 500 OFFCURVE",
"380 500 CURVE SMOOTH",
"285 500 OFFCURVE",
"228 421 OFFCURVE",
"228 289 CURVE SMOOTH",
"228 156 OFFCURVE",
"290 134 OFFCURVE",
"385 134 CURVE SMOOTH",
"480 134 OFFCURVE",
"533 156 OFFCURVE",
"533 289 CURVE SMOOTH"
);
}
);
width = 664;
}
);
rightKerningGroup = RoundRight;
unicode = 0070;
},
{
color = 7;
glyphname = q;
lastChange = "2014-11-05 03:29:27 -0500";
layers = (
{
associatedMasterId = "6B6936E6-7670-4A82-900D-EAF583C971AF";
layerId = "550EFC85-22CC-4D43-B167-1DAEAAA2FB65";
name = "Regular May 31 12, 16:28";
paths = (
{
closed = 1;
nodes = (
"157 153 OFFCURVE",
"212 136 OFFCURVE",
"308 136 CURVE SMOOTH",
"403 136 OFFCURVE",
"463 153 OFFCURVE",
"463 286 CURVE SMOOTH",
"463 418 OFFCURVE",
"405 498 OFFCURVE",
"310 498 CURVE SMOOTH",
"215 498 OFFCURVE",
"157 418 OFFCURVE",
"157 286 CURVE SMOOTH"
);
},
{
closed = 1;
nodes = (
"497 82 LINE",
"459 17 OFFCURVE",
"402 -14 OFFCURVE",
"321 -14 CURVE SMOOTH",
"189 -14 OFFCURVE",
"98 101 OFFCURVE",
"98 273 CURVE SMOOTH",
"98 445 OFFCURVE",
"189 560 OFFCURVE",
"321 560 CURVE SMOOTH",
"402 560 OFFCURVE",
"459 529 OFFCURVE",
"497 464 CURVE",
"511 547 LINE",
"598 547 LINE",
"561 -118 LINE SMOOTH",
"557 -208 LINE",
"474 -208 LINE"
);
}
);
width = 718;
},
{
layerId = "6B6936E6-7670-4A82-900D-EAF583C971AF";
name = Regular;
paths = (
{
closed = 1;
nodes = (
"133 153 OFFCURVE",
"188 136 OFFCURVE",
"283 136 CURVE SMOOTH",
"378 136 OFFCURVE",
"439 153 OFFCURVE",
"439 286 CURVE SMOOTH",
"439 418 OFFCURVE",
"381 498 OFFCURVE",
"286 498 CURVE SMOOTH",
"190 498 OFFCURVE",
"133 418 OFFCURVE",
"133 286 CURVE SMOOTH"
);
},
{
closed = 1;
nodes = (
"472 82 LINE",
"435 17 OFFCURVE",
"377 -14 OFFCURVE",
"297 -14 CURVE SMOOTH",
"165 -14 OFFCURVE",
"73 101 OFFCURVE",
"73 273 CURVE SMOOTH",
"73 445 OFFCURVE",
"165 560 OFFCURVE",
"297 560 CURVE SMOOTH",
"377 560 OFFCURVE",
"435 529 OFFCURVE",
"472 464 CURVE",
"487 547 LINE",
"574 547 LINE",
"543 -32 LINE",
"653 -138 LINE SMOOTH",
"572 -207 LINE",
"445 -208 LINE"
);
}
);
width = 727;
}
);
leftKerningGroup = Round;
unicode = 0071;
},
{
color = 7;
glyphname = r;
lastChange = "2014-11-05 03:29:27 -0500";
layers = (
{
anchors = (
{
name = bottom;
position = "{196, 0}";
},
{
name = top;
position = "{196, 547}";
}
);
layerId = "6B6936E6-7670-4A82-900D-EAF583C971AF";
name = Regular;
paths = (
{
closed = 1;
nodes = (
"405 453 LINE",
"385 465 OFFCURVE",
"366 465 OFFCURVE",
"337 465 CURVE SMOOTH",
"236 465 OFFCURVE",
"194 391 OFFCURVE",
"194 273 CURVE",
"214 0 LINE",
"73 0 LINE",
"114 226 OFFCURVE",
"119 308 OFFCURVE",
"111 542 CURVE",
"194 542 LINE",
"194 486 LINE",
"212 500 OFFCURVE",
"277 550 OFFCURVE",
"364 550 CURVE SMOOTH",
"376 550 OFFCURVE",
"386 549 OFFCURVE",
"404 545 CURVE"
);
}
);
width = 478;
}
);
unicode = 0072;
},
{
color = 7;
glyphname = s;
lastChange = "2014-11-05 03:29:27 -0500";
layers = (
{
anchors = (
{
name = bottom;
position = "{274, 0}";
},
{
name = top;
position = "{274, 547}";
}
);
layerId = "6B6936E6-7670-4A82-900D-EAF583C971AF";
name = Regular;
paths = (
{
closed = 1;
nodes = (
"462 456 LINE",
"411 481 OFFCURVE",
"356 495 OFFCURVE",
"298 495 CURVE SMOOTH",
"208 495 OFFCURVE",
"159 462 OFFCURVE",
"159 408 CURVE SMOOTH",
"159 359 OFFCURVE",
"188 336 OFFCURVE",
"284 315 CURVE SMOOTH",
"315 308 LINE SMOOTH",
"442 281 OFFCURVE",
"491 240 OFFCURVE",
"491 151 CURVE SMOOTH",
"491 49 OFFCURVE",
"406 -14 OFFCURVE",
"265 -14 CURVE SMOOTH",
"207 -14 OFFCURVE",
"144 -3 OFFCURVE",
"73 20 CURVE",
"73 152 LINE",
"140 117 OFFCURVE",
"204 100 OFFCURVE",
"267 100 CURVE SMOOTH",
"352 100 OFFCURVE",
"389 126 OFFCURVE",
"389 173 CURVE",
"378 193 OFFCURVE",
"369 207 OFFCURVE",
"361 216 CURVE SMOOTH",
"354 225 OFFCURVE",
"322 235 OFFCURVE",
"266 248 CURVE SMOOTH",
"235 255 LINE SMOOTH",
"124 278 OFFCURVE",
"77 314 OFFCURVE",
"77 399 CURVE SMOOTH",
"77 502 OFFCURVE",
"153 560 OFFCURVE",
"287 560 CURVE SMOOTH",
"354 560 OFFCURVE",
"413 550 OFFCURVE",
"462 531 CURVE"
);
}
);
width = 564;
}
);
unicode = 0073;
},
{
color = 7;
glyphname = t;
lastChange = "2014-11-05 03:29:27 -0500";
layers = (
{
anchors = (
{
name = bottom;
position = "{282, 0}";
},
{
name = caron;
position = "{320, 616}";
},
{
name = center;
position = "{237, 273}";
},
{
name = circumflexbelowcomb;
position = "{291, -25}";
},
{
name = top;
position = "{190, 661}";
}
);
layerId = "6B6936E6-7670-4A82-900D-EAF583C971AF";
name = Regular;
paths = (
{
closed = 1;
nodes = (
"239 683 LINE",
"234 547 LINE",
"361 547 LINE",
"361 477 LINE",
"234 477 LINE",
"229 239 LINE SMOOTH",
"229 149 OFFCURVE",
"248 134 OFFCURVE",
"322 134 CURVE SMOOTH",
"415 134 LINE",
"415 0 LINE",
"322 0 LINE SMOOTH",
"184 0 OFFCURVE",
"134 43 OFFCURVE",
"134 180 CURVE SMOOTH",
"139 477 LINE",
"73 477 LINE",
"73 547 LINE",
"139 547 LINE SMOOTH",
"144 683 LINE"
);
}
);
width = 488;
}
);
unicode = 0074;
},
{
color = 7;
glyphname = u;
lastChange = "2014-11-05 03:29:27 -0500";
layers = (
{
anchors = (
{
name = horn;
position = "{513, 446}";
},
{
name = ogonek;
position = "{484, 5}";
},
{
name = top;
position = "{308, 547}";
}
);
layerId = "6B6936E6-7670-4A82-900D-EAF583C971AF";
name = Regular;
paths = (
{
closed = 1;
nodes = (
"73 547 LINE",
"148 547 LINE",
"148 297 LINE",
"155 194 OFFCURVE",
"189 142 OFFCURVE",
"270 142 CURVE SMOOTH",
"367 142 OFFCURVE",
"420 208 OFFCURVE",
"427 315 CURVE",
"437 547 LINE",
"536 547 LINE",
"526 0 LINE",
"437 0 LINE",
"441 84 LINE",
"398 18 OFFCURVE",
"341 -14 OFFCURVE",
"265 -14 CURVE SMOOTH",
"140 -14 OFFCURVE",
"73 65 OFFCURVE",
"73 216 CURVE SMOOTH"
);
}
);
width = 609;
}
);
unicode = 0075;
},
{
color = 7;
glyphname = v;
lastChange = "2014-11-05 03:29:27 -0500";
layers = (
{
layerId = "6B6936E6-7670-4A82-900D-EAF583C971AF";
name = Regular;
paths = (
{
closed = 1;
nodes = (
"73 547 LINE",
"168 547 LINE",
"339 146 LINE",
"510 547 LINE",
"605 547 LINE",
"405 0 LINE",
"273 0 LINE"
);
}
);
width = 679;
}
);
unicode = 0076;
},
{
color = 7;
glyphname = w;
lastChange = "2014-11-05 03:29:27 -0500";
layers = (
{
anchors = (
{
name = top;
position = "{440, 547}";
}
);
layerId = "6B6936E6-7670-4A82-900D-EAF583C971AF";
name = Regular;
paths = (
{
closed = 1;
nodes = (
"73 547 LINE",
"163 547 LINE",
"275 164 LINE",
"377 366 LINE",
"503 366 LINE",
"605 164 LINE",
"717 547 LINE",
"807 547 LINE",
"664 0 LINE",
"539 0 LINE",
"440 248 LINE",
"337 0 LINE",
"216 0 LINE"
);
}
);
width = 880;
}
);
unicode = 0077;
},
{
color = 7;
glyphname = x;
lastChange = "2014-11-05 03:29:27 -0500";
layers = (
{
layerId = "6B6936E6-7670-4A82-900D-EAF583C971AF";
name = Regular;
paths = (
{
closed = 1;
nodes = (
"603 547 LINE",
"410 256 LINE",
"623 0 LINE",
"478 0 LINE",
"353 190 LINE",
"218 0 LINE",
"73 0 LINE",
"291 262 LINE",
"101 547 LINE",
"197 547 LINE",
"347 323 LINE",
"512 547 LINE"
);
}
);
width = 696;
}
);
leftKerningGroup = Round;
unicode = 0078;
},
{
color = 7;
glyphname = y;
lastChange = "2014-11-05 03:29:27 -0500";
layers = (
{
anchors = (
{
name = top;
position = "{296, 547}";
}
);
layerId = "6B6936E6-7670-4A82-900D-EAF583C971AF";
name = Regular;
paths = (
{
closed = 1;
nodes = (
"375 -51 LINE",
"311 -194 OFFCURVE",
"265 -218 OFFCURVE",
"185 -218 CURVE SMOOTH",
"103 -218 LINE",
"103 -99 LINE",
"166 -99 LINE SMOOTH",
"215 -99 OFFCURVE",
"235 -74 OFFCURVE",
"269 -32 CURVE",
"307 45 LINE",
"73 547 LINE",
"168 547 LINE",
"362 229 LINE",
"510 547 LINE",
"605 547 LINE"
);
}
);
width = 679;
}
);
unicode = 0079;
},
{
color = 7;
glyphname = z;
lastChange = "2014-11-05 03:29:27 -0500";
layers = (
{
anchors = (
{
name = top;
position = "{318, 547}";
}
);
layerId = "6B6936E6-7670-4A82-900D-EAF583C971AF";
name = Regular;
paths = (
{
closed = 1;
nodes = (
"95 547 LINE",
"517 547 LINE",
"517 465 LINE",
"208 121 LINE",
"512 121 LINE",
"512 0 LINE",
"73 0 LINE",
"73 131 LINE",
"421 480 LINE",
"95 480 LINE"
);
}
);
width = 590;
}
);
unicode = 007A;
},
{
glyphname = braceleft;
lastChange = "2014-11-05 03:29:27 -0500";
layers = (
{
layerId = "6B6936E6-7670-4A82-900D-EAF583C971AF";
name = Regular;
paths = (
{
closed = 1;
nodes = (
"453 -70 LINE",
"452 -170 LINE",
"422 -169 LINE SMOOTH",
"260 -166 OFFCURVE",
"225 -129 OFFCURVE",
"221 15 CURVE",
"223 131 LINE",
"218 229 OFFCURVE",
"195 262 OFFCURVE",
"103 264 CURVE SMOOTH",
"73 264 LINE",
"74 334 LINE",
"104 333 LINE",
"197 338 OFFCURVE",
"227 363 OFFCURVE",
"229 460 CURVE SMOOTH",
"230 577 LINE SMOOTH",
"233 721 OFFCURVE",
"276 750 OFFCURVE",
"438 753 CURVE",
"468 753 LINE",
"467 683 LINE",
"434 684 LINE",
"335 679 OFFCURVE",
"323 666 OFFCURVE",
"321 574 CURVE SMOOTH",
"319 453 LINE SMOOTH",
"317 351 OFFCURVE",
"290 312 OFFCURVE",
"218 296 CURVE",
"290 277 OFFCURVE",
"309 234 OFFCURVE",
"313 146 CURVE",
"311 24 LINE",
"316 -42 OFFCURVE",
"328 -68 OFFCURVE",
"420 -70 CURVE SMOOTH"
);
}
);
width = 517;
}
);
unicode = 007B;
},
{
glyphname = bar;
lastChange = "2014-11-05 03:29:27 -0500";
layers = (
{
layerId = "6B6936E6-7670-4A82-900D-EAF583C971AF";
name = Regular;
paths = (
{
closed = 1;
nodes = (
"181 257 LINE",
"166 -236 LINE",
"73 -236 LINE",
"117 764 LINE",
"200 764 LINE"
);
}
);
width = 249;
}
);
unicode = 007C;
},
{
glyphname = braceright;
lastChange = "2014-11-05 03:29:27 -0500";
layers = (
{
layerId = "6B6936E6-7670-4A82-900D-EAF583C971AF";
name = Regular;
paths = (
{
closed = 1;
nodes = (
"57 -88 LINE",
"91 -88 LINE SMOOTH",
"183 -88 OFFCURVE",
"201 -69 OFFCURVE",
"201 24 CURVE SMOOTH",
"201 145 LINE SMOOTH",
"201 240 OFFCURVE",
"227 281 OFFCURVE",
"299 299 CURVE",
"227 315 OFFCURVE",
"201 355 OFFCURVE",
"201 457 CURVE SMOOTH",
"201 578 LINE SMOOTH",
"201 670 OFFCURVE",
"183 690 OFFCURVE",
"91 690 CURVE SMOOTH",
"57 690 LINE",
"57 760 LINE",
"88 760 LINE SMOOTH",
"250 760 OFFCURVE",
"291 724 OFFCURVE",
"291 580 CURVE SMOOTH",
"291 463 LINE SMOOTH",
"291 366 OFFCURVE",
"321 334 OFFCURVE",
"413 334 CURVE SMOOTH",
"443 334 LINE",
"443 264 LINE",
"413 264 LINE SMOOTH",
"321 264 OFFCURVE",
"291 232 OFFCURVE",
"291 134 CURVE SMOOTH",
"291 17 LINE SMOOTH",
"291 -127 OFFCURVE",
"250 -163 OFFCURVE",
"88 -163 CURVE SMOOTH",
"57 -163 LINE"
);
}
);
width = 445;
}
);
unicode = 007D;
},
{
glyphname = asciitilde;
lastChange = "2014-11-05 03:29:27 -0500";
layers = (
{
layerId = "6B6936E6-7670-4A82-900D-EAF583C971AF";
name = Regular;
paths = (
{
closed = 1;
nodes = (
"699 322 LINE",
"631 271 OFFCURVE",
"576 226 OFFCURVE",
"513 226 CURVE SMOOTH",
"478 226 OFFCURVE",
"436 240 OFFCURVE",
"388 269 CURVE",
"385 271 OFFCURVE",
"382 271 OFFCURVE",
"380 272 CURVE",
"378 273 OFFCURVE",
"375 274 OFFCURVE",
"370 276 CURVE",
"319 303 OFFCURVE",
"279 316 OFFCURVE",
"248 316 CURVE SMOOTH",
"191 316 OFFCURVE",
"137 268 OFFCURVE",
"73 213 CURVE",
"73 315 LINE",
"142 366 OFFCURVE",
"196 387 OFFCURVE",
"259 387 CURVE SMOOTH",
"295 387 OFFCURVE",
"337 377 OFFCURVE",
"385 358 CURVE SMOOTH",
"391 355 OFFCURVE",
"394 354 OFFCURVE",
"403 351 CURVE SMOOTH",
"453 331 OFFCURVE",
"494 321 OFFCURVE",
"524 321 CURVE SMOOTH",
"581 321 OFFCURVE",
"632 344 OFFCURVE",
"699 399 CURVE"
);
}
);
width = 772;
}
);
unicode = 007E;
},
{
glyphname = exclamdown;
lastChange = "2014-11-05 03:29:27 -0500";
layers = (
{
layerId = "6B6936E6-7670-4A82-900D-EAF583C971AF";
name = Regular;
paths = (
{
closed = 1;
nodes = (
"192 615 LINE",
"73 615 LINE",
"88 749 LINE",
"177 749 LINE"
);
},
{
closed = 1;
nodes = (
"220 2 LINE",
"92 -2 LINE",
"85 318 LINE",
"89 492 LINE",
"188 496 LINE",
"204 322 LINE"
);
}
);
width = 293;
}
);
unicode = 00A1;
},
{
glyphname = cent;
lastChange = "2014-11-05 03:29:27 -0500";
layers = (
{
layerId = "6B6936E6-7670-4A82-900D-EAF583C971AF";
name = Regular;
paths = (
{
closed = 1;
nodes = (
"324 492 LINE",
"229 482 OFFCURVE",
"171 404 OFFCURVE",
"168 271 CURVE SMOOTH",
"167 177 OFFCURVE",
"222 112 OFFCURVE",
"317 99 CURVE"
);
},
{
closed = 1;
nodes = (
"510 449 LINE",
"462 477 OFFCURVE",
"419 491 OFFCURVE",
"375 493 CURVE",
"367 96 LINE",
"413 98 OFFCURVE",
"457 111 OFFCURVE",
"504 135 CURVE",
"502 13 LINE",
"459 -5 OFFCURVE",
"416 -16 OFFCURVE",
"365 -20 CURVE",
"363 -158 LINE",
"313 -157 LINE",
"315 -17 LINE",
"159 -1 OFFCURVE",
"71 105 OFFCURVE",
"73 273 CURVE SMOOTH",
"77 441 OFFCURVE",
"168 543 OFFCURVE",
"326 555 CURVE",
"328 695 LINE",
"378 694 LINE",
"376 554 LINE",
"423 550 OFFCURVE",
"467 539 OFFCURVE",
"511 518 CURVE"
);
}
);
width = 584;
}
);
unicode = 00A2;
},
{
glyphname = sterling;
lastChange = "2014-11-05 03:29:27 -0500";
layers = (
{
layerId = "6B6936E6-7670-4A82-900D-EAF583C971AF";
name = Regular;
paths = (
{
closed = 1;
nodes = (
"565 616 LINE",
"517 643 OFFCURVE",
"473 658 OFFCURVE",
"433 658 CURVE",
"337 653 OFFCURVE",
"303 619 OFFCURVE",
"299 481 CURVE SMOOTH",
"296 376 LINE",
"487 373 LINE",
"486 313 LINE",
"295 316 LINE",
"289 104 LINE",
"561 99 LINE",
"558 -8 LINE",
"73 0 LINE",
"76 107 LINE",
"191 105 LINE",
"197 318 LINE",
"100 319 LINE",
"102 379 LINE",
"199 378 LINE",
"202 494 LINE SMOOTH",
"207 664 OFFCURVE",
"275 732 OFFCURVE",
"427 736 CURVE",
"466 736 OFFCURVE",
"517 724 OFFCURVE",
"568 705 CURVE"
);
}
);
width = 641;
}
);
unicode = 00A3;
},
{
glyphname = currency;
lastChange = "2014-11-05 03:29:27 -0500";
layers = (
{
layerId = "6B6936E6-7670-4A82-900D-EAF583C971AF";
name = Regular;
paths = (
{
closed = 1;
nodes = (
"563 587 LINE",
"619 531 LINE",
"519 430 LINE",
"542 392 OFFCURVE",
"554 354 OFFCURVE",
"554 313 CURVE SMOOTH",
"554 272 OFFCURVE",
"542 235 OFFCURVE",
"516 198 CURVE",
"618 97 LINE",
"563 42 LINE",
"461 143 LINE",
"423 117 OFFCURVE",
"386 105 OFFCURVE",
"346 105 CURVE SMOOTH",
"309 105 OFFCURVE",
"269 117 OFFCURVE",
"229 141 CURVE",
"128 40 LINE",
"73 96 LINE",
"174 197 LINE",
"150 237 OFFCURVE",
"138 275 OFFCURVE",
"138 313 CURVE SMOOTH",
"138 354 OFFCURVE",
"150 392 OFFCURVE",
"175 428 CURVE",
"74 529 LINE",
"130 585 LINE",
"231 484 LINE",
"267 509 OFFCURVE",
"305 521 OFFCURVE",
"346 521 CURVE SMOOTH",
"385 521 OFFCURVE",
"423 510 OFFCURVE",
"462 485 CURVE"
);
},
{
closed = 1;
nodes = (
"478 387 OFFCURVE",
"420 444 OFFCURVE",
"346 444 CURVE SMOOTH",
"273 444 OFFCURVE",
"214 387 OFFCURVE",
"214 314 CURVE SMOOTH",
"214 240 OFFCURVE",
"272 219 OFFCURVE",
"346 219 CURVE SMOOTH",
"420 219 OFFCURVE",
"478 240 OFFCURVE",
"478 314 CURVE SMOOTH"
);
}
);
width = 692;
}
);
unicode = 00A4;
},
{
glyphname = yen;
lastChange = "2014-11-05 03:29:27 -0500";
layers = (
{
layerId = "6B6936E6-7670-4A82-900D-EAF583C971AF";
name = Regular;
paths = (
{
closed = 1;
nodes = (
"612 203 LINE",
"410 203 LINE",
"420 0 LINE",
"292 0 LINE",
"307 203 LINE",
"104 203 LINE",
"104 282 LINE",
"307 282 LINE",
"307 307 LINE",
"256 383 LINE",
"94 383 LINE",
"94 443 LINE",
"223 443 LINE",
"73 729 LINE",
"176 729 LINE",
"356 387 LINE",
"535 729 LINE",
"638 729 LINE",
"483 443 LINE",
"612 443 LINE",
"612 383 LINE",
"450 383 LINE",
"409 307 LINE",
"409 282 LINE",
"612 282 LINE"
);
}
);
width = 711;
}
);
unicode = 00A5;
},
{
glyphname = brokenbar;
lastChange = "2014-11-05 03:29:27 -0500";
layers = (
{
layerId = "6B6936E6-7670-4A82-900D-EAF583C971AF";
name = Regular;
paths = (
{
closed = 1;
nodes = (
"166 -236 LINE",
"73 -236 LINE",
"98 257 LINE",
"181 257 LINE"
);
},
{
closed = 1;
nodes = (
"98 309 LINE",
"117 764 LINE",
"200 764 LINE",
"181 309 LINE"
);
}
);
width = 229;
}
);
unicode = 00A6;
},
{
glyphname = section;
lastChange = "2014-11-05 03:29:27 -0500";
layers = (
{
layerId = "6B6936E6-7670-4A82-900D-EAF583C971AF";
name = Regular;
paths = (
{
closed = 1;
nodes = (
"172 439 OFFCURVE",
"152 410 OFFCURVE",
"152 380 CURVE SMOOTH",
"152 355 OFFCURVE",
"164 332 OFFCURVE",
"187 311 CURVE SMOOTH",
"209 289 OFFCURVE",
"261 256 OFFCURVE",
"342 212 CURVE",
"383 241 OFFCURVE",
"403 271 OFFCURVE",
"403 301 CURVE SMOOTH",
"403 325 OFFCURVE",
"392 349 OFFCURVE",
"369 371 CURVE SMOOTH",
"345 393 OFFCURVE",
"293 425 OFFCURVE",
"213 469 CURVE"
);
},
{
closed = 1;
nodes = (
"433 634 LINE",
"379 659 OFFCURVE",
"332 672 OFFCURVE",
"295 672 CURVE SMOOTH",
"232 672 OFFCURVE",
"195 645 OFFCURVE",
"195 598 CURVE SMOOTH",
"195 569 OFFCURVE",
"229 536 OFFCURVE",
"296 498 CURVE SMOOTH",
"304 493 OFFCURVE",
"311 489 OFFCURVE",
"315 487 CURVE SMOOTH",
"384 448 OFFCURVE",
"429 416 OFFCURVE",
"451 391 CURVE SMOOTH",
"472 366 OFFCURVE",
"482 337 OFFCURVE",
"482 304 CURVE SMOOTH",
"482 246 OFFCURVE",
"453 201 OFFCURVE",
"392 166 CURVE",
"433 132 OFFCURVE",
"450 98 OFFCURVE",
"450 56 CURVE SMOOTH",
"450 -36 OFFCURVE",
"379 -95 OFFCURVE",
"266 -95 CURVE SMOOTH",
"219 -95 OFFCURVE",
"169 -86 OFFCURVE",
"112 -67 CURVE",
"112 38 LINE",
"169 12 OFFCURVE",
"218 0 OFFCURVE",
"255 0 CURVE SMOOTH",
"322 0 OFFCURVE",
"360 14 OFFCURVE",
"360 63 CURVE SMOOTH",
"360 90 OFFCURVE",
"324 123 OFFCURVE",
"252 163 CURVE SMOOTH",
"240 170 LINE SMOOTH",
"170 209 OFFCURVE",
"125 241 OFFCURVE",
"104 266 CURVE SMOOTH",
"83 291 OFFCURVE",
"73 320 OFFCURVE",
"73 353 CURVE SMOOTH",
"73 412 OFFCURVE",
"104 459 OFFCURVE",
"163 491 CURVE",
"125 520 OFFCURVE",
"105 556 OFFCURVE",
"105 601 CURVE SMOOTH",
"105 686 OFFCURVE",
"176 742 OFFCURVE",
"284 742 CURVE SMOOTH",
"332 742 OFFCURVE",
"382 733 OFFCURVE",
"433 714 CURVE"
);
}
);
width = 556;
}
);
unicode = 00A7;
},
{
glyphname = dieresis;
lastChange = "2014-11-05 03:29:27 -0500";
layers = (
{
anchors = (
{
name = _top;
position = "{229, 547}";
}
);
layerId = "6B6936E6-7670-4A82-900D-EAF583C971AF";
name = Regular;
paths = (
{
closed = 1;
nodes = (
"278 765 LINE",
"384 765 LINE",
"384 659 LINE",
"278 659 LINE"
);
},
{
closed = 1;
nodes = (
"73 765 LINE",
"180 765 LINE",
"180 659 LINE",
"73 659 LINE"
);
}
);
width = 458;
}
);
unicode = 00A8;
},
{
glyphname = copyright;
lastChange = "2014-11-05 03:29:27 -0500";
layers = (
{
layerId = "6B6936E6-7670-4A82-900D-EAF583C971AF";
name = Regular;
paths = (
{
closed = 1;
nodes = (
"534 725 OFFCURVE",
"620 689 OFFCURVE",
"691 618 CURVE SMOOTH",
"762 547 OFFCURVE",
"797 462 OFFCURVE",
"797 362 CURVE SMOOTH",
"797 263 OFFCURVE",
"762 178 OFFCURVE",
"691 107 CURVE SMOOTH",
"620 36 OFFCURVE",
"534 0 OFFCURVE",
"435 0 CURVE SMOOTH",
"336 0 OFFCURVE",
"250 36 OFFCURVE",
"179 107 CURVE SMOOTH",
"108 178 OFFCURVE",
"73 263 OFFCURVE",
"73 362 CURVE SMOOTH",
"73 462 OFFCURVE",
"108 547 OFFCURVE",
"179 618 CURVE SMOOTH",
"250 689 OFFCURVE",
"336 725 OFFCURVE",
"435 725 CURVE SMOOTH"
);
},
{
closed = 1;
nodes = (
"350 675 OFFCURVE",
"276 644 OFFCURVE",
"215 583 CURVE SMOOTH",
"154 522 OFFCURVE",
"122 446 OFFCURVE",
"122 362 CURVE SMOOTH",
"122 278 OFFCURVE",
"154 211 OFFCURVE",
"215 157 CURVE",
"276 115 OFFCURVE",
"350 89 OFFCURVE",
"435 89 CURVE SMOOTH",
"521 89 OFFCURVE",
"595 115 OFFCURVE",
"656 157 CURVE",
"717 204 OFFCURVE",
"747 276 OFFCURVE",
"747 362 CURVE SMOOTH",
"747 448 OFFCURVE",
"716 522 OFFCURVE",
"656 583 CURVE SMOOTH",
"595 644 OFFCURVE",
"521 675 OFFCURVE",
"435 675 CURVE SMOOTH"
);
},
{
closed = 1;
nodes = (
"581 507 LINE",
"538 528 OFFCURVE",
"496 539 OFFCURVE",
"453 539 CURVE SMOOTH",
"356 539 OFFCURVE",
"299 464 OFFCURVE",
"299 362 CURVE SMOOTH",
"299 297 OFFCURVE",
"357 229 OFFCURVE",
"458 229 CURVE SMOOTH",
"500 229 OFFCURVE",
"538 238 OFFCURVE",
"581 260 CURVE",
"581 169 LINE",
"538 150 OFFCURVE",
"493 141 OFFCURVE",
"447 141 CURVE SMOOTH",
"307 141 OFFCURVE",
"219 227 OFFCURVE",
"219 362 CURVE SMOOTH",
"219 498 OFFCURVE",
"307 582 OFFCURVE",
"447 582 CURVE SMOOTH",
"495 582 OFFCURVE",
"539 573 OFFCURVE",
"581 555 CURVE"
);
}
);
width = 870;
}
);
unicode = 00A9;
},
{
glyphname = ordfeminine;
lastChange = "2014-11-05 03:29:27 -0500";
layers = (
{
layerId = "6B6936E6-7670-4A82-900D-EAF583C971AF";
name = Regular;
paths = (
{
closed = 1;
nodes = (
"85 289 LINE",
"421 289 LINE",
"421 229 LINE",
"85 229 LINE"
);
},
{
closed = 1;
nodes = (
"420 350 LINE",
"347 350 LINE",
"347 405 LINE",
"318 364 OFFCURVE",
"271 341 OFFCURVE",
"210 341 CURVE SMOOTH",
"126 341 OFFCURVE",
"73 388 OFFCURVE",
"73 462 CURVE SMOOTH",
"73 550 OFFCURVE",
"136 595 OFFCURVE",
"258 595 CURVE SMOOTH",
"347 595 LINE",
"347 597 LINE SMOOTH",
"347 656 OFFCURVE",
"309 686 OFFCURVE",
"233 686 CURVE SMOOTH",
"192 686 OFFCURVE",
"147 675 OFFCURVE",
"103 653 CURVE",
"103 715 LINE",
"150 733 OFFCURVE",
"198 742 OFFCURVE",
"243 742 CURVE SMOOTH",
"362 742 OFFCURVE",
"420 686 OFFCURVE",
"420 569 CURVE SMOOTH"
);
},
{
closed = 1;
nodes = (
"280 571 LINE SMOOTH",
"228 571 OFFCURVE",
"191 565 OFFCURVE",
"171 555 CURVE SMOOTH",
"150 543 OFFCURVE",
"140 525 OFFCURVE",
"140 500 CURVE SMOOTH",
"140 458 OFFCURVE",
"175 431 OFFCURVE",
"228 431 CURVE SMOOTH",
"296 431 OFFCURVE",
"342 482 OFFCURVE",
"342 557 CURVE SMOOTH",
"342 571 LINE"
);
}
);
width = 494;
}
);
unicode = 00AA;
},
{
glyphname = guillemotleft;
lastChange = "2014-11-05 03:29:27 -0500";
layers = (
{
layerId = "6B6936E6-7670-4A82-900D-EAF583C971AF";
name = Regular;
paths = (
{
closed = 1;
nodes = (
"542 501 LINE",
"540 408 LINE",
"388 282 LINE",
"530 146 LINE",
"507 34 LINE",
"285 246 LINE",
"307 305 LINE"
);
},
{
closed = 1;
nodes = (
"331 508 LINE",
"328 415 LINE",
"176 290 LINE",
"318 153 LINE",
"295 42 LINE",
"73 253 LINE",
"95 312 LINE"
);
}
);
width = 616;
}
);
unicode = 00AB;
},
{
glyphname = logicalnot;
lastChange = "2014-11-05 03:29:27 -0500";
layers = (
{
layerId = "6B6936E6-7670-4A82-900D-EAF583C971AF";
name = Regular;
paths = (
{
closed = 1;
nodes = (
"73 421 LINE",
"699 421 LINE",
"714 140 LINE",
"593 140 LINE",
"617 338 LINE",
"73 328 LINE"
);
}
);
width = 787;
}
);
unicode = 00AC;
},
{
glyphname = registered;
lastChange = "2014-11-05 03:29:27 -0500";
layers = (
{
layerId = "6B6936E6-7670-4A82-900D-EAF583C971AF";
name = Regular;
paths = (
{
closed = 1;
nodes = (
"350 675 OFFCURVE",
"276 646 OFFCURVE",
"215 590 CURVE SMOOTH",
"154 533 OFFCURVE",
"122 464 OFFCURVE",
"122 386 CURVE SMOOTH",
"122 308 OFFCURVE",
"154 239 OFFCURVE",
"215 183 CURVE SMOOTH",
"276 126 OFFCURVE",
"350 97 OFFCURVE",
"435 97 CURVE SMOOTH",
"521 97 OFFCURVE",
"595 126 OFFCURVE",
"656 183 CURVE SMOOTH",
"717 239 OFFCURVE",
"747 307 OFFCURVE",
"747 386 CURVE SMOOTH",
"747 465 OFFCURVE",
"716 534 OFFCURVE",
"656 590 CURVE SMOOTH",
"595 646 OFFCURVE",
"521 675 OFFCURVE",
"435 675 CURVE SMOOTH"
);
},
{
closed = 1;
nodes = (
"534 725 OFFCURVE",
"620 689 OFFCURVE",
"691 618 CURVE SMOOTH",
"762 547 OFFCURVE",
"797 462 OFFCURVE",
"797 362 CURVE SMOOTH",
"797 263 OFFCURVE",
"762 178 OFFCURVE",
"691 107 CURVE SMOOTH",
"620 36 OFFCURVE",
"534 0 OFFCURVE",
"435 0 CURVE SMOOTH",
"336 0 OFFCURVE",
"250 36 OFFCURVE",
"179 107 CURVE SMOOTH",
"108 178 OFFCURVE",
"73 263 OFFCURVE",
"73 362 CURVE SMOOTH",
"73 462 OFFCURVE",
"108 547 OFFCURVE",
"179 618 CURVE SMOOTH",
"250 689 OFFCURVE",
"336 725 OFFCURVE",
"435 725 CURVE SMOOTH"
);
},
{
closed = 1;
nodes = (
"386 547 LINE",
"386 413 LINE",
"446 413 LINE SMOOTH",
"518 413 OFFCURVE",
"542 431 OFFCURVE",
"542 479 CURVE SMOOTH",
"542 529 OFFCURVE",
"517 547 OFFCURVE",
"446 547 CURVE SMOOTH"
);
},
{
closed = 1;
nodes = (
"425 573 LINE SMOOTH",
"540 573 OFFCURVE",
"596 535 OFFCURVE",
"596 456 CURVE SMOOTH",
"596 400 OFFCURVE",
"561 362 OFFCURVE",
"498 351 CURVE",
"506 349 OFFCURVE",
"515 341 OFFCURVE",
"526 329 CURVE",
"537 316 OFFCURVE",
"550 298 OFFCURVE",
"565 274 CURVE SMOOTH",
"632 165 LINE",
"548 165 LINE",
"485 267 LINE SMOOTH",
"466 298 OFFCURVE",
"450 318 OFFCURVE",
"438 327 CURVE SMOOTH",
"426 335 OFFCURVE",
"418 339 OFFCURVE",
"414 339 CURVE SMOOTH",
"386 339 LINE",
"386 165 LINE",
"286 165 LINE",
"286 573 LINE"
);
}
);
width = 870;
}
);
unicode = 00AE;
},
{
glyphname = macron;
lastChange = "2014-11-05 03:29:27 -0500";
layers = (
{
anchors = (
{
name = _top;
position = "{219, 586}";
}
);
layerId = "6B6936E6-7670-4A82-900D-EAF583C971AF";
name = Regular;
paths = (
{
closed = 1;
nodes = (
"73 745 LINE",
"365 745 LINE",
"365 673 LINE",
"73 673 LINE"
);
}
);
width = 438;
}
);
unicode = 00AF;
},
{
glyphname = degree;
lastChange = "2014-11-05 03:29:27 -0500";
layers = (
{
layerId = "6B6936E6-7670-4A82-900D-EAF583C971AF";
name = Regular;
paths = (
{
closed = 1;
nodes = (
"176 704 OFFCURVE",
"135 666 OFFCURVE",
"135 619 CURVE SMOOTH",
"135 572 OFFCURVE",
"176 535 OFFCURVE",
"228 535 CURVE SMOOTH",
"280 535 OFFCURVE",
"321 572 OFFCURVE",
"321 619 CURVE SMOOTH",
"321 666 OFFCURVE",
"279 704 OFFCURVE",
"228 704 CURVE SMOOTH"
);
},
{
closed = 1;
nodes = (
"270 742 OFFCURVE",
"310 726 OFFCURVE",
"338 696 CURVE",
"368 667 OFFCURVE",
"383 629 OFFCURVE",
"383 586 CURVE SMOOTH",
"383 500 OFFCURVE",
"314 432 OFFCURVE",
"227 432 CURVE SMOOTH",
"139 432 OFFCURVE",
"73 498 OFFCURVE",
"73 586 CURVE SMOOTH",
"73 673 OFFCURVE",
"142 742 OFFCURVE",
"228 742 CURVE SMOOTH"
);
}
);
width = 456;
}
);
unicode = 00B0;
},
{
glyphname = plusminus;
lastChange = "2014-11-05 03:29:27 -0500";
layers = (
{
layerId = "6B6936E6-7670-4A82-900D-EAF583C971AF";
name = Regular;
paths = (
{
closed = 1;
nodes = (
"427 627 LINE",
"427 438 LINE",
"699 438 LINE",
"699 355 LINE",
"427 355 LINE",
"427 166 LINE",
"345 166 LINE",
"345 355 LINE",
"73 355 LINE",
"73 438 LINE",
"345 438 LINE",
"345 627 LINE"
);
},
{
closed = 1;
nodes = (
"73 93 LINE",
"699 93 LINE",
"699 0 LINE",
"73 0 LINE"
);
}
);
width = 772;
}
);
unicode = 00B1;
},
{
glyphname = twosuperior;
lastChange = "2014-11-05 03:29:27 -0500";
layers = (
{
layerId = "6B6936E6-7670-4A82-900D-EAF583C971AF";
name = Regular;
paths = (
{
closed = 1;
nodes = (
"365 407 LINE",
"365 326 LINE",
"73 326 LINE",
"73 405 LINE",
"84 415 OFFCURVE",
"100 429 OFFCURVE",
"121 447 CURVE SMOOTH",
"232 546 OFFCURVE",
"289 586 OFFCURVE",
"289 617 CURVE SMOOTH",
"289 660 OFFCURVE",
"251 689 OFFCURVE",
"196 689 CURVE SMOOTH",
"163 689 OFFCURVE",
"123 678 OFFCURVE",
"76 655 CURVE",
"76 715 LINE",
"126 733 OFFCURVE",
"169 742 OFFCURVE",
"207 742 CURVE SMOOTH",
"301 742 OFFCURVE",
"362 695 OFFCURVE",
"362 625 CURVE SMOOTH",
"362 580 OFFCURVE",
"309 536 OFFCURVE",
"201 443 CURVE SMOOTH",
"183 428 OFFCURVE",
"168 416 OFFCURVE",
"158 407 CURVE"
);
}
);
width = 438;
}
);
unicode = 00B2;
},
{
glyphname = threesuperior;
lastChange = "2014-11-05 03:29:27 -0500";
layers = (
{
layerId = "6B6936E6-7670-4A82-900D-EAF583C971AF";
name = Regular;
paths = (
{
closed = 1;
nodes = (
"341 535 OFFCURVE",
"375 498 OFFCURVE",
"375 445 CURVE SMOOTH",
"375 364 OFFCURVE",
"312 319 OFFCURVE",
"196 319 CURVE SMOOTH",
"159 319 OFFCURVE",
"119 326 OFFCURVE",
"73 339 CURVE",
"78 419 LINE",
"111 402 OFFCURVE",
"150 394 OFFCURVE",
"194 394 CURVE SMOOTH",
"265 394 OFFCURVE",
"301 399 OFFCURVE",
"301 445 CURVE SMOOTH",
"301 493 OFFCURVE",
"265 518 OFFCURVE",
"194 518 CURVE SMOOTH",
"152 518 LINE",
"152 571 LINE",
"198 571 LINE SMOOTH",
"259 571 OFFCURVE",
"292 592 OFFCURVE",
"292 631 CURVE SMOOTH",
"292 668 OFFCURVE",
"258 689 OFFCURVE",
"196 689 CURVE SMOOTH",
"170 689 OFFCURVE",
"140 684 OFFCURVE",
"87 669 CURVE",
"87 725 LINE",
"135 736 OFFCURVE",
"177 742 OFFCURVE",
"212 742 CURVE SMOOTH",
"306 742 OFFCURVE",
"365 701 OFFCURVE",
"365 636 CURVE SMOOTH",
"365 591 OFFCURVE",
"334 559 OFFCURVE",
"281 547 CURVE"
);
}
);
width = 449;
}
);
unicode = 00B3;
},
{
glyphname = acute;
lastChange = "2014-11-05 03:29:27 -0500";
layers = (
{
anchors = (
{
name = _top;
position = "{113, 396}";
}
);
layerId = "6B6936E6-7670-4A82-900D-EAF583C971AF";
name = Regular;
paths = (
{
closed = 1;
nodes = (
"226 849 LINE",
"333 849 LINE",
"156 645 LINE",
"73 645 LINE"
);
}
);
width = 407;
}
);
unicode = 00B4;
},
{
glyphname = mu;
lastChange = "2014-11-05 03:29:27 -0500";
layers = (
{
layerId = "6B6936E6-7670-4A82-900D-EAF583C971AF";
name = Regular;
paths = (
{
closed = 1;
nodes = (
"83 -208 LINE",
"73 547 LINE",
"163 552 LINE",
"168 310 LINE SMOOTH",
"168 215 OFFCURVE",
"213 167 OFFCURVE",
"301 167 CURVE SMOOTH",
"397 167 OFFCURVE",
"446 221 OFFCURVE",
"446 331 CURVE SMOOTH",
"451 547 LINE",
"541 547 LINE",
"536 126 LINE SMOOTH",
"536 106 OFFCURVE",
"554 96 OFFCURVE",
"591 93 CURVE",
"594 93 OFFCURVE",
"598 94 OFFCURVE",
"603 96 CURVE",
"608 98 OFFCURVE",
"615 101 OFFCURVE",
"625 104 CURVE",
"625 32 LINE",
"611 25 OFFCURVE",
"595 15 OFFCURVE",
"577 3 CURVE SMOOTH",
"559 -8 OFFCURVE",
"543 -14 OFFCURVE",
"532 -14 CURVE SMOOTH",
"487 -14 OFFCURVE",
"461 11 OFFCURVE",
"451 63 CURVE",
"418 12 OFFCURVE",
"372 -14 OFFCURVE",
"308 -14 CURVE SMOOTH",
"242 -14 OFFCURVE",
"195 11 OFFCURVE",
"168 62 CURVE",
"173 -208 LINE"
);
}
);
width = 698;
}
);
unicode = 00B5;
},
{
glyphname = paragraph;
lastChange = "2014-11-05 03:29:27 -0500";
layers = (
{
layerId = "6B6936E6-7670-4A82-900D-EAF583C971AF";
name = Regular;
paths = (
{
closed = 1;
nodes = (
"519 729 LINE",
"626 -96 LINE",
"450 -96 LINE",
"455 669 LINE",
"362 669 LINE",
"362 -96 LINE",
"205 -96 LINE",
"239 317 LINE",
"171 328 OFFCURVE",
"73 403 OFFCURVE",
"73 523 CURVE SMOOTH",
"73 646 OFFCURVE",
"165 729 OFFCURVE",
"305 729 CURVE SMOOTH"
);
}
);
width = 700;
}
);
unicode = 00B6;
},
{
glyphname = periodcentered;
lastChange = "2014-11-05 03:29:27 -0500";
layers = (
{
anchors = (
{
name = _dot;
position = "{61, 376}";
}
);
layerId = "6B6936E6-7670-4A82-900D-EAF583C971AF";
name = Regular;
paths = (
{
closed = 1;
nodes = (
"73 409 LINE",
"176 409 LINE",
"176 285 LINE",
"73 285 LINE"
);
}
);
width = 250;
}
);
unicode = 00B7;
},
{
glyphname = cedilla;
lastChange = "2014-11-05 03:29:27 -0500";
layers = (
{
anchors = (
{
name = _bottom;
position = "{174, 0}";
}
);
layerId = "6B6936E6-7670-4A82-900D-EAF583C971AF";
name = Regular;
paths = (
{
closed = 1;
nodes = (
"222 0 LINE",
"258 -41 OFFCURVE",
"275 -74 OFFCURVE",
"275 -105 CURVE SMOOTH",
"275 -163 OFFCURVE",
"236 -193 OFFCURVE",
"159 -193 CURVE SMOOTH",
"129 -193 OFFCURVE",
"101 -189 OFFCURVE",
"73 -181 CURVE",
"73 -117 LINE",
"95 -128 OFFCURVE",
"118 -133 OFFCURVE",
"149 -133 CURVE SMOOTH",
"188 -133 OFFCURVE",
"207 -117 OFFCURVE",
"207 -87 CURVE SMOOTH",
"207 -67 OFFCURVE",
"193 -40 OFFCURVE",
"164 0 CURVE"
);
}
);
width = 349;
}
);
unicode = 00B8;
},
{
glyphname = onesuperior;
lastChange = "2014-11-05 03:29:27 -0500";
layers = (
{
layerId = "6B6936E6-7670-4A82-900D-EAF583C971AF";
name = Regular;
paths = (
{
closed = 1;
nodes = (
"83 416 LINE",
"182 416 LINE",
"182 678 LINE",
"73 658 LINE",
"73 715 LINE",
"186 734 LINE",
"252 734 LINE",
"252 416 LINE",
"353 416 LINE",
"353 326 LINE",
"83 326 LINE"
);
}
);
width = 426;
}
);
unicode = 00B9;
},
{
glyphname = ordmasculine;
lastChange = "2014-11-05 03:29:27 -0500";
layers = (
{
layerId = "6B6936E6-7670-4A82-900D-EAF583C971AF";
name = Regular;
paths = (
{
closed = 1;
nodes = (
"94 289 LINE",
"430 289 LINE",
"430 229 LINE",
"94 229 LINE"
);
},
{
closed = 1;
nodes = (
"379 742 OFFCURVE",
"450 666 OFFCURVE",
"450 541 CURVE SMOOTH",
"450 417 OFFCURVE",
"379 341 OFFCURVE",
"262 341 CURVE SMOOTH",
"146 341 OFFCURVE",
"73 417 OFFCURVE",
"73 541 CURVE SMOOTH",
"73 666 OFFCURVE",
"146 742 OFFCURVE",
"262 742 CURVE SMOOTH"
);
},
{
closed = 1;
nodes = (
"194 704 OFFCURVE",
"149 656 OFFCURVE",
"149 582 CURVE SMOOTH",
"149 508 OFFCURVE",
"194 460 OFFCURVE",
"262 460 CURVE SMOOTH",
"331 460 OFFCURVE",
"375 508 OFFCURVE",
"375 582 CURVE SMOOTH",
"375 657 OFFCURVE",
"331 704 OFFCURVE",
"262 704 CURVE SMOOTH"
);
}
);
width = 523;
}
);
unicode = 00BA;
},
{
glyphname = guillemotright;
lastChange = "2014-11-05 03:29:27 -0500";
layers = (
{
layerId = "6B6936E6-7670-4A82-900D-EAF583C971AF";
name = Regular;
paths = (
{
closed = 1;
nodes = (
"92 529 LINE",
"310 313 LINE",
"326 252 LINE",
"87 61 LINE",
"73 174 LINE",
"227 297 LINE",
"87 436 LINE"
);
},
{
closed = 1;
nodes = (
"303 518 LINE",
"521 302 LINE",
"538 241 LINE",
"298 49 LINE",
"285 163 LINE",
"438 286 LINE",
"298 424 LINE"
);
}
);
width = 611;
}
);
unicode = 00BB;
},
{
glyphname = onequarter;
lastChange = "2014-11-05 03:29:27 -0500";
layers = (
{
layerId = "6B6936E6-7670-4A82-900D-EAF583C971AF";
name = Regular;
paths = (
{
closed = 1;
nodes = (
"83 380 LINE",
"182 380 LINE",
"182 678 LINE",
"73 658 LINE",
"73 715 LINE",
"186 734 LINE",
"252 734 LINE",
"252 380 LINE",
"353 380 LINE",
"353 326 LINE",
"83 326 LINE"
);
},
{
closed = 1;
nodes = (
"699 742 LINE",
"777 742 LINE",
"322 -14 LINE",
"244 -14 LINE"
);
},
{
closed = 1;
nodes = (
"753 350 LINE",
"603 145 LINE",
"753 145 LINE"
);
},
{
closed = 1;
nodes = (
"743 409 LINE",
"824 409 LINE",
"824 145 LINE",
"890 145 LINE",
"890 92 LINE",
"824 92 LINE",
"824 1 LINE",
"753 1 LINE",
"753 92 LINE",
"551 92 LINE",
"551 151 LINE"
);
}
);
width = 963;
}
);
unicode = 00BC;
},
{
glyphname = onehalf;
lastChange = "2014-11-05 03:29:27 -0500";
layers = (
{
layerId = "6B6936E6-7670-4A82-900D-EAF583C971AF";
name = Regular;
paths = (
{
closed = 1;
nodes = (
"83 380 LINE",
"182 380 LINE",
"182 678 LINE",
"73 658 LINE",
"73 715 LINE",
"186 734 LINE",
"252 734 LINE",
"252 380 LINE",
"353 380 LINE",
"353 326 LINE",
"83 326 LINE"
);
},
{
closed = 1;
nodes = (
"674 742 LINE",
"752 742 LINE",
"297 -14 LINE",
"219 -14 LINE"
);
},
{
closed = 1;
nodes = (
"894 57 LINE",
"894 1 LINE",
"602 1 LINE",
"602 55 LINE",
"613 65 OFFCURVE",
"629 79 OFFCURVE",
"649 97 CURVE SMOOTH",
"761 196 OFFCURVE",
"817 261 OFFCURVE",
"817 292 CURVE SMOOTH",
"817 335 OFFCURVE",
"780 364 OFFCURVE",
"725 364 CURVE SMOOTH",
"691 364 OFFCURVE",
"652 353 OFFCURVE",
"605 330 CURVE",
"605 390 LINE",
"655 408 OFFCURVE",
"698 417 OFFCURVE",
"735 417 CURVE SMOOTH",
"830 417 OFFCURVE",
"891 370 OFFCURVE",
"891 300 CURVE SMOOTH",
"891 254 OFFCURVE",
"837 186 OFFCURVE",
"729 93 CURVE SMOOTH",
"711 78 OFFCURVE",
"697 65 OFFCURVE",
"687 57 CURVE"
);
}
);
width = 967;
}
);
unicode = 00BD;
},
{
glyphname = threequarters;
lastChange = "2014-11-05 03:29:27 -0500";
layers = (
{
layerId = "6B6936E6-7670-4A82-900D-EAF583C971AF";
name = Regular;
paths = (
{
closed = 1;
nodes = (
"341 535 OFFCURVE",
"375 498 OFFCURVE",
"375 445 CURVE SMOOTH",
"375 364 OFFCURVE",
"312 319 OFFCURVE",
"196 319 CURVE SMOOTH",
"159 319 OFFCURVE",
"119 326 OFFCURVE",
"73 339 CURVE",
"73 398 LINE",
"107 380 OFFCURVE",
"146 372 OFFCURVE",
"189 372 CURVE SMOOTH",
"260 372 OFFCURVE",
"301 399 OFFCURVE",
"301 445 CURVE SMOOTH",
"301 493 OFFCURVE",
"265 518 OFFCURVE",
"194 518 CURVE SMOOTH",
"152 518 LINE",
"152 571 LINE",
"198 571 LINE SMOOTH",
"259 571 OFFCURVE",
"292 592 OFFCURVE",
"292 631 CURVE SMOOTH",
"292 668 OFFCURVE",
"258 689 OFFCURVE",
"196 689 CURVE SMOOTH",
"170 689 OFFCURVE",
"140 684 OFFCURVE",
"87 669 CURVE",
"87 725 LINE",
"135 736 OFFCURVE",
"177 742 OFFCURVE",
"212 742 CURVE SMOOTH",
"306 742 OFFCURVE",
"365 701 OFFCURVE",
"365 636 CURVE SMOOTH",
"365 591 OFFCURVE",
"334 559 OFFCURVE",
"281 547 CURVE"
);
},
{
closed = 1;
nodes = (
"712 742 LINE",
"791 742 LINE",
"335 -14 LINE",
"257 -14 LINE"
);
},
{
closed = 1;
nodes = (
"748 350 LINE",
"597 145 LINE",
"748 145 LINE"
);
},
{
closed = 1;
nodes = (
"737 409 LINE",
"818 409 LINE",
"818 145 LINE",
"884 145 LINE",
"884 92 LINE",
"818 92 LINE",
"818 1 LINE",
"748 1 LINE",
"748 92 LINE",
"545 92 LINE",
"545 151 LINE"
);
}
);
width = 957;
}
);
unicode = 00BE;
},
{
glyphname = questiondown;
lastChange = "2014-11-05 03:29:27 -0500";
layers = (
{
layerId = "6B6936E6-7670-4A82-900D-EAF583C971AF";
name = Regular;
paths = (
{
closed = 1;
nodes = (
"248 533 LINE",
"326 533 LINE",
"326 457 LINE SMOOTH",
"326 391 OFFCURVE",
"315 381 OFFCURVE",
"270 331 CURVE",
"226 288 LINE SMOOTH",
"188 253 OFFCURVE",
"172 224 OFFCURVE",
"172 192 CURVE SMOOTH",
"172 134 OFFCURVE",
"219 95 OFFCURVE",
"290 95 CURVE SMOOTH",
"340 95 OFFCURVE",
"400 119 OFFCURVE",
"462 162 CURVE",
"462 41 LINE",
"401 4 OFFCURVE",
"339 -14 OFFCURVE",
"272 -14 CURVE SMOOTH",
"153 -14 OFFCURVE",
"73 55 OFFCURVE",
"73 158 CURVE SMOOTH",
"73 208 OFFCURVE",
"94 248 OFFCURVE",
"152 304 CURVE SMOOTH",
"195 346 LINE SMOOTH",
"227 377 OFFCURVE",
"236 391 OFFCURVE",
"241 407 CURVE SMOOTH",
"246 421 OFFCURVE",
"248 438 OFFCURVE",
"248 473 CURVE SMOOTH"
);
},
{
closed = 1;
nodes = (
"343 605 LINE",
"245 605 LINE",
"245 729 LINE",
"343 729 LINE"
);
}
);
width = 536;
}
);
unicode = 00BF;
},
{
glyphname = AE;
lastChange = "2014-11-05 03:29:27 -0500";
layers = (
{
anchors = (
{
name = top;
position = "{531, 729}";
}
);
layerId = "6B6936E6-7670-4A82-900D-EAF583C971AF";
name = Regular;
paths = (
{
closed = 1;
nodes = (
"947 729 LINE",
"947 646 LINE",
"585 646 LINE",
"585 347 LINE",
"933 347 LINE",
"933 264 LINE",
"585 264 LINE",
"585 127 LINE",
"957 127 LINE",
"957 0 LINE",
"486 0 LINE",
"486 128 LINE",
"229 128 LINE",
"233 0 LINE",
"50 0 LINE",
"355 729 LINE"
);
},
{
closed = 1;
nodes = (
"423 652 LINE",
"262 210 LINE",
"486 210 LINE",
"486 652 LINE"
);
}
);
width = 1061;
}
);
unicode = 00C6;
},
{
glyphname = Eth;
lastChange = "2014-11-05 03:29:27 -0500";
layers = (
{
layerId = "6B6936E6-7670-4A82-900D-EAF583C971AF";
name = Regular;
paths = (
{
closed = 1;
nodes = (
"164 729 LINE",
"367 729 LINE SMOOTH",
"648 729 OFFCURVE",
"776 615 OFFCURVE",
"776 365 CURVE SMOOTH",
"776 114 OFFCURVE",
"648 0 OFFCURVE",
"367 0 CURVE SMOOTH",
"164 0 LINE",
"164 342 LINE",
"65 342 LINE",
"65 412 LINE",
"164 412 LINE"
);
},
{
closed = 1;
nodes = (
"263 648 LINE",
"263 412 LINE",
"427 412 LINE",
"427 342 LINE",
"263 342 LINE",
"263 149 LINE",
"381 149 LINE SMOOTH",
"583 149 OFFCURVE",
"672 168 OFFCURVE",
"672 365 CURVE SMOOTH",
"672 561 OFFCURVE",
"583 648 OFFCURVE",
"381 648 CURVE SMOOTH"
);
}
);
width = 865;
}
);
unicode = 00D0;
},
{
glyphname = multiply;
lastChange = "2014-11-05 03:29:27 -0500";
layers = (
{
layerId = "6B6936E6-7670-4A82-900D-EAF583C971AF";
name = Regular;
paths = (
{
closed = 1;
nodes = (
"613 513 LINE",
"424 323 LINE",
"608 139 LINE",
"525 55 LINE",
"340 240 LINE",
"155 55 LINE",
"73 139 LINE",
"257 323 LINE",
"83 498 LINE",
"165 582 LINE",
"340 406 LINE",
"530 596 LINE"
);
}
);
width = 686;
}
);
unicode = 00D7;
},
{
glyphname = Thorn;
lastChange = "2014-11-05 03:29:27 -0500";
layers = (
{
layerId = "6B6936E6-7670-4A82-900D-EAF583C971AF";
name = Regular;
paths = (
{
closed = 1;
nodes = (
"73 729 LINE",
"172 729 LINE",
"172 600 LINE",
"296 600 LINE SMOOTH",
"459 600 OFFCURVE",
"544 526 OFFCURVE",
"544 383 CURVE SMOOTH",
"544 240 OFFCURVE",
"459 165 OFFCURVE",
"296 165 CURVE SMOOTH",
"172 165 LINE",
"172 0 LINE",
"73 0 LINE"
);
},
{
closed = 1;
nodes = (
"172 519 LINE",
"172 246 LINE",
"296 246 LINE SMOOTH",
"388 246 OFFCURVE",
"440 295 OFFCURVE",
"440 383 CURVE SMOOTH",
"440 470 OFFCURVE",
"388 519 OFFCURVE",
"296 519 CURVE SMOOTH"
);
}
);
width = 617;
}
);
unicode = 00DE;
},
{
glyphname = germandbls;
lastChange = "2014-11-05 03:29:27 -0500";
layers = (
{
layerId = "6B6936E6-7670-4A82-900D-EAF583C971AF";
name = Regular;
paths = (
{
closed = 1;
nodes = (
"133 555 LINE",
"133 686 OFFCURVE",
"214 760 OFFCURVE",
"356 760 CURVE SMOOTH",
"492 760 OFFCURVE",
"564 683 OFFCURVE",
"566 537 CURVE",
"468 532 OFFCURVE",
"411 493 OFFCURVE",
"411 430 CURVE SMOOTH",
"411 399 OFFCURVE",
"428 375 OFFCURVE",
"471 347 CURVE SMOOTH",
"499 329 LINE SMOOTH",
"606 260 OFFCURVE",
"626 224 OFFCURVE",
"626 159 CURVE SMOOTH",
"626 47 OFFCURVE",
"551 -14 OFFCURVE",
"414 -14 CURVE SMOOTH",
"372 -14 OFFCURVE",
"328 -6 OFFCURVE",
"280 10 CURVE",
"280 129 LINE",
"333 109 OFFCURVE",
"377 100 OFFCURVE",
"419 100 CURVE SMOOTH",
"495 100 OFFCURVE",
"535 122 OFFCURVE",
"535 162 CURVE SMOOTH",
"535 176 OFFCURVE",
"530 189 OFFCURVE",
"521 203 CURVE SMOOTH",
"511 217 OFFCURVE",
"489 234 OFFCURVE",
"457 254 CURVE",
"417 281 LINE",
"387 319 OFFCURVE",
"352 361 OFFCURVE",
"352 420 CURVE SMOOTH",
"352 502 OFFCURVE",
"381 561 OFFCURVE",
"512 580 CURVE",
"461 699 OFFCURVE",
"428 705 OFFCURVE",
"354 705 CURVE SMOOTH",
"270 705 OFFCURVE",
"228 665 OFFCURVE",
"215 553 CURVE",
"239 0 LINE",
"104 0 LINE"
);
}
);
width = 694;
}
);
unicode = 00DF;
},
{
glyphname = ae;
lastChange = "2014-11-05 03:29:27 -0500";
layers = (
{
anchors = (
{
name = top;
position = "{542, 547}";
}
);
layerId = "6B6936E6-7670-4A82-900D-EAF583C971AF";
name = Regular;
paths = (
{
closed = 1;
nodes = (
"888 352 LINE",
"888 422 OFFCURVE",
"830 510 OFFCURVE",
"740 510 CURVE SMOOTH",
"641 510 OFFCURVE",
"578 427 OFFCURVE",
"568 351 CURVE"
);
},
{
closed = 1;
nodes = (
"583 529 OFFCURVE",
"653 560 OFFCURVE",
"739 560 CURVE SMOOTH",
"886 560 OFFCURVE",
"979 449 OFFCURVE",
"979 325 CURVE SMOOTH",
"979 281 LINE",
"565 281 LINE",
"573 196 OFFCURVE",
"641 120 OFFCURVE",
"760 120 CURVE SMOOTH",
"828 120 OFFCURVE",
"893 137 OFFCURVE",
"958 171 CURVE",
"958 42 LINE",
"893 15 OFFCURVE",
"824 -14 OFFCURVE",
"755 -14 CURVE SMOOTH",
"646 -14 OFFCURVE",
"565 25 OFFCURVE",
"515 103 CURVE",
"468 25 OFFCURVE",
"397 -14 OFFCURVE",
"304 -14 CURVE SMOOTH",
"181 -14 OFFCURVE",
"109 50 OFFCURVE",
"109 159 CURVE SMOOTH",
"109 321 OFFCURVE",
"192 375 OFFCURVE",
"355 375 CURVE SMOOTH",
"481 375 LINE",
"481 383 LINE SMOOTH",
"481 427 OFFCURVE",
"424 503 OFFCURVE",
"326 503 CURVE SMOOTH",
"264 503 OFFCURVE",
"204 488 OFFCURVE",
"149 458 CURVE",
"149 522 LINE",
"215 547 OFFCURVE",
"277 560 OFFCURVE",
"335 560 CURVE SMOOTH",
"428 560 OFFCURVE",
"500 527 OFFCURVE",
"535 470 CURVE"
);
},
{
closed = 1;
nodes = (
"392 304 LINE SMOOTH",
"247 304 OFFCURVE",
"199 288 OFFCURVE",
"199 193 CURVE SMOOTH",
"199 142 OFFCURVE",
"244 110 OFFCURVE",
"316 110 CURVE SMOOTH",
"416 110 OFFCURVE",
"481 163 OFFCURVE",
"481 288 CURVE SMOOTH",
"481 304 LINE"
);
}
);
width = 1083;
}
);
unicode = 00E6;
},
{
glyphname = igrave;
lastChange = "2014-11-05 03:29:27 -0500";
layers = (
{
layerId = "6B6936E6-7670-4A82-900D-EAF583C971AF";
name = Regular;
paths = (
{
closed = 1;
nodes = (
"220 547 LINE",
"310 547 LINE",
"310 0 LINE",
"220 0 LINE"
);
},
{
closed = 1;
nodes = (
"169 800 LINE",
"307 617 LINE",
"174 617 LINE",
"73 800 LINE"
);
}
);
width = 383;
}
);
unicode = 00EC;
},
{
glyphname = iacute;
lastChange = "2014-11-05 03:29:27 -0500";
layers = (
{
layerId = "6B6936E6-7670-4A82-900D-EAF583C971AF";
name = Regular;
paths = (
{
closed = 1;
nodes = (
"126 547 LINE",
"216 547 LINE",
"216 0 LINE",
"126 0 LINE"
);
},
{
closed = 1;
nodes = (
"226 800 LINE",
"333 800 LINE",
"156 596 LINE",
"73 596 LINE"
);
}
);
width = 407;
}
);
unicode = 00ED;
},
{
glyphname = icircumflex;
lastChange = "2014-11-05 03:29:27 -0500";
layers = (
{
layerId = "6B6936E6-7670-4A82-900D-EAF583C971AF";
name = Regular;
paths = (
{
closed = 1;
nodes = (
"211 547 LINE",
"301 547 LINE",
"301 0 LINE",
"211 0 LINE"
);
},
{
closed = 1;
nodes = (
"193 800 LINE",
"265 800 LINE",
"385 616 LINE",
"317 616 LINE",
"229 736 LINE",
"141 616 LINE",
"73 616 LINE"
);
}
);
width = 458;
}
);
unicode = 00EE;
},
{
glyphname = idieresis;
lastChange = "2014-11-05 03:29:27 -0500";
layers = (
{
layerId = "6B6936E6-7670-4A82-900D-EAF583C971AF";
name = Regular;
paths = (
{
closed = 1;
nodes = (
"183 547 LINE",
"273 547 LINE",
"273 0 LINE",
"183 0 LINE"
);
},
{
closed = 1;
nodes = (
"278 765 LINE",
"384 765 LINE",
"384 659 LINE",
"278 659 LINE"
);
},
{
closed = 1;
nodes = (
"73 765 LINE",
"180 765 LINE",
"180 659 LINE",
"73 659 LINE"
);
}
);
width = 458;
}
);
unicode = 00EF;
},
{
glyphname = eth;
lastChange = "2014-11-05 03:29:27 -0500";
layers = (
{
layerId = "6B6936E6-7670-4A82-900D-EAF583C971AF";
name = Regular;
paths = (
{
closed = 1;
nodes = (
"395 458 OFFCURVE",
"367 463 OFFCURVE",
"340 463 CURVE SMOOTH",
"231 463 OFFCURVE",
"168 389 OFFCURVE",
"168 262 CURVE SMOOTH",
"168 140 OFFCURVE",
"229 134 OFFCURVE",
"324 134 CURVE SMOOTH",
"418 134 OFFCURVE",
"480 140 OFFCURVE",
"480 262 CURVE SMOOTH",
"480 342 OFFCURVE",
"462 402 OFFCURVE",
"427 447 CURVE"
);
},
{
closed = 1;
nodes = (
"458 557 LINE SMOOTH",
"540 464 OFFCURVE",
"575 375 OFFCURVE",
"575 262 CURVE SMOOTH",
"575 96 OFFCURVE",
"474 -14 OFFCURVE",
"324 -14 CURVE SMOOTH",
"174 -14 OFFCURVE",
"73 96 OFFCURVE",
"73 262 CURVE SMOOTH",
"73 425 OFFCURVE",
"172 536 OFFCURVE",
"316 536 CURVE SMOOTH",
"328 536 OFFCURVE",
"343 535 OFFCURVE",
"371 531 CURVE",
"293 619 LINE",
"137 567 LINE",
"121 615 LINE",
"258 660 LINE",
"170 760 LINE",
"281 760 LINE",
"343 689 LINE",
"506 743 LINE",
"522 696 LINE",
"378 648 LINE"
);
}
);
width = 648;
}
);
unicode = 00F0;
},
{
glyphname = divide;
lastChange = "2014-11-05 03:29:27 -0500";
layers = (
{
layerId = "6B6936E6-7670-4A82-900D-EAF583C971AF";
name = Regular;
paths = (
{
closed = 1;
nodes = (
"326 579 LINE",
"471 579 LINE",
"471 434 LINE",
"326 434 LINE"
);
},
{
closed = 1;
nodes = (
"326 168 LINE",
"471 168 LINE",
"471 24 LINE",
"326 24 LINE"
);
},
{
closed = 1;
nodes = (
"73 355 LINE",
"724 355 LINE",
"724 248 LINE",
"73 248 LINE"
);
}
);
width = 797;
}
);
unicode = 00F7;
},
{
glyphname = oslash;
lastChange = "2014-11-05 03:29:27 -0500";
layers = (
{
anchors = (
{
name = top;
position = "{344, 547}";
}
);
layerId = "6B6936E6-7670-4A82-900D-EAF583C971AF";
name = Regular;
paths = (
{
closed = 1;
nodes = (
"242 102 LINE",
"269 75 OFFCURVE",
"302 62 OFFCURVE",
"344 62 CURVE SMOOTH",
"440 62 OFFCURVE",
"500 143 OFFCURVE",
"500 273 CURVE SMOOTH",
"500 324 OFFCURVE",
"494 361 OFFCURVE",
"480 391 CURVE"
);
},
{
closed = 1;
nodes = (
"445 444 LINE",
"418 471 OFFCURVE",
"385 484 OFFCURVE",
"344 484 CURVE SMOOTH",
"246 484 OFFCURVE",
"188 403 OFFCURVE",
"188 266 CURVE SMOOTH",
"188 219 OFFCURVE",
"194 185 OFFCURVE",
"207 155 CURVE"
);
},
{
closed = 1;
nodes = (
"146 81 LINE",
"111 131 OFFCURVE",
"93 195 OFFCURVE",
"93 273 CURVE SMOOTH",
"93 453 OFFCURVE",
"188 560 OFFCURVE",
"344 560 CURVE SMOOTH",
"405 560 OFFCURVE",
"457 543 OFFCURVE",
"500 510 CURVE",
"568 592 LINE",
"614 553 LINE",
"543 466 LINE",
"578 416 OFFCURVE",
"595 351 OFFCURVE",
"595 273 CURVE SMOOTH",
"595 94 OFFCURVE",
"500 -14 OFFCURVE",
"344 -14 CURVE SMOOTH",
"282 -14 OFFCURVE",
"229 3 OFFCURVE",
"188 36 CURVE",
"120 -46 LINE",
"73 -8 LINE"
);
}
);
width = 688;
}
);
unicode = 00F8;
},
{
glyphname = thorn;
lastChange = "2014-11-05 03:29:27 -0500";
layers = (
{
layerId = "6B6936E6-7670-4A82-900D-EAF583C971AF";
name = Regular;
paths = (
{
closed = 1;
nodes = (
"225 -208 LINE",
"134 -208 LINE",
"134 760 LINE",
"225 760 LINE",
"225 464 LINE",
"262 529 OFFCURVE",
"319 560 OFFCURVE",
"399 560 CURVE SMOOTH",
"532 560 OFFCURVE",
"624 445 OFFCURVE",
"624 273 CURVE SMOOTH",
"624 101 OFFCURVE",
"532 -14 OFFCURVE",
"399 -14 CURVE SMOOTH",
"319 -14 OFFCURVE",
"262 17 OFFCURVE",
"225 82 CURVE"
);
},
{
closed = 1;
nodes = (
"530 405 OFFCURVE",
"473 485 OFFCURVE",
"377 485 CURVE SMOOTH",
"282 485 OFFCURVE",
"225 405 OFFCURVE",
"225 273 CURVE SMOOTH",
"225 141 OFFCURVE",
"282 61 OFFCURVE",
"377 61 CURVE SMOOTH",
"473 61 OFFCURVE",
"530 141 OFFCURVE",
"530 273 CURVE SMOOTH"
);
}
);
width = 624;
}
);
unicode = 00FE;
},
{
glyphname = dcroat;
lastChange = "2014-11-05 03:29:27 -0500";
layers = (
{
layerId = "6B6936E6-7670-4A82-900D-EAF583C971AF";
name = Regular;
paths = (
{
closed = 1;
nodes = (
"472 627 LINE",
"313 627 LINE",
"313 688 LINE",
"472 688 LINE",
"472 760 LINE",
"562 760 LINE",
"562 688 LINE",
"637 688 LINE",
"637 627 LINE",
"562 627 LINE",
"562 0 LINE",
"472 0 LINE",
"472 82 LINE",
"435 17 OFFCURVE",
"377 -14 OFFCURVE",
"297 -14 CURVE SMOOTH",
"165 -14 OFFCURVE",
"73 101 OFFCURVE",
"73 273 CURVE SMOOTH",
"73 445 OFFCURVE",
"165 560 OFFCURVE",
"297 560 CURVE SMOOTH",
"377 560 OFFCURVE",
"435 529 OFFCURVE",
"472 464 CURVE"
);
},
{
closed = 1;
nodes = (
"166 175 OFFCURVE",
"224 103 OFFCURVE",
"319 103 CURVE SMOOTH",
"414 103 OFFCURVE",
"472 175 OFFCURVE",
"472 294 CURVE SMOOTH",
"472 413 OFFCURVE",
"414 485 OFFCURVE",
"319 485 CURVE SMOOTH",
"224 485 OFFCURVE",
"166 413 OFFCURVE",
"166 294 CURVE SMOOTH"
);
}
);
width = 710;
}
);
unicode = 0111;
},
{
glyphname = dotlessi;
lastChange = "2014-11-05 03:29:27 -0500";
layers = (
{
anchors = (
{
name = ogonek;
position = "{132, 15}";
},
{
name = top;
position = "{117, 547}";
}
);
layerId = "6B6936E6-7670-4A82-900D-EAF583C971AF";
name = Regular;
paths = (
{
closed = 1;
nodes = (
"86 192 OFFCURVE",
"89 375 OFFCURVE",
"88 547 CURVE",
"168 547 LINE",
"162 383 OFFCURVE",
"167 199 OFFCURVE",
"188 0 CURVE",
"73 0 LINE"
);
}
);
width = 261;
}
);
unicode = 0131;
},
{
glyphname = Lslash;
lastChange = "2014-11-05 03:29:27 -0500";
layers = (
{
layerId = "6B6936E6-7670-4A82-900D-EAF583C971AF";
name = Regular;
paths = (
{
closed = 1;
nodes = (
"183 729 LINE",
"282 729 LINE",
"282 428 LINE",
"435 535 LINE",
"474 481 LINE",
"282 347 LINE",
"282 83 LINE",
"637 83 LINE",
"637 0 LINE",
"183 0 LINE",
"183 279 LINE",
"111 227 LINE",
"73 281 LINE",
"183 358 LINE"
);
}
);
width = 710;
}
);
unicode = 0141;
},
{
glyphname = lslash;
lastChange = "2014-11-05 03:29:27 -0500";
layers = (
{
layerId = "6B6936E6-7670-4A82-900D-EAF583C971AF";
name = Regular;
paths = (
{
closed = 1;
nodes = (
"106 760 LINE",
"196 760 LINE",
"196 466 LINE",
"257 510 LINE",
"294 458 LINE",
"196 389 LINE",
"196 0 LINE",
"106 0 LINE",
"106 325 LINE",
"46 282 LINE",
"10 334 LINE",
"106 403 LINE"
);
}
);
width = 302;
}
);
unicode = 0142;
},
{
glyphname = OE;
lastChange = "2014-11-05 03:29:27 -0500";
layers = (
{
anchors = (
{
name = top;
position = "{570, 729}";
}
);
layerId = "6B6936E6-7670-4A82-900D-EAF583C971AF";
name = Regular;
paths = (
{
closed = 1;
nodes = (
"1036 729 LINE",
"1036 666 LINE",
"673 666 LINE",
"673 464 LINE",
"1030 464 LINE",
"1030 381 LINE",
"673 381 LINE",
"673 137 LINE",
"1044 137 LINE",
"1044 0 LINE",
"524 0 LINE SMOOTH",
"243 0 OFFCURVE",
"95 125 OFFCURVE",
"95 365 CURVE SMOOTH",
"95 603 OFFCURVE",
"243 729 OFFCURVE",
"524 729 CURVE SMOOTH"
);
},
{
closed = 1;
nodes = (
"575 666 LINE",
"512 666 LINE SMOOTH",
"303 666 OFFCURVE",
"199 579 OFFCURVE",
"199 365 CURVE SMOOTH",
"199 249 OFFCURVE",
"303 137 OFFCURVE",
"512 137 CURVE SMOOTH",
"575 137 LINE"
);
}
);
width = 1140;
}
);
unicode = 0152;
},
{
glyphname = oe;
lastChange = "2014-11-05 03:29:27 -0500";
layers = (
{
anchors = (
{
name = top;
position = "{563, 547}";
}
);
layerId = "6B6936E6-7670-4A82-900D-EAF583C971AF";
name = Regular;
paths = (
{
closed = 1;
nodes = (
"932 391 LINE",
"931 431 OFFCURVE",
"874 508 OFFCURVE",
"784 508 CURVE SMOOTH",
"685 508 OFFCURVE",
"622 435 OFFCURVE",
"612 390 CURVE"
);
},
{
closed = 1;
nodes = (
"1022 325 LINE",
"609 325 LINE",
"617 104 OFFCURVE",
"685 91 OFFCURVE",
"804 91 CURVE SMOOTH",
"873 91 OFFCURVE",
"938 108 OFFCURVE",
"1001 142 CURVE",
"1001 28 LINE",
"937 0 OFFCURVE",
"868 -14 OFFCURVE",
"799 -14 CURVE SMOOTH",
"695 -14 OFFCURVE",
"616 22 OFFCURVE",
"563 93 CURVE",
"517 21 OFFCURVE",
"450 -14 OFFCURVE",
"358 -14 CURVE SMOOTH",
"202 -14 OFFCURVE",
"107 94 OFFCURVE",
"107 273 CURVE SMOOTH",
"107 453 OFFCURVE",
"202 560 OFFCURVE",
"358 560 CURVE SMOOTH",
"450 560 OFFCURVE",
"519 523 OFFCURVE",
"562 453 CURVE",
"613 523 OFFCURVE",
"690 560 OFFCURVE",
"783 560 CURVE SMOOTH",
"930 560 OFFCURVE",
"1022 434 OFFCURVE",
"1022 369 CURVE SMOOTH"
);
},
{
closed = 1;
nodes = (
"262 499 OFFCURVE",
"202 425 OFFCURVE",
"202 304 CURVE SMOOTH",
"202 184 OFFCURVE",
"261 110 OFFCURVE",
"358 110 CURVE SMOOTH",
"454 110 OFFCURVE",
"514 185 OFFCURVE",
"514 304 CURVE SMOOTH",
"514 423 OFFCURVE",
"454 499 OFFCURVE",
"358 499 CURVE SMOOTH"
);
}
);
width = 1126;
}
);
unicode = 0153;
},
{
glyphname = florin;
lastChange = "2014-11-05 03:29:27 -0500";
layers = (
{
layerId = "6B6936E6-7670-4A82-900D-EAF583C971AF";
name = Regular;
paths = (
{
closed = 1;
nodes = (
"684 672 LINE",
"659 691 OFFCURVE",
"634 700 OFFCURVE",
"605 700 CURVE SMOOTH",
"542 700 OFFCURVE",
"506 662 OFFCURVE",
"490 576 CURVE SMOOTH",
"461 414 LINE",
"601 424 LINE",
"601 354 LINE",
"446 344 LINE",
"414 107 LINE SMOOTH",
"371 -202 OFFCURVE",
"294 -208 OFFCURVE",
"173 -208 CURVE SMOOTH",
"136 -208 OFFCURVE",
"104 -201 OFFCURVE",
"73 -187 CURVE",
"103 -33 LINE",
"136 -54 OFFCURVE",
"167 -65 OFFCURVE",
"198 -65 CURVE SMOOTH",
"261 -65 OFFCURVE",
"293 -25 OFFCURVE",
"315 83 CURVE",
"353 344 LINE",
"232 334 LINE",
"232 404 LINE",
"368 414 LINE",
"399 575 LINE SMOOTH",
"422 694 OFFCURVE",
"489 760 OFFCURVE",
"587 760 CURVE SMOOTH",
"622 760 OFFCURVE",
"654 754 OFFCURVE",
"684 742 CURVE"
);
}
);
width = 757;
}
);
unicode = 0192;
},
{
glyphname = circumflex;
lastChange = "2014-11-05 03:29:27 -0500";
layers = (
{
anchors = (
{
name = _top;
position = "{229, 564}";
}
);
layerId = "6B6936E6-7670-4A82-900D-EAF583C971AF";
name = Regular;
paths = (
{
closed = 1;
nodes = (
"193 800 LINE",
"265 800 LINE",
"385 616 LINE",
"317 616 LINE",
"229 736 LINE",
"141 616 LINE",
"73 616 LINE"
);
}
);
width = 458;
}
);
unicode = 02C6;
},
{
glyphname = caron;
lastChange = "2014-11-05 03:29:27 -0500";
layers = (
{
anchors = (
{
name = _top;
position = "{229, 547}";
}
);
layerId = "6B6936E6-7670-4A82-900D-EAF583C971AF";
name = Regular;
paths = (
{
closed = 1;
nodes = (
"193 616 LINE",
"73 800 LINE",
"141 800 LINE",
"229 680 LINE",
"317 800 LINE",
"385 800 LINE",
"265 616 LINE"
);
}
);
width = 458;
}
);
unicode = 02C7;
},
{
glyphname = breve;
lastChange = "2014-11-05 03:29:27 -0500";
layers = (
{
anchors = (
{
name = _top;
position = "{226, 574}";
}
);
layerId = "6B6936E6-7670-4A82-900D-EAF583C971AF";
name = Regular;
paths = (
{
closed = 1;
nodes = (
"131 785 LINE",
"138 736 OFFCURVE",
"169 712 OFFCURVE",
"226 712 CURVE SMOOTH",
"282 712 OFFCURVE",
"313 736 OFFCURVE",
"321 785 CURVE",
"379 785 LINE",
"373 692 OFFCURVE",
"320 645 OFFCURVE",
"226 645 CURVE SMOOTH",
"132 645 OFFCURVE",
"80 692 OFFCURVE",
"73 785 CURVE"
);
}
);
width = 452;
}
);
unicode = 02D8;
},
{
glyphname = dotaccent;
lastChange = "2014-11-05 03:29:27 -0500";
layers = (
{
anchors = (
{
name = _top;
position = "{123, 547}";
}
);
layerId = "6B6936E6-7670-4A82-900D-EAF583C971AF";
name = Regular;
paths = (
{
closed = 1;
nodes = (
"73 758 LINE",
"173 758 LINE",
"173 658 LINE",
"73 658 LINE"
);
}
);
width = 246;
}
);
unicode = 02D9;
},
{
glyphname = ring;
lastChange = "2014-11-05 03:29:27 -0500";
layers = (
{
anchors = (
{
name = _top;
position = "{207, 547}";
}
);
layerId = "6B6936E6-7670-4A82-900D-EAF583C971AF";
name = Regular;
paths = (
{
closed = 1;
nodes = (
"281 785 OFFCURVE",
"249 818 OFFCURVE",
"207 818 CURVE SMOOTH",
"165 818 OFFCURVE",
"133 786 OFFCURVE",
"133 744 CURVE SMOOTH",
"133 702 OFFCURVE",
"165 670 OFFCURVE",
"207 670 CURVE SMOOTH",
"249 670 OFFCURVE",
"281 703 OFFCURVE",
"281 744 CURVE SMOOTH"
);
},
{
closed = 1;
nodes = (
"341 669 OFFCURVE",
"282 610 OFFCURVE",
"207 610 CURVE SMOOTH",
"132 610 OFFCURVE",
"73 669 OFFCURVE",
"73 744 CURVE SMOOTH",
"73 819 OFFCURVE",
"132 878 OFFCURVE",
"207 878 CURVE SMOOTH",
"282 878 OFFCURVE",
"341 819 OFFCURVE",
"341 744 CURVE SMOOTH"
);
}
);
width = 414;
}
);
unicode = 02DA;
},
{
glyphname = ogonek;
lastChange = "2014-11-05 03:29:27 -0500";
layers = (
{
anchors = (
{
name = _ogonek;
position = "{151, 0}";
}
);
layerId = "6B6936E6-7670-4A82-900D-EAF583C971AF";
name = Regular;
paths = (
{
closed = 1;
nodes = (
"184 0 LINE",
"155 -40 OFFCURVE",
"141 -68 OFFCURVE",
"141 -88 CURVE SMOOTH",
"141 -118 OFFCURVE",
"159 -133 OFFCURVE",
"194 -133 CURVE SMOOTH",
"215 -133 OFFCURVE",
"235 -128 OFFCURVE",
"255 -118 CURVE",
"255 -183 LINE",
"230 -189 OFFCURVE",
"208 -193 OFFCURVE",
"189 -193 CURVE SMOOTH",
"109 -193 OFFCURVE",
"73 -166 OFFCURVE",
"73 -105 CURVE SMOOTH",
"73 -74 OFFCURVE",
"90 -41 OFFCURVE",
"126 0 CURVE"
);
}
);
width = 329;
}
);
unicode = 02DB;
},
{
glyphname = tilde;
lastChange = "2014-11-05 03:29:27 -0500";
layers = (
{
anchors = (
{
name = _top;
position = "{234, 400}";
}
);
layerId = "6B6936E6-7670-4A82-900D-EAF583C971AF";
name = Regular;
paths = (
{
closed = 1;
nodes = (
"205 696 LINE SMOOTH",
"190 709 OFFCURVE",
"180 715 OFFCURVE",
"171 715 CURVE SMOOTH",
"159 715 OFFCURVE",
"150 709 OFFCURVE",
"144 697 CURVE SMOOTH",
"138 685 OFFCURVE",
"135 666 OFFCURVE",
"134 639 CURVE",
"73 639 LINE",
"75 727 OFFCURVE",
"109 777 OFFCURVE",
"168 777 CURVE SMOOTH",
"193 777 OFFCURVE",
"212 769 OFFCURVE",
"236 747 CURVE",
"264 720 LINE SMOOTH",
"278 707 OFFCURVE",
"289 701 OFFCURVE",
"297 701 CURVE SMOOTH",
"310 701 OFFCURVE",
"319 707 OFFCURVE",
"325 719 CURVE SMOOTH",
"331 731 OFFCURVE",
"334 750 OFFCURVE",
"334 777 CURVE",
"396 777 LINE",
"394 689 OFFCURVE",
"359 639 OFFCURVE",
"300 639 CURVE SMOOTH",
"275 639 OFFCURVE",
"256 647 OFFCURVE",
"232 669 CURVE"
);
}
);
width = 469;
}
);
unicode = 02DC;
},
{
glyphname = hungarumlaut;
lastChange = "2014-11-05 03:29:27 -0500";
layers = (
{
anchors = (
{
name = _top;
position = "{245, 547}";
}
);
layerId = "6B6936E6-7670-4A82-900D-EAF583C971AF";
name = Regular;
paths = (
{
closed = 1;
nodes = (
"329 800 LINE",
"416 800 LINE",
"295 616 LINE",
"229 616 LINE"
);
},
{
closed = 1;
nodes = (
"166 800 LINE",
"249 800 LINE",
"140 616 LINE",
"73 616 LINE"
);
}
);
width = 489;
}
);
unicode = 02DD;
},
{
glyphname = pi;
lastChange = "2014-11-05 03:29:27 -0500";
layers = (
{
layerId = "6B6936E6-7670-4A82-900D-EAF583C971AF";
name = Regular;
paths = (
{
closed = 1;
nodes = (
"654 451 LINE",
"565 451 LINE",
"514 208 LINE SMOOTH",
"509 184 OFFCURVE",
"506 165 OFFCURVE",
"503 149 CURVE SMOOTH",
"501 134 OFFCURVE",
"500 124 OFFCURVE",
"500 116 CURVE SMOOTH",
"500 79 OFFCURVE",
"514 64 OFFCURVE",
"549 64 CURVE SMOOTH",
"561 64 OFFCURVE",
"574 65 OFFCURVE",
"598 69 CURVE",
"583 -34 LINE",
"564 -40 OFFCURVE",
"546 -42 OFFCURVE",
"529 -42 CURVE SMOOTH",
"453 -42 OFFCURVE",
"388 26 OFFCURVE",
"388 91 CURVE SMOOTH",
"388 106 OFFCURVE",
"390 125 OFFCURVE",
"394 148 CURVE SMOOTH",
"397 172 OFFCURVE",
"407 210 OFFCURVE",
"425 262 CURVE",
"479 451 LINE",
"319 451 LINE",
"239 0 LINE",
"97 0 LINE",
"231 451 LINE",
"211 451 LINE SMOOTH",
"176 451 OFFCURVE",
"157 432 OFFCURVE",
"151 381 CURVE",
"73 381 LINE",
"91 489 OFFCURVE",
"130 523 OFFCURVE",
"237 523 CURVE SMOOTH",
"671 523 LINE"
);
}
);
width = 745;
}
);
unicode = 03C0;
},
{
glyphname = endash;
lastChange = "2014-11-05 03:29:27 -0500";
layers = (
{
layerId = "6B6936E6-7670-4A82-900D-EAF583C971AF";
name = Regular;
paths = (
{
closed = 1;
nodes = (
"73 309 LINE",
"573 309 LINE",
"573 239 LINE",
"73 239 LINE"
);
}
);
width = 646;
}
);
unicode = 2013;
},
{
glyphname = emdash;
lastChange = "2014-11-05 03:29:27 -0500";
layers = (
{
layerId = "6B6936E6-7670-4A82-900D-EAF583C971AF";
name = Regular;
paths = (
{
closed = 1;
nodes = (
"73 309 LINE",
"1073 309 LINE",
"1073 239 LINE",
"73 239 LINE"
);
}
);
width = 1146;
}
);
unicode = 2014;
},
{
glyphname = quoteleft;
lastChange = "2014-11-05 03:29:27 -0500";
layers = (
{
layerId = "6B6936E6-7670-4A82-900D-EAF583C971AF";
name = Regular;
paths = (
{
closed = 1;
nodes = (
"200 446 LINE",
"73 446 LINE",
"73 550 LINE",
"171 742 LINE",
"249 742 LINE",
"200 550 LINE"
);
}
);
width = 302;
}
);
unicode = 2018;
},
{
glyphname = quoteright;
lastChange = "2014-11-05 03:29:27 -0500";
layers = (
{
anchors = (
{
name = _caron;
position = "{120, 429}";
}
);
layerId = "6B6936E6-7670-4A82-900D-EAF583C971AF";
name = Regular;
paths = (
{
closed = 1;
nodes = (
"122 737 LINE",
"247 737 LINE",
"247 647 LINE",
"149 458 LINE",
"73 458 LINE",
"122 647 LINE"
);
}
);
width = 288;
}
);
unicode = 2019;
},
{
glyphname = quotesinglbase;
lastChange = "2014-11-05 03:29:27 -0500";
layers = (
{
layerId = "6B6936E6-7670-4A82-900D-EAF583C971AF";
name = Regular;
paths = (
{
closed = 1;
nodes = (
"113 124 LINE",
"216 124 LINE",
"216 40 LINE",
"136 -116 LINE",
"73 -116 LINE",
"113 40 LINE"
);
}
);
width = 290;
}
);
unicode = 201A;
},
{
glyphname = quotedblleft;
lastChange = "2014-11-05 03:29:27 -0500";
layers = (
{
layerId = "6B6936E6-7670-4A82-900D-EAF583C971AF";
name = Regular;
paths = (
{
closed = 1;
nodes = (
"201 430 LINE",
"73 430 LINE",
"73 535 LINE",
"173 729 LINE",
"251 729 LINE",
"201 535 LINE"
);
},
{
closed = 1;
nodes = (
"450 430 LINE",
"322 430 LINE",
"322 535 LINE",
"422 729 LINE",
"500 729 LINE",
"450 535 LINE"
);
}
);
width = 573;
}
);
unicode = 201C;
},
{
glyphname = quotedblright;
lastChange = "2014-11-05 03:29:27 -0500";
layers = (
{
layerId = "6B6936E6-7670-4A82-900D-EAF583C971AF";
name = Regular;
paths = (
{
closed = 1;
nodes = (
"120 729 LINE",
"240 729 LINE",
"240 631 LINE",
"146 450 LINE",
"73 450 LINE",
"120 631 LINE"
);
},
{
closed = 1;
nodes = (
"353 729 LINE",
"472 729 LINE",
"472 631 LINE",
"379 450 LINE",
"306 450 LINE",
"353 631 LINE"
);
}
);
width = 545;
}
);
unicode = 201D;
},
{
glyphname = quotedblbase;
lastChange = "2014-11-05 03:29:27 -0500";
layers = (
{
layerId = "6B6936E6-7670-4A82-900D-EAF583C971AF";
name = Regular;
paths = (
{
closed = 1;
nodes = (
"375 186 LINE",
"504 186 LINE",
"504 80 LINE",
"404 -116 LINE",
"325 -116 LINE",
"375 80 LINE"
);
},
{
closed = 1;
nodes = (
"124 186 LINE",
"253 186 LINE",
"253 80 LINE",
"152 -116 LINE",
"73 -116 LINE",
"124 80 LINE"
);
}
);
width = 578;
}
);
unicode = 201E;
},
{
glyphname = dagger;
lastChange = "2014-11-05 03:29:27 -0500";
layers = (
{
layerId = "6B6936E6-7670-4A82-900D-EAF583C971AF";
name = Regular;
paths = (
{
closed = 1;
nodes = (
"252 729 LINE",
"338 729 LINE",
"338 524 LINE",
"518 524 LINE",
"518 449 LINE",
"338 449 LINE",
"338 -96 LINE",
"252 -96 LINE",
"252 449 LINE",
"73 449 LINE",
"73 524 LINE",
"252 524 LINE"
);
}
);
width = 591;
}
);
unicode = 2020;
},
{
glyphname = daggerdbl;
lastChange = "2014-11-05 03:29:27 -0500";
layers = (
{
layerId = "6B6936E6-7670-4A82-900D-EAF583C971AF";
name = Regular;
paths = (
{
closed = 1;
nodes = (
"518 75 LINE",
"358 75 LINE",
"368 -96 LINE",
"223 -96 LINE",
"233 75 LINE",
"73 75 LINE",
"73 184 LINE",
"243 184 LINE",
"252 449 LINE",
"73 449 LINE",
"73 524 LINE",
"252 524 LINE",
"252 729 LINE",
"338 729 LINE",
"338 524 LINE",
"518 524 LINE",
"518 449 LINE",
"338 449 LINE",
"348 184 LINE",
"518 184 LINE"
);
}
);
width = 591;
}
);
unicode = 2021;
},
{
glyphname = bullet;
lastChange = "2014-11-05 03:29:27 -0500";
layers = (
{
layerId = "6B6936E6-7670-4A82-900D-EAF583C971AF";
name = Regular;
paths = (
{
closed = 1;
nodes = (
"73 453 OFFCURVE",
"137 516 OFFCURVE",
"219 516 CURVE SMOOTH",
"300 516 OFFCURVE",
"363 453 OFFCURVE",
"363 372 CURVE SMOOTH",
"363 291 OFFCURVE",
"300 227 OFFCURVE",
"218 227 CURVE SMOOTH",
"137 227 OFFCURVE",
"73 291 OFFCURVE",
"73 372 CURVE SMOOTH"
);
}
);
width = 437;
}
);
unicode = 2022;
},
{
glyphname = ellipsis;
lastChange = "2014-11-05 03:29:27 -0500";
layers = (
{
layerId = "6B6936E6-7670-4A82-900D-EAF583C971AF";
name = Regular;
paths = (
{
closed = 1;
nodes = (
"406 178 LINE",
"563 178 LINE",
"563 0 LINE",
"406 0 LINE"
);
},
{
closed = 1;
nodes = (
"739 178 LINE",
"896 178 LINE",
"896 0 LINE",
"739 0 LINE"
);
},
{
closed = 1;
nodes = (
"73 178 LINE",
"231 178 LINE",
"231 0 LINE",
"73 0 LINE"
);
}
);
width = 970;
}
);
unicode = 2026;
},
{
glyphname = perthousand;
lastChange = "2014-11-05 03:29:27 -0500";
layers = (
{
layerId = "6B6936E6-7670-4A82-900D-EAF583C971AF";
name = Regular;
paths = (
{
closed = 1;
nodes = (
"1081 321 OFFCURVE",
"1046 284 OFFCURVE",
"1046 223 CURVE SMOOTH",
"1046 163 OFFCURVE",
"1081 125 OFFCURVE",
"1137 125 CURVE SMOOTH",
"1192 125 OFFCURVE",
"1227 163 OFFCURVE",
"1227 223 CURVE SMOOTH",
"1227 284 OFFCURVE",
"1192 321 OFFCURVE",
"1137 321 CURVE SMOOTH"
);
},
{
closed = 1;
nodes = (
"1240 383 OFFCURVE",
"1305 306 OFFCURVE",
"1305 184 CURVE SMOOTH",
"1305 63 OFFCURVE",
"1239 -14 OFFCURVE",
"1137 -14 CURVE SMOOTH",
"1033 -14 OFFCURVE",
"968 63 OFFCURVE",
"968 184 CURVE SMOOTH",
"968 307 OFFCURVE",
"1034 383 OFFCURVE",
"1137 383 CURVE SMOOTH"
);
},
{
closed = 1;
nodes = (
"344 742 OFFCURVE",
"410 666 OFFCURVE",
"410 544 CURVE SMOOTH",
"410 421 OFFCURVE",
"345 345 OFFCURVE",
"241 345 CURVE SMOOTH",
"138 345 OFFCURVE",
"73 421 OFFCURVE",
"73 544 CURVE SMOOTH",
"73 665 OFFCURVE",
"138 742 OFFCURVE",
"241 742 CURVE SMOOTH"
);
},
{
closed = 1;
nodes = (
"682 742 LINE",
"760 742 LINE",
"304 -14 LINE",
"192 -14 LINE"
);
},
{
closed = 1;
nodes = (
"185 680 OFFCURVE",
"151 640 OFFCURVE",
"151 574 CURVE SMOOTH",
"151 507 OFFCURVE",
"185 467 OFFCURVE",
"241 467 CURVE SMOOTH",
"298 467 OFFCURVE",
"332 507 OFFCURVE",
"332 574 CURVE SMOOTH",
"332 640 OFFCURVE",
"297 680 OFFCURVE",
"241 680 CURVE SMOOTH"
);
},
{
closed = 1;
nodes = (
"848 383 OFFCURVE",
"913 306 OFFCURVE",
"913 184 CURVE SMOOTH",
"913 63 OFFCURVE",
"847 -14 OFFCURVE",
"745 -14 CURVE SMOOTH",
"641 -14 OFFCURVE",
"576 63 OFFCURVE",
"576 184 CURVE SMOOTH",
"576 307 OFFCURVE",
"642 383 OFFCURVE",
"745 383 CURVE SMOOTH"
);
},
{
closed = 1;
nodes = (
"688 321 OFFCURVE",
"654 284 OFFCURVE",
"654 223 CURVE SMOOTH",
"654 163 OFFCURVE",
"688 125 OFFCURVE",
"745 125 CURVE SMOOTH",
"800 125 OFFCURVE",
"835 163 OFFCURVE",
"835 223 CURVE SMOOTH",
"835 284 OFFCURVE",
"800 321 OFFCURVE",
"745 321 CURVE SMOOTH"
);
}
);
width = 1378;
}
);
unicode = 2030;
},
{
glyphname = guilsinglleft;
lastChange = "2014-11-05 03:29:27 -0500";
layers = (
{
layerId = "6B6936E6-7670-4A82-900D-EAF583C971AF";
name = Regular;
paths = (
{
closed = 1;
nodes = (
"302 517 LINE",
"302 424 LINE",
"155 293 LINE",
"302 162 LINE",
"302 69 LINE",
"73 273 LINE",
"73 313 LINE"
);
}
);
width = 375;
}
);
unicode = 2039;
},
{
glyphname = guilsinglright;
lastChange = "2014-11-05 03:29:27 -0500";
layers = (
{
layerId = "6B6936E6-7670-4A82-900D-EAF583C971AF";
name = Regular;
paths = (
{
closed = 1;
nodes = (
"73 517 LINE",
"302 313 LINE",
"302 273 LINE",
"73 69 LINE",
"73 162 LINE",
"220 293 LINE",
"73 424 LINE"
);
}
);
width = 375;
}
);
unicode = 203A;
},
{
glyphname = fraction;
lastChange = "2014-11-05 03:29:27 -0500";
layers = (
{
layerId = "6B6936E6-7670-4A82-900D-EAF583C971AF";
name = Regular;
paths = (
{
closed = 1;
nodes = (
"528 742 LINE",
"606 742 LINE",
"151 -14 LINE",
"73 -14 LINE"
);
}
);
width = 680;
}
);
unicode = 2044;
},
{
glyphname = trademark;
lastChange = "2014-11-05 03:29:27 -0500";
layers = (
{
layerId = "6B6936E6-7670-4A82-900D-EAF583C971AF";
name = Regular;
paths = (
{
closed = 1;
nodes = (
"470 729 LINE",
"550 570 LINE",
"635 729 LINE",
"718 729 LINE",
"728 447 LINE",
"644 447 LINE",
"658 683 LINE",
"573 472 LINE",
"526 472 LINE",
"437 683 LINE",
"452 447 LINE",
"367 447 LINE",
"386 729 LINE"
);
},
{
closed = 1;
nodes = (
"326 729 LINE",
"326 683 LINE",
"227 683 LINE",
"242 447 LINE",
"157 447 LINE",
"171 683 LINE",
"73 683 LINE",
"73 729 LINE"
);
}
);
width = 801;
}
);
unicode = 2122;
},
{
glyphname = Omega;
lastChange = "2014-11-05 03:29:27 -0500";
layers = (
{
anchors = (
{
name = topleft;
position = "{-16, 729}";
}
);
layerId = "6B6936E6-7670-4A82-900D-EAF583C971AF";
name = Regular;
paths = (
{
closed = 1;
nodes = (
"761 116 LINE",
"761 0 LINE",
"468 0 LINE",
"468 116 LINE",
"583 153 OFFCURVE",
"651 264 OFFCURVE",
"651 395 CURVE SMOOTH",
"651 584 OFFCURVE",
"558 678 OFFCURVE",
"417 678 CURVE SMOOTH",
"276 678 OFFCURVE",
"182 583 OFFCURVE",
"182 395 CURVE SMOOTH",
"182 264 OFFCURVE",
"250 153 OFFCURVE",
"366 116 CURVE",
"366 0 LINE",
"73 0 LINE",
"73 116 LINE",
"229 116 LINE",
"126 207 OFFCURVE",
"81 271 OFFCURVE",
"81 390 CURVE SMOOTH",
"81 597 OFFCURVE",
"218 738 OFFCURVE",
"417 738 CURVE SMOOTH",
"614 738 OFFCURVE",
"753 596 OFFCURVE",
"753 395 CURVE SMOOTH",
"753 269 OFFCURVE",
"710 208 OFFCURVE",
"605 116 CURVE"
);
}
);
width = 834;
}
);
unicode = 2126;
},
{
glyphname = partialdiff;
lastChange = "2014-11-05 03:29:27 -0500";
layers = (
{
layerId = "6B6936E6-7670-4A82-900D-EAF583C971AF";
name = Regular;
paths = (
{
closed = 1;
nodes = (
"401 360 OFFCURVE",
"406 413 OFFCURVE",
"406 462 CURVE SMOOTH",
"406 546 OFFCURVE",
"382 589 OFFCURVE",
"335 589 CURVE",
"275 585 OFFCURVE",
"242 578 OFFCURVE",
"237 565 CURVE SMOOTH",
"231 553 OFFCURVE",
"223 547 OFFCURVE",
"211 547 CURVE SMOOTH",
"188 547 OFFCURVE",
"180 549 OFFCURVE",
"180 569 CURVE SMOOTH",
"180 609 OFFCURVE",
"233 647 OFFCURVE",
"299 647 CURVE SMOOTH",
"417 647 OFFCURVE",
"492 539 OFFCURVE",
"492 367 CURVE SMOOTH",
"492 149 OFFCURVE",
"385 -12 OFFCURVE",
"247 -12 CURVE SMOOTH",
"147 -12 OFFCURVE",
"73 67 OFFCURVE",
"73 173 CURVE SMOOTH",
"73 302 OFFCURVE",
"155 395 OFFCURVE",
"260 395 CURVE SMOOTH",
"326 395 OFFCURVE",
"367 366 OFFCURVE",
"392 303 CURVE"
);
},
{
closed = 1;
nodes = (
"349 327 OFFCURVE",
"316 363 OFFCURVE",
"259 363 CURVE SMOOTH",
"181 363 OFFCURVE",
"124 284 OFFCURVE",
"124 169 CURVE SMOOTH",
"124 104 OFFCURVE",
"156 69 OFFCURVE",
"214 69 CURVE SMOOTH",
"292 69 OFFCURVE",
"349 149 OFFCURVE",
"349 263 CURVE SMOOTH"
);
}
);
width = 565;
}
);
unicode = 2202;
},
{
glyphname = Delta;
lastChange = "2014-11-05 03:29:27 -0500";
layers = (
{
layerId = "6B6936E6-7670-4A82-900D-EAF583C971AF";
name = Regular;
paths = (
{
closed = 1;
nodes = (
"410 675 LINE",
"206 146 LINE",
"614 146 LINE"
);
},
{
closed = 1;
nodes = (
"356 719 LINE",
"465 719 LINE",
"748 0 LINE",
"73 0 LINE"
);
}
);
width = 821;
}
);
unicode = 2206;
},
{
glyphname = product;
lastChange = "2014-11-05 03:29:27 -0500";
layers = (
{
layerId = "6B6936E6-7670-4A82-900D-EAF583C971AF";
name = Regular;
paths = (
{
closed = 1;
nodes = (
"63 719 LINE",
"667 719 LINE",
"711 -192 LINE",
"560 -192 LINE",
"550 619 LINE",
"180 619 LINE",
"224 -192 LINE",
"73 -192 LINE"
);
}
);
width = 750;
}
);
unicode = 220F;
},
{
glyphname = summation;
lastChange = "2014-11-05 03:29:27 -0500";
layers = (
{
layerId = "6B6936E6-7670-4A82-900D-EAF583C971AF";
name = Regular;
paths = (
{
closed = 1;
nodes = (
"88 719 LINE",
"702 719 LINE",
"702 645 LINE",
"234 645 LINE",
"660 275 LINE",
"223 -59 LINE",
"715 -59 LINE",
"715 -192 LINE",
"73 -192 LINE",
"73 -80 LINE",
"525 272 LINE",
"88 652 LINE"
);
}
);
width = 788;
}
);
unicode = 2211;
},
{
glyphname = minus;
lastChange = "2014-11-05 03:29:27 -0500";
layers = (
{
layerId = "6B6936E6-7670-4A82-900D-EAF583C971AF";
name = Regular;
paths = (
{
closed = 1;
nodes = (
"73 355 LINE",
"699 355 LINE",
"699 272 LINE",
"73 272 LINE"
);
}
);
width = 772;
}
);
unicode = 2212;
},
{
glyphname = middot.001;
lastChange = "2014-11-05 03:29:27 -0500";
layers = (
{
layerId = "6B6936E6-7670-4A82-900D-EAF583C971AF";
name = Regular;
paths = (
{
closed = 1;
nodes = (
"73 445 LINE",
"206 445 LINE",
"206 285 LINE",
"73 285 LINE"
);
}
);
width = 279;
}
);
unicode = 2219;
},
{
glyphname = radical;
lastChange = "2014-11-05 03:29:27 -0500";
layers = (
{
layerId = "6B6936E6-7670-4A82-900D-EAF583C971AF";
name = Regular;
paths = (
{
closed = 1;
nodes = (
"588 811 LINE",
"681 811 LINE",
"681 764 LINE",
"625 764 LINE",
"334 -20 LINE",
"302 -20 LINE",
"146 411 LINE",
"85 389 LINE",
"73 428 LINE",
"211 476 LINE",
"336 130 LINE"
);
}
);
width = 754;
}
);
unicode = 221A;
},
{
glyphname = infinity;
lastChange = "2014-11-05 03:29:27 -0500";
layers = (
{
layerId = "6B6936E6-7670-4A82-900D-EAF583C971AF";
name = Regular;
paths = (
{
closed = 1;
nodes = (
"444 260 OFFCURVE",
"488 230 OFFCURVE",
"542 230 CURVE SMOOTH",
"608 230 OFFCURVE",
"654 279 OFFCURVE",
"654 347 CURVE SMOOTH",
"654 413 OFFCURVE",
"611 462 OFFCURVE",
"553 462 CURVE SMOOTH",
"500 462 OFFCURVE",
"460 422 OFFCURVE",
"412 317 CURVE"
);
},
{
closed = 1;
nodes = (
"321 373 OFFCURVE",
"277 445 OFFCURVE",
"222 445 CURVE SMOOTH",
"156 445 OFFCURVE",
"110 398 OFFCURVE",
"110 329 CURVE SMOOTH",
"110 263 OFFCURVE",
"153 214 OFFCURVE",
"211 214 CURVE SMOOTH",
"265 214 OFFCURVE",
"305 210 OFFCURVE",
"353 315 CURVE"
);
},
{
closed = 1;
nodes = (
"342 148 OFFCURVE",
"292 108 OFFCURVE",
"230 108 CURVE SMOOTH",
"142 108 OFFCURVE",
"73 190 OFFCURVE",
"73 298 CURVE SMOOTH",
"73 412 OFFCURVE",
"133 489 OFFCURVE",
"220 489 CURVE SMOOTH",
"282 489 OFFCURVE",
"330 450 OFFCURVE",
"376 360 CURVE",
"421 450 OFFCURVE",
"471 491 OFFCURVE",
"534 491 CURVE SMOOTH",
"622 491 OFFCURVE",
"691 409 OFFCURVE",
"691 300 CURVE SMOOTH",
"691 186 OFFCURVE",
"632 110 OFFCURVE",
"544 110 CURVE SMOOTH",
"483 110 OFFCURVE",
"438 146 OFFCURVE",
"387 236 CURVE"
);
}
);
width = 765;
}
);
unicode = 221E;
},
{
glyphname = integral;
lastChange = "2014-11-05 03:29:27 -0500";
layers = (
{
layerId = "6B6936E6-7670-4A82-900D-EAF583C971AF";
name = Regular;
paths = (
{
closed = 1;
nodes = (
"237 -128 OFFCURVE",
"256 -16 OFFCURVE",
"261 208 CURVE SMOOTH",
"261 243 OFFCURVE",
"262 270 OFFCURVE",
"262 289 CURVE SMOOTH",
"266 456 OFFCURVE",
"284 576 OFFCURVE",
"314 648 CURVE SMOOTH",
"345 721 OFFCURVE",
"394 757 OFFCURVE",
"459 757 CURVE SMOOTH",
"512 757 OFFCURVE",
"547 727 OFFCURVE",
"547 684 CURVE SMOOTH",
"547 649 OFFCURVE",
"525 627 OFFCURVE",
"489 627 CURVE SMOOTH",
"462 627 OFFCURVE",
"443 640 OFFCURVE",
"436 663 CURVE",
"434 667 OFFCURVE",
"432 676 OFFCURVE",
"431 688 CURVE SMOOTH",
"429 699 OFFCURVE",
"426 705 OFFCURVE",
"420 705 CURVE SMOOTH",
"386 705 OFFCURVE",
"366 604 OFFCURVE",
"361 403 CURVE SMOOTH",
"360 340 OFFCURVE",
"359 291 OFFCURVE",
"357 255 CURVE SMOOTH",
"352 99 OFFCURVE",
"334 -13 OFFCURVE",
"303 -80 CURVE SMOOTH",
"272 -147 OFFCURVE",
"225 -181 OFFCURVE",
"161 -181 CURVE SMOOTH",
"110 -181 OFFCURVE",
"73 -151 OFFCURVE",
"73 -109 CURVE SMOOTH",
"73 -72 OFFCURVE",
"97 -51 OFFCURVE",
"136 -51 CURVE SMOOTH",
"158 -51 OFFCURVE",
"173 -61 OFFCURVE",
"183 -79 CURVE SMOOTH",
"187 -84 OFFCURVE",
"189 -94 OFFCURVE",
"190 -107 CURVE SMOOTH",
"192 -121 OFFCURVE",
"196 -128 OFFCURVE",
"202 -128 CURVE SMOOTH"
);
}
);
width = 621;
}
);
unicode = 222B;
},
{
glyphname = approxequal;
lastChange = "2014-11-05 03:29:27 -0500";
layers = (
{
layerId = "6B6936E6-7670-4A82-900D-EAF583C971AF";
name = Regular;
paths = (
{
closed = 1;
nodes = (
"699 217 LINE",
"631 166 OFFCURVE",
"576 145 OFFCURVE",
"513 145 CURVE SMOOTH",
"478 145 OFFCURVE",
"436 155 OFFCURVE",
"388 174 CURVE SMOOTH",
"385 175 OFFCURVE",
"382 176 OFFCURVE",
"380 177 CURVE",
"378 178 OFFCURVE",
"375 179 OFFCURVE",
"370 181 CURVE",
"319 204 OFFCURVE",
"279 216 OFFCURVE",
"248 216 CURVE SMOOTH",
"191 216 OFFCURVE",
"137 192 OFFCURVE",
"73 138 CURVE",
"73 225 LINE",
"142 276 OFFCURVE",
"196 297 OFFCURVE",
"259 297 CURVE",
"295 293 OFFCURVE",
"337 282 OFFCURVE",
"385 263 CURVE SMOOTH",
"388 262 OFFCURVE",
"391 260 OFFCURVE",
"393 260 CURVE",
"395 259 OFFCURVE",
"398 258 OFFCURVE",
"403 256 CURVE SMOOTH",
"453 236 OFFCURVE",
"494 226 OFFCURVE",
"524 226 CURVE SMOOTH",
"581 226 OFFCURVE",
"632 249 OFFCURVE",
"699 304 CURVE"
);
},
{
closed = 1;
nodes = (
"699 407 LINE",
"631 356 OFFCURVE",
"576 335 OFFCURVE",
"513 335 CURVE SMOOTH",
"478 335 OFFCURVE",
"436 345 OFFCURVE",
"388 364 CURVE SMOOTH",
"385 365 OFFCURVE",
"382 366 OFFCURVE",
"380 367 CURVE",
"378 368 OFFCURVE",
"375 369 OFFCURVE",
"370 371 CURVE",
"319 394 OFFCURVE",
"279 406 OFFCURVE",
"248 406 CURVE SMOOTH",
"191 406 OFFCURVE",
"137 382 OFFCURVE",
"73 328 CURVE",
"73 415 LINE",
"142 466 OFFCURVE",
"196 487 OFFCURVE",
"259 487 CURVE",
"295 483 OFFCURVE",
"337 472 OFFCURVE",
"385 453 CURVE SMOOTH",
"388 452 OFFCURVE",
"391 451 OFFCURVE",
"392 450 CURVE",
"395 449 OFFCURVE",
"398 448 OFFCURVE",
"403 446 CURVE SMOOTH",
"453 426 OFFCURVE",
"494 416 OFFCURVE",
"524 416 CURVE SMOOTH",
"581 416 OFFCURVE",
"632 439 OFFCURVE",
"699 494 CURVE"
);
}
);
width = 772;
}
);
unicode = 2248;
},
{
glyphname = notequal;
lastChange = "2014-11-05 03:29:27 -0500";
layers = (
{
layerId = "6B6936E6-7670-4A82-900D-EAF583C971AF";
name = Regular;
paths = (
{
closed = 1;
nodes = (
"73 454 LINE",
"450 454 LINE",
"575 608 LINE",
"636 558 LINE",
"551 454 LINE",
"699 454 LINE",
"699 372 LINE",
"484 372 LINE",
"389 255 LINE",
"699 255 LINE",
"699 172 LINE",
"321 172 LINE",
"195 19 LINE",
"134 69 LINE",
"219 172 LINE",
"73 172 LINE",
"73 255 LINE",
"287 255 LINE",
"382 372 LINE",
"73 372 LINE"
);
}
);
width = 772;
}
);
unicode = 2260;
},
{
glyphname = lessequal;
lastChange = "2014-11-05 03:29:27 -0500";
layers = (
{
layerId = "6B6936E6-7670-4A82-900D-EAF583C971AF";
name = Regular;
paths = (
{
closed = 1;
nodes = (
"699 496 LINE",
"230 361 LINE",
"699 227 LINE",
"699 140 LINE",
"73 320 LINE",
"73 403 LINE",
"699 582 LINE"
);
},
{
closed = 1;
nodes = (
"73 83 LINE",
"699 83 LINE",
"699 0 LINE",
"73 0 LINE"
);
}
);
width = 772;
}
);
unicode = 2264;
},
{
glyphname = greaterequal;
lastChange = "2014-11-05 03:29:27 -0500";
layers = (
{
layerId = "6B6936E6-7670-4A82-900D-EAF583C971AF";
name = Regular;
paths = (
{
closed = 1;
nodes = (
"73 496 LINE",
"73 582 LINE",
"699 403 LINE",
"699 320 LINE",
"73 140 LINE",
"73 227 LINE",
"542 361 LINE"
);
},
{
closed = 1;
nodes = (
"699 83 LINE",
"699 0 LINE",
"73 0 LINE",
"73 83 LINE"
);
}
);
width = 772;
}
);
unicode = 2265;
},
{
glyphname = lozenge;
lastChange = "2014-11-05 03:29:27 -0500";
layers = (
{
layerId = "6B6936E6-7670-4A82-900D-EAF583C971AF";
name = Regular;
paths = (
{
closed = 1;
nodes = (
"317 688 LINE",
"129 289 LINE",
"317 13 LINE",
"505 289 LINE"
);
},
{
closed = 1;
nodes = (
"317 807 LINE",
"562 289 LINE",
"317 -233 LINE",
"73 289 LINE"
);
}
);
width = 635;
}
);
unicode = 25CA;
},
{
glyphname = fi;
lastChange = "2014-11-05 03:29:27 -0500";
layers = (
{
layerId = "6B6936E6-7670-4A82-900D-EAF583C971AF";
name = Regular;
paths = (
{
closed = 1;
nodes = (
"591 547 LINE",
"606 0 LINE",
"491 0 LINE",
"501 482 LINE",
"254 482 LINE",
"269 0 LINE",
"149 0 LINE",
"159 482 LINE",
"73 482 LINE",
"73 547 LINE",
"159 547 LINE",
"159 585 LINE SMOOTH",
"159 704 OFFCURVE",
"219 755 OFFCURVE",
"336 774 CURVE",
"426 784 LINE",
"426 709 LINE",
"340 690 LINE",
"276 690 OFFCURVE",
"254 650 OFFCURVE",
"254 595 CURVE SMOOTH",
"254 547 LINE"
);
},
{
closed = 1;
nodes = (
"501 759 LINE",
"591 759 LINE",
"591 645 LINE",
"501 645 LINE"
);
}
);
width = 679;
}
);
unicode = FB01;
},
{
glyphname = fl;
lastChange = "2014-11-05 03:29:27 -0500";
layers = (
{
layerId = "6B6936E6-7670-4A82-900D-EAF583C971AF";
name = Regular;
paths = (
{
closed = 1;
nodes = (
"586 760 LINE",
"586 102 LINE",
"640 103 LINE",
"641 0 LINE",
"496 0 LINE",
"496 695 LINE",
"335 695 LINE SMOOTH",
"271 695 OFFCURVE",
"250 673 OFFCURVE",
"250 605 CURVE",
"254 547 LINE",
"397 547 LINE",
"397 477 LINE",
"254 477 LINE",
"284 0 LINE",
"140 0 LINE",
"154 477 LINE",
"73 477 LINE",
"73 547 LINE",
"154 547 LINE",
"159 585 LINE",
"159 707 OFFCURVE",
"213 760 OFFCURVE",
"336 760 CURVE SMOOTH"
);
}
);
width = 714;
}
);
unicode = FB02;
},
{
glyphname = c6459;
lastChange = "2014-11-05 03:29:27 -0500";
layers = (
{
layerId = "6B6936E6-7670-4A82-900D-EAF583C971AF";
name = Regular;
paths = (
{
closed = 1;
nodes = (
"264 731 LINE",
"363 731 LINE",
"363 632 LINE",
"264 632 LINE"
);
},
{
closed = 1;
nodes = (
"73 731 LINE",
"172 731 LINE",
"172 632 LINE",
"73 632 LINE"
);
}
);
width = 437;
}
);
},
{
glyphname = c6460;
lastChange = "2014-11-05 03:29:27 -0500";
layers = (
{
layerId = "6B6936E6-7670-4A82-900D-EAF583C971AF";
name = Regular;
paths = (
{
closed = 1;
nodes = (
"169 745 LINE",
"259 745 LINE",
"148 616 LINE",
"73 616 LINE"
);
}
);
width = 333;
}
);
},
{
glyphname = c6461;
lastChange = "2014-11-05 03:29:27 -0500";
layers = (
{
layerId = "6B6936E6-7670-4A82-900D-EAF583C971AF";
name = Regular;
paths = (
{
closed = 1;
nodes = (
"205 669 LINE SMOOTH",
"188 678 OFFCURVE",
"179 681 OFFCURVE",
"171 681 CURVE SMOOTH",
"148 681 OFFCURVE",
"134 664 OFFCURVE",
"134 635 CURVE SMOOTH",
"134 632 LINE",
"73 632 LINE",
"73 698 OFFCURVE",
"109 739 OFFCURVE",
"166 739 CURVE SMOOTH",
"189 739 OFFCURVE",
"205 735 OFFCURVE",
"236 718 CURVE SMOOTH",
"264 703 LINE SMOOTH",
"279 695 OFFCURVE",
"290 691 OFFCURVE",
"299 691 CURVE SMOOTH",
"320 691 OFFCURVE",
"334 709 OFFCURVE",
"334 736 CURVE SMOOTH",
"334 739 LINE",
"396 739 LINE",
"394 674 OFFCURVE",
"358 632 OFFCURVE",
"303 632 CURVE SMOOTH",
"281 632 OFFCURVE",
"266 635 OFFCURVE",
"232 653 CURVE"
);
}
);
width = 469;
}
);
},
{
glyphname = c6462;
lastChange = "2014-11-05 03:29:27 -0500";
layers = (
{
layerId = "6B6936E6-7670-4A82-900D-EAF583C971AF";
name = Regular;
paths = (
{
closed = 1;
nodes = (
"165 745 LINE",
"260 616 LINE",
"186 616 LINE",
"73 745 LINE"
);
}
);
width = 333;
}
);
},
{
glyphname = c6463;
lastChange = "2014-11-05 03:29:27 -0500";
layers = (
{
layerId = "6B6936E6-7670-4A82-900D-EAF583C971AF";
name = Regular;
paths = (
{
closed = 1;
nodes = (
"176 746 LINE",
"268 746 LINE",
"371 616 LINE",
"303 616 LINE",
"222 703 LINE",
"141 616 LINE",
"73 616 LINE"
);
}
);
width = 444;
}
);
},
{
glyphname = c6466;
lastChange = "2014-11-05 03:29:27 -0500";
layers = (
{
layerId = "6B6936E6-7670-4A82-900D-EAF583C971AF";
name = Regular;
paths = (
{
closed = 1;
nodes = (
"176 616 LINE",
"73 746 LINE",
"141 746 LINE",
"222 659 LINE",
"303 746 LINE",
"371 746 LINE",
"268 616 LINE"
);
}
);
width = 444;
}
);
},
{
glyphname = c6467;
lastChange = "2014-11-05 03:29:27 -0500";
layers = (
{
layerId = "6B6936E6-7670-4A82-900D-EAF583C971AF";
name = Regular;
paths = (
{
closed = 1;
nodes = (
"275 675 LINE",
"125 470 LINE",
"275 470 LINE"
);
},
{
closed = 1;
nodes = (
"265 734 LINE",
"346 734 LINE",
"346 470 LINE",
"412 470 LINE",
"412 417 LINE",
"346 417 LINE",
"346 326 LINE",
"275 326 LINE",
"275 417 LINE",
"73 417 LINE",
"73 476 LINE"
);
}
);
width = 485;
}
);
},
{
glyphname = c6468;
lastChange = "2014-11-05 03:29:27 -0500";
layers = (
{
layerId = "6B6936E6-7670-4A82-900D-EAF583C971AF";
name = Regular;
paths = (
{
closed = 1;
nodes = (
"131 746 LINE",
"139 711 OFFCURVE",
"172 692 OFFCURVE",
"226 692 CURVE SMOOTH",
"279 692 OFFCURVE",
"311 709 OFFCURVE",
"321 746 CURVE",
"379 746 LINE",
"373 668 OFFCURVE",
"319 628 OFFCURVE",
"226 628 CURVE SMOOTH",
"132 628 OFFCURVE",
"80 668 OFFCURVE",
"73 746 CURVE"
);
}
);
width = 452;
}
);
},
{
glyphname = c6469;
lastChange = "2014-11-05 03:29:27 -0500";
layers = (
{
layerId = "6B6936E6-7670-4A82-900D-EAF583C971AF";
name = Regular;
paths = (
{
closed = 1;
nodes = (
"73 732 LINE",
"173 732 LINE",
"173 632 LINE",
"73 632 LINE"
);
}
);
width = 246;
}
);
},
{
glyphname = Hbar;
lastChange = "2014-11-05 03:35:10 -0500";
layers = (
{
components = (
{
name = H;
transform = "{1, 0, 0, 1, 0, 0}";
}
);
layerId = "6B6936E6-7670-4A82-900D-EAF583C971AF";
name = Regular;
paths = (
{
closed = 1;
nodes = (
"22 612 LINE",
"688 612 LINE",
"693 542 LINE",
"18 542 LINE"
);
}
);
width = 712;
}
);
unicode = 0126;
},
{
glyphname = Eng;
lastChange = "2014-11-05 03:35:10 -0500";
layers = (
{
components = (
{
name = N;
transform = "{1, 0, 0, 1, 0, 0}";
}
);
layerId = "6B6936E6-7670-4A82-900D-EAF583C971AF";
name = Regular;
paths = (
{
closed = 1;
nodes = (
"504 0 OFFCURVE",
"495 40 OFFCURVE",
"506 81 CURVE",
"634 0 LINE",
"583 -141 LINE",
"531 -230 LINE SMOOTH",
"496 -210 OFFCURVE",
"366 -182 OFFCURVE",
"341 -144 CURVE",
"373 -114 OFFCURVE",
"437 -73 OFFCURVE",
"471 -42 CURVE"
);
}
);
width = 708;
}
);
unicode = 014A;
},
{
glyphname = hbar;
lastChange = "2014-11-05 03:35:10 -0500";
layers = (
{
components = (
{
name = h;
transform = "{1, 0, 0, 1, 0, 0}";
}
);
layerId = "6B6936E6-7670-4A82-900D-EAF583C971AF";
name = Regular;
paths = (
{
closed = 1;
nodes = (
"36 680 LINE",
"356 680 LINE",
"366 620 LINE",
"21 620 LINE"
);
}
);
width = 624;
}
);
unicode = 0127;
},
{
glyphname = eng;
lastChange = "2014-11-05 03:29:27 -0500";
layers = (
{
layerId = "6B6936E6-7670-4A82-900D-EAF583C971AF";
name = Regular;
paths = (
{
closed = 1;
nodes = (
"556 205 OFFCURVE",
"558 125 OFFCURVE",
"558 71 CURVE SMOOTH",
"558 -21 OFFCURVE",
"552 -35 OFFCURVE",
"543 -59 CURVE SMOOTH",
"523 -114 OFFCURVE",
"381 -161 OFFCURVE",
"379 -161 CURVE SMOOTH",
"349 -161 OFFCURVE",
"296 -83 OFFCURVE",
"312 -54 CURVE SMOOTH",
"323 -31 OFFCURVE",
"447 -10 OFFCURVE",
"447 12 CURVE SMOOTH",
"456 332 LINE",
"456 436 OFFCURVE",
"425 487 OFFCURVE",
"345 487 CURVE SMOOTH",
"235 487 OFFCURVE",
"183 421 OFFCURVE",
"183 314 CURVE",
"198 0 LINE",
"73 0 LINE",
"88 552 LINE",
"178 552 LINE",
"178 486 LINE",
"221 520 OFFCURVE",
"279 560 OFFCURVE",
"355 560 CURVE SMOOTH",
"527 560 OFFCURVE",
"551 420 OFFCURVE",
"551 330 CURVE SMOOTH"
);
}
);
width = 639;
}
);
unicode = 014B;
},
{
color = 7;
glyphname = y.001;
lastChange = "2014-11-05 03:29:27 -0500";
layers = (
{
anchors = (
{
name = top;
position = "{352, 547}";
}
);
layerId = "6B6936E6-7670-4A82-900D-EAF583C971AF";
name = Regular;
paths = (
{
closed = 1;
nodes = (
"315 -25 LINE",
"40 -25 OFFCURVE",
"68 228 OFFCURVE",
"68 547 CURVE",
"164 547 LINE",
"183 225 OFFCURVE",
"99 114 OFFCURVE",
"338 114 CURVE SMOOTH",
"410 114 OFFCURVE",
"438 251 OFFCURVE",
"466 547 CURVE",
"594 547 LINE",
"493 -10 OFFCURVE",
"476 -401 OFFCURVE",
"144 -401 CURVE SMOOTH",
"63 -401 LINE",
"63 -246 LINE",
"226 -246 OFFCURVE",
"364 -209 OFFCURVE",
"377 -25 CURVE"
);
}
);
width = 679;
}
);
},
{
glyphname = euro;
lastChange = "2014-11-05 03:29:27 -0500";
layers = (
{
layerId = "6B6936E6-7670-4A82-900D-EAF583C971AF";
name = Regular;
paths = (
{
closed = 1;
nodes = (
"643 593 LINE",
"584 662 OFFCURVE",
"533 688 OFFCURVE",
"466 688 CURVE SMOOTH",
"364 688 OFFCURVE",
"296 597 OFFCURVE",
"275 475 CURVE",
"557 475 LINE",
"530 415 LINE",
"268 415 LINE",
"266 399 OFFCURVE",
"266 387 OFFCURVE",
"266 364 CURVE SMOOTH",
"266 343 OFFCURVE",
"266 330 OFFCURVE",
"268 314 CURVE",
"485 314 LINE",
"458 234 LINE",
"280 234 LINE",
"288 197 OFFCURVE",
"359 108 OFFCURVE",
"461 108 CURVE SMOOTH",
"528 108 OFFCURVE",
"577 135 OFFCURVE",
"643 203 CURVE",
"643 56 LINE",
"585 9 OFFCURVE",
"525 -14 OFFCURVE",
"462 -14 CURVE SMOOTH",
"308 -14 OFFCURVE",
"201 92 OFFCURVE",
"181 234 CURVE",
"73 234 LINE",
"100 314 LINE",
"168 314 LINE",
"168 321 OFFCURVE",
"168 329 OFFCURVE",
"168 337 CURVE",
"167 344 OFFCURVE",
"167 354 OFFCURVE",
"167 364 CURVE SMOOTH",
"167 375 OFFCURVE",
"167 385 OFFCURVE",
"168 393 CURVE",
"168 400 OFFCURVE",
"168 408 OFFCURVE",
"168 415 CURVE",
"73 415 LINE",
"100 475 LINE",
"176 475 LINE",
"202 643 OFFCURVE",
"309 742 OFFCURVE",
"462 742 CURVE SMOOTH",
"526 742 OFFCURVE",
"586 719 OFFCURVE",
"643 673 CURVE"
);
}
);
width = 716;
}
);
unicode = 20AC;
},
{
glyphname = dotbelowcomb;
lastChange = "2014-11-05 03:29:27 -0500";
layers = (
{
anchors = (
{
name = "_ dotbelowcomb";
position = "{133, 159}";
}
);
layerId = "6B6936E6-7670-4A82-900D-EAF583C971AF";
name = Regular;
paths = (
{
closed = 1;
nodes = (
"91 108 LINE",
"191 108 LINE",
"191 0 LINE",
"91 0 LINE"
);
}
);
width = 293;
}
);
unicode = 0323;
},
{
glyphname = hookabovecomb;
lastChange = "2014-11-05 03:29:27 -0500";
layers = (
{
anchors = (
{
name = hook;
position = "{146, 472}";
}
);
layerId = "6B6936E6-7670-4A82-900D-EAF583C971AF";
name = Regular;
paths = (
{
closed = 1;
nodes = (
"116 587 OFFCURVE",
"133 591 OFFCURVE",
"149 591 CURVE SMOOTH",
"166 591 OFFCURVE",
"179 587 OFFCURVE",
"189 581 CURVE SMOOTH",
"199 574 OFFCURVE",
"205 565 OFFCURVE",
"205 555 CURVE SMOOTH",
"205 545 OFFCURVE",
"198 535 OFFCURVE",
"184 524 CURVE SMOOTH",
"173 517 LINE SMOOTH",
"167 513 OFFCURVE",
"165 510 OFFCURVE",
"164 509 CURVE",
"163 506 OFFCURVE",
"162 502 OFFCURVE",
"162 497 CURVE",
"134 497 LINE",
"134 500 LINE SMOOTH",
"134 506 OFFCURVE",
"135 512 OFFCURVE",
"137 516 CURVE SMOOTH",
"140 521 OFFCURVE",
"145 525 OFFCURVE",
"153 531 CURVE SMOOTH",
"164 540 LINE SMOOTH",
"171 545 OFFCURVE",
"175 551 OFFCURVE",
"175 557 CURVE SMOOTH",
"175 563 OFFCURVE",
"166 571 OFFCURVE",
"143 571 CURVE SMOOTH",
"128 571 OFFCURVE",
"114 566 OFFCURVE",
"98 558 CURVE",
"98 579 LINE"
);
}
);
width = 293;
}
);
unicode = 0309;
},
{
glyphname = horncomb;
lastChange = "2014-11-05 03:29:27 -0500";
layers = (
{
anchors = (
{
name = _horn;
position = "{68, 481}";
}
);
layerId = "6B6936E6-7670-4A82-900D-EAF583C971AF";
name = Regular;
paths = (
{
closed = 1;
nodes = (
"66 481 LINE",
"90 496 OFFCURVE",
"100 498 OFFCURVE",
"112 508 CURVE SMOOTH",
"134 528 OFFCURVE",
"132 574 OFFCURVE",
"132 591 CURVE SMOOTH",
"132 602 OFFCURVE",
"129 611 OFFCURVE",
"125 621 CURVE",
"173 615 LINE",
"176 603 OFFCURVE",
"178 592 OFFCURVE",
"178 583 CURVE SMOOTH",
"178 544 OFFCURVE",
"167 496 OFFCURVE",
"137 469 CURVE SMOOTH",
"115 451 OFFCURVE",
"113 447 OFFCURVE",
"88 435 CURVE"
);
}
);
width = 293;
}
);
unicode = 031B;
},
